M48
;Layer_Color=6321
;FILE_FORMAT=2:5
INCH,LZ
;TYPE=PLATED
T1F00S00C0.00787
T2F00S00C0.01181
T3F00S00C0.03000
T4F00S00C0.03937
T5F00S00C0.12992
%
T01
X01665Y0142925
Y0146075
T02
X0131595Y0113841
X0128Y01195
X0127Y0139
X0175Y01355
X01705Y0151
X0205Y01375
Y01315
X02045Y01245
X01965Y0124
X01935Y01195
X01865Y01185
X0184Y01065
X0217Y0121
X0227Y0149
X0215Y0186
X0231Y0198
X01855Y02115
X0177Y0217278
X0170043Y02215
X0163Y02335
X0179Y01625
X0189Y0163
X01465Y01635
X0132Y0168
X0125Y0169
X01335Y0211
X0134Y0226
X0119Y02145
X0113Y02105
X01545
X0155Y02355
T03
X0124434Y0231063
Y0239
T04
X0106496Y0105984
Y0115984
Y0125984
Y0135984
Y0145984
Y0155984
X0233504
Y0145984
Y0135984
Y0125984
Y0115984
Y0105984
Y0165984
Y0175984
X0106496
Y0165984
T05
X0227992Y0262992
X0112008
M30
