G04 Layer_Color=7318015*
%FSLAX25Y25*%
%MOIN*%
G70*
G01*
G75*
%ADD10R,0.07087X0.04724*%
%ADD11R,0.06102X0.02362*%
%ADD12R,0.09843X0.15748*%
%ADD13R,0.02362X0.06102*%
%ADD14R,0.05512X0.07087*%
%ADD15R,0.06102X0.02362*%
%ADD16R,0.07087X0.05512*%
%ADD17R,0.01654X0.02756*%
%ADD18R,0.04921X0.06102*%
%ADD21R,0.05315X0.05709*%
%ADD22R,0.05512X0.08268*%
%ADD23R,0.05512X0.08268*%
%ADD24R,0.04528X0.05118*%
%ADD25R,0.05709X0.04724*%
%ADD26R,0.07874X0.05512*%
%ADD27R,0.04724X0.05512*%
%ADD28R,0.07087X0.09449*%
%ADD29R,0.05906X0.04331*%
%ADD30R,0.04921X0.10630*%
%ADD31R,0.04331X0.05512*%
%ADD32R,0.03543X0.01575*%
%ADD33R,0.05512X0.04331*%
%ADD34R,0.05315X0.03937*%
G04:AMPARAMS|DCode=35|XSize=39.37mil|YSize=28.35mil|CornerRadius=3.54mil|HoleSize=0mil|Usage=FLASHONLY|Rotation=180.000|XOffset=0mil|YOffset=0mil|HoleType=Round|Shape=RoundedRectangle|*
%AMROUNDEDRECTD35*
21,1,0.03937,0.02126,0,0,180.0*
21,1,0.03228,0.02835,0,0,180.0*
1,1,0.00709,-0.01614,0.01063*
1,1,0.00709,0.01614,0.01063*
1,1,0.00709,0.01614,-0.01063*
1,1,0.00709,-0.01614,-0.01063*
%
%ADD35ROUNDEDRECTD35*%
%ADD42R,0.09331X0.06693*%
%ADD58R,0.01969X0.00984*%
%ADD59R,0.02756X0.05118*%
%ADD60R,0.00000X0.02756*%
D10*
X235595Y241764D02*
D03*
Y212236D02*
D03*
D11*
X220831Y236842D02*
D03*
Y232906D02*
D03*
Y228969D02*
D03*
Y225031D02*
D03*
Y221094D02*
D03*
Y217158D02*
D03*
D12*
X215000Y153673D02*
D03*
Y175327D02*
D03*
D13*
X196595Y119087D02*
D03*
X200532D02*
D03*
X204468D02*
D03*
X208405D02*
D03*
X131595D02*
D03*
X135531D02*
D03*
X139469D02*
D03*
X143405D02*
D03*
D14*
X190689Y104323D02*
D03*
X214311D02*
D03*
X125689D02*
D03*
X149311D02*
D03*
D15*
X119087Y210405D02*
D03*
Y206469D02*
D03*
Y202532D02*
D03*
Y198594D02*
D03*
D16*
X104323Y216311D02*
D03*
Y192689D02*
D03*
D17*
X130161Y139012D02*
D03*
X132720D02*
D03*
X135280D02*
D03*
X137839D02*
D03*
X137839Y127988D02*
D03*
X135280D02*
D03*
X132720D02*
D03*
X130161D02*
D03*
D18*
X154535Y170500D02*
D03*
X146465D02*
D03*
X154535Y148000D02*
D03*
X146465D02*
D03*
X146465Y158500D02*
D03*
X154535D02*
D03*
D21*
X163752Y156500D02*
D03*
X170248D02*
D03*
D22*
X178134Y123500D02*
D03*
D23*
X169866D02*
D03*
D24*
X170929Y170500D02*
D03*
X162071D02*
D03*
D25*
X179000Y150063D02*
D03*
Y157937D02*
D03*
D26*
X132000Y147913D02*
D03*
Y162087D02*
D03*
D27*
X169846Y135500D02*
D03*
X163154D02*
D03*
D28*
X198480Y134500D02*
D03*
X183520D02*
D03*
D29*
X189000Y150563D02*
D03*
Y158437D02*
D03*
D30*
X206110Y246500D02*
D03*
X194890D02*
D03*
X206110Y233500D02*
D03*
X194890D02*
D03*
X206110Y220500D02*
D03*
X194890D02*
D03*
X206110Y207500D02*
D03*
X194890D02*
D03*
D31*
X131055Y203500D02*
D03*
X137945D02*
D03*
X131055Y196000D02*
D03*
X137945D02*
D03*
X213555Y130000D02*
D03*
X220445D02*
D03*
X213555Y138000D02*
D03*
X220445D02*
D03*
D32*
X170043Y230059D02*
D03*
Y227500D02*
D03*
Y224941D02*
D03*
X162957D02*
D03*
Y227500D02*
D03*
Y230059D02*
D03*
D33*
X146500Y223555D02*
D03*
Y230445D02*
D03*
X155000D02*
D03*
Y223555D02*
D03*
X185500Y228945D02*
D03*
Y222055D02*
D03*
X177000D02*
D03*
Y228945D02*
D03*
D34*
X133500Y239547D02*
D03*
Y245453D02*
D03*
D35*
Y229244D02*
D03*
Y234756D02*
D03*
D42*
X134000Y131728D02*
D03*
D58*
X170240Y147453D02*
D03*
Y145484D02*
D03*
Y143516D02*
D03*
Y141547D02*
D03*
X162760D02*
D03*
Y143516D02*
D03*
Y147453D02*
D03*
Y145484D02*
D03*
D59*
X166500Y144500D02*
D03*
D60*
X166500Y144500D02*
D03*
M02*
