G04 Layer_Color=8150272*
%FSLAX25Y25*%
%MOIN*%
G70*
G01*
G75*
%ADD88C,0.06800*%
%ADD89C,0.20485*%
%ADD90C,0.07887*%
%ADD91R,0.07887X0.07887*%
%ADD92C,0.03162*%
%ADD93C,0.02520*%
%ADD94R,0.05524X0.05131*%
%ADD95R,0.04737X0.02572*%
D88*
X124434Y239000D02*
D03*
Y231063D02*
D03*
D89*
X112008Y262992D02*
D03*
X227992D02*
D03*
D90*
X106496Y145984D02*
D03*
Y155984D02*
D03*
Y165984D02*
D03*
Y135984D02*
D03*
Y125984D02*
D03*
Y115984D02*
D03*
Y105984D02*
D03*
X233504D02*
D03*
Y115984D02*
D03*
Y125984D02*
D03*
Y135984D02*
D03*
Y145984D02*
D03*
Y155984D02*
D03*
Y165984D02*
D03*
Y175984D02*
D03*
D91*
X106496D02*
D03*
D92*
X134000Y226000D02*
D03*
X215000Y186000D02*
D03*
X175000Y135500D02*
D03*
X184000Y106500D02*
D03*
X186500Y118500D02*
D03*
X204500Y124500D02*
D03*
X127000Y139000D02*
D03*
X205000Y131500D02*
D03*
Y137500D02*
D03*
X231000Y198000D02*
D03*
X185500Y211500D02*
D03*
X227000Y149000D02*
D03*
X128000Y119500D02*
D03*
X131595Y113841D02*
D03*
X113000Y210500D02*
D03*
X119000Y214500D02*
D03*
X132000Y168000D02*
D03*
X189000Y163000D02*
D03*
X179000Y162500D02*
D03*
X170500Y151000D02*
D03*
X146500Y163500D02*
D03*
X154500Y210500D02*
D03*
X133500Y211000D02*
D03*
X163000Y233500D02*
D03*
X155000Y235500D02*
D03*
X177000Y217278D02*
D03*
X170043Y221500D02*
D03*
X217000Y121000D02*
D03*
X196500Y124000D02*
D03*
X193500Y119500D02*
D03*
X125000Y169000D02*
D03*
D93*
X166500Y142925D02*
D03*
Y146075D02*
D03*
D94*
X220311Y180217D02*
D03*
Y194783D02*
D03*
X196689Y180217D02*
D03*
Y194783D02*
D03*
D95*
X208500Y177657D02*
D03*
Y197343D02*
D03*
M02*
