G04 Layer_Color=20142*
%FSLAX25Y25*%
%MOIN*%
G70*
G01*
G75*
%ADD61R,0.07887X0.05524*%
%ADD62R,0.06902X0.03162*%
%ADD63R,0.10642X0.16548*%
%ADD64R,0.03162X0.06902*%
%ADD65R,0.06312X0.07887*%
%ADD66R,0.06902X0.03162*%
%ADD67R,0.07887X0.06312*%
%ADD68R,0.02454X0.03556*%
%ADD69R,0.05721X0.06902*%
%ADD70R,0.02520X0.01654*%
%ADD71R,0.04095X0.06850*%
%ADD72R,0.06115X0.06509*%
%ADD73R,0.06312X0.09068*%
%ADD74R,0.06312X0.09068*%
%ADD75R,0.05328X0.05918*%
%ADD76R,0.06509X0.05524*%
%ADD77R,0.08674X0.06312*%
%ADD78R,0.05524X0.06312*%
%ADD79R,0.07887X0.10249*%
%ADD80R,0.06706X0.05131*%
%ADD81R,0.05721X0.11430*%
%ADD82R,0.05131X0.06312*%
%ADD83R,0.04343X0.02375*%
%ADD84R,0.06312X0.05131*%
%ADD85R,0.06115X0.04737*%
G04:AMPARAMS|DCode=86|XSize=47.37mil|YSize=36.35mil|CornerRadius=7.54mil|HoleSize=0mil|Usage=FLASHONLY|Rotation=180.000|XOffset=0mil|YOffset=0mil|HoleType=Round|Shape=RoundedRectangle|*
%AMROUNDEDRECTD86*
21,1,0.04737,0.02126,0,0,180.0*
21,1,0.03228,0.03635,0,0,180.0*
1,1,0.01509,-0.01614,0.01063*
1,1,0.01509,0.01614,0.01063*
1,1,0.01509,0.01614,-0.01063*
1,1,0.01509,-0.01614,-0.01063*
%
%ADD86ROUNDEDRECTD86*%
%ADD87R,0.10131X0.07493*%
%ADD88C,0.06800*%
%ADD89C,0.20485*%
%ADD90C,0.07887*%
%ADD91R,0.07887X0.07887*%
%ADD92C,0.03162*%
%ADD93C,0.02520*%
D61*
X235595Y241764D02*
D03*
Y212236D02*
D03*
D62*
X220831Y236842D02*
D03*
Y232906D02*
D03*
Y228969D02*
D03*
Y225031D02*
D03*
Y221094D02*
D03*
Y217158D02*
D03*
D63*
X215000Y153673D02*
D03*
Y175327D02*
D03*
D64*
X196595Y119087D02*
D03*
X200532D02*
D03*
X204468D02*
D03*
X208405D02*
D03*
X131595D02*
D03*
X135531D02*
D03*
X139469D02*
D03*
X143405D02*
D03*
D65*
X190689Y104323D02*
D03*
X214311D02*
D03*
X125689D02*
D03*
X149311D02*
D03*
D66*
X119087Y210405D02*
D03*
Y206469D02*
D03*
Y202532D02*
D03*
Y198594D02*
D03*
D67*
X104323Y216311D02*
D03*
Y192689D02*
D03*
D68*
X130161Y139012D02*
D03*
X132720D02*
D03*
X135280D02*
D03*
X137839D02*
D03*
X137839Y127988D02*
D03*
X135280D02*
D03*
X132720D02*
D03*
X130161D02*
D03*
D69*
X154535Y170500D02*
D03*
X146465D02*
D03*
X154535Y148000D02*
D03*
X146465D02*
D03*
X146465Y158500D02*
D03*
X154535D02*
D03*
D70*
X162760Y147453D02*
D03*
Y145484D02*
D03*
Y143516D02*
D03*
Y141547D02*
D03*
X170240D02*
D03*
Y143516D02*
D03*
Y145484D02*
D03*
Y147453D02*
D03*
D71*
X166500Y144500D02*
D03*
D72*
X163752Y156500D02*
D03*
X170248D02*
D03*
D73*
X178134Y123500D02*
D03*
D74*
X169866D02*
D03*
D75*
X170929Y170500D02*
D03*
X162071D02*
D03*
D76*
X179000Y150063D02*
D03*
Y157937D02*
D03*
D77*
X132000Y147913D02*
D03*
Y162087D02*
D03*
D78*
X169846Y135500D02*
D03*
X163154D02*
D03*
D79*
X198480Y134500D02*
D03*
X183520D02*
D03*
D80*
X189000Y150563D02*
D03*
Y158437D02*
D03*
D81*
X206110Y246500D02*
D03*
X194890D02*
D03*
X206110Y233500D02*
D03*
X194890D02*
D03*
X206110Y220500D02*
D03*
X194890D02*
D03*
X206110Y207500D02*
D03*
X194890D02*
D03*
D82*
X131055Y203500D02*
D03*
X137945D02*
D03*
X131055Y196000D02*
D03*
X137945D02*
D03*
X213555Y130000D02*
D03*
X220445D02*
D03*
X213555Y138000D02*
D03*
X220445D02*
D03*
D83*
X170043Y230059D02*
D03*
Y227500D02*
D03*
Y224941D02*
D03*
X162957D02*
D03*
Y227500D02*
D03*
Y230059D02*
D03*
D84*
X146500Y223555D02*
D03*
Y230445D02*
D03*
X155000D02*
D03*
Y223555D02*
D03*
X185500Y228945D02*
D03*
Y222055D02*
D03*
X177000D02*
D03*
Y228945D02*
D03*
D85*
X133500Y239547D02*
D03*
Y245453D02*
D03*
D86*
Y229244D02*
D03*
Y234756D02*
D03*
D87*
X134000Y131728D02*
D03*
D88*
X124434Y239000D02*
D03*
Y231063D02*
D03*
D89*
X112008Y262992D02*
D03*
X227992D02*
D03*
D90*
X106496Y145984D02*
D03*
Y155984D02*
D03*
Y165984D02*
D03*
Y135984D02*
D03*
Y125984D02*
D03*
Y115984D02*
D03*
Y105984D02*
D03*
X233504D02*
D03*
Y115984D02*
D03*
Y125984D02*
D03*
Y135984D02*
D03*
Y145984D02*
D03*
Y155984D02*
D03*
Y165984D02*
D03*
Y175984D02*
D03*
D91*
X106496D02*
D03*
D92*
X134000Y226000D02*
D03*
X215000Y186000D02*
D03*
X175000Y135500D02*
D03*
X184000Y106500D02*
D03*
X186500Y118500D02*
D03*
X204500Y124500D02*
D03*
X127000Y139000D02*
D03*
X205000Y131500D02*
D03*
Y137500D02*
D03*
X231000Y198000D02*
D03*
X185500Y211500D02*
D03*
X227000Y149000D02*
D03*
X128000Y119500D02*
D03*
X131595Y113841D02*
D03*
X113000Y210500D02*
D03*
X119000Y214500D02*
D03*
X132000Y168000D02*
D03*
X189000Y163000D02*
D03*
X179000Y162500D02*
D03*
X170500Y151000D02*
D03*
X146500Y163500D02*
D03*
X154500Y210500D02*
D03*
X133500Y211000D02*
D03*
X163000Y233500D02*
D03*
X155000Y235500D02*
D03*
X177000Y217278D02*
D03*
X170043Y221500D02*
D03*
X217000Y121000D02*
D03*
X196500Y124000D02*
D03*
X193500Y119500D02*
D03*
X125000Y169000D02*
D03*
D93*
X166500Y142925D02*
D03*
Y146075D02*
D03*
M02*
