M48
;Layer_Color=6321
;FILE_FORMAT=2:5
INCH,LZ
;TYPE=PLATED
T1F00S00C0.01181
T2F00S00C0.01968
T3F00S00C0.02500
T4F00S00C0.02756
T5F00S00C0.03000
T6F00S00C0.03150
T7F00S00C0.03543
T8F00S00C0.03976
T9F00S00C0.05118
T10F00S00C0.12992
%
T01
X0135Y0139
X01785Y01395
X0177555Y0147
X04045Y01495
X03815Y01745
X0382Y02045
X03865Y0213
X03855Y0238
X0385Y0243
Y025
X0375
X03755Y0243
Y0238
X03625Y02525
X03605Y026
X034
X0339Y0268
X033
Y02855
X03395Y02885
X03485Y03015
X0349Y03075
X03605Y0301
X0364Y02885
X0375Y02845
Y0273
X03975Y02785
X03535Y02805
X03745Y0312
X03795Y03115
X0429Y0205
Y0193
X04435Y0185
X0451Y01855
X04455Y01705
X04415Y0174
X0444Y0158
X04445Y0205
X0276Y02055
Y02005
X02665Y02015
X0266Y02055
Y0213
X02755
X02545Y02165
X0255Y0224
X02555Y02315
X02485Y02455
X02435Y02645
X02475Y0269
X02405Y0285
X02435Y02895
X0235Y0297
X0212Y0266
Y02625
X0209Y0262
X0205Y02515
X02165Y02495
X021717Y0234419
X021317
X020917
X020517
X020117
X019717
Y0229919
X020117
X020517
X020917
X021317
X021717
X022117
X022467
X022817
Y0234419
X022467
X022117
Y0224919
X022467
X022817
X021717
X021317
X020917
X020517
X020117
X019717
X0194882Y02105
X0202
X0209Y021
X02155Y02105
X02265
X02345
X02275Y01785
X02165Y0179
X02085
X0188607Y0215919
X0194Y0273
X02755Y0276
X02815Y0281
X0281Y026
X02755
X03055Y02665
X0309Y0274
X01605Y01665
X0126Y01675
X0115Y01655
X01265Y0181
X0126Y02015
Y0215
X0119Y0208
X011Y01885
X01265Y0259
Y027
Y02735
Y0287
X0121Y02645
X01485Y0454
X02035
Y04505
X0207
Y0454
X0211
Y04505
X0215
Y0454
X0259Y04335
Y043
X0264
Y04335
X027Y0425
X0278Y04215
X0279Y04275
Y0432
Y0436
X02835
Y0432
Y04275
X0254Y0425
X0249Y0423
X02485Y03915
X02515
X02545
Y03875
X02515
X02485
X02515Y03595
X0278Y0372
X02855Y037
X0293Y03785
X02965Y03965
Y04
Y04035
X03005
Y04
Y03965
X03055Y03485
X02935
X01845Y03385
X0178Y0334
Y0331
X01785Y03725
Y03765
X01855Y03825
X02045Y0397
X0314Y0402
X03165
X0319
X0328Y04
X0346Y03965
X03455Y0385
X03495Y03825
X03515Y0386
X0353Y03785
X03565
X0355Y0371
X03615Y03575
X0367Y03505
X0362Y03445
X03575Y03425
X0368Y0339
X0371Y0336216
X03765Y0336
X03885Y0331
X03935
X03925Y03385
X03745Y0365
X0376Y04025
X03755Y0411
X03765Y0417
X0382Y03995
X0393Y03935
X03915Y04365
X0407
X0412
X042Y0431
X0427Y04365
X0434Y0431
X04415Y04365
X0446Y0331
X04465Y0322
X0459Y03405
X0346Y0338
X03485Y0328
X0361Y0318
X03595Y0314
X03695Y03125
X0342Y0347
X03395Y04885
X03455
X0352
X03585
X03655
X03335
X0327
X0321
X03145
X03085
X0303
X0297
X029
T02
X0403Y0343
Y0348
Y0353
Y0358
Y0363
Y0368
Y0373
Y0378
Y0383
Y0388
Y0393
Y0398
T03
X03529Y01304
X03601Y01305
X03673
X03745
X04059Y01299
X04131Y013
X04203
X04275
T04
X0196658Y01585
X0216342
X0219513Y0298419
X0199828
T05
X02605Y0128
Y0138
Y0148
X0308492Y0153
X03205Y0148
Y0138
Y0128
Y0158
Y0168
Y0178
Y0188
Y0198
Y0208
Y0218
Y0228
Y0238
Y0248
Y0258
Y0268
Y0278
Y0288
Y0298
Y0308
X0395508Y0224886
X0411256
X041913
X0427004
X0434878
X0442752
X0450626
X04585
X0308492Y0193
Y0183
Y0173
Y0163
X02605Y0158
Y0168
Y0178
Y0188
Y0198
Y0208
Y0218
Y0228
Y0238
Y0248
Y0258
Y0268
Y0278
Y0288
Y0298
Y0308
X02705
X02805
X02905
X03005
X03105
X02605Y0318
Y0328
Y0338
Y0348
Y0358
X0251Y0456658
X01625Y0432342
Y0412657
X03205Y0358
Y0348
Y0338
Y0328
Y0318
X0381Y0341
Y0350842
Y0360685
Y0370528
Y038037
Y0390213
X0251Y0476342
T06
X0387634Y0224886
X0403382
Y03115
X0395508
X0387634
X0411256
X041913
X0427004
X0434878
X0442752
X0450626
X04585
T07
X027Y0179
X0278
Y0187
X0286
Y0179
X027Y0187
T08
X04Y04685
X041
X042
T09
X0119Y0226
Y0246
X01215Y03405
Y03605
Y03835
Y04035
X0119Y0438
Y0458
T10
X01125Y0132
X04575
X04565Y0481
X0113
M30
