G04 Layer_Color=8150272*
%FSLAX25Y25*%
%MOIN*%
G70*
G01*
G75*
%ADD114R,0.05918X0.06706*%
%ADD115R,0.06312X0.06312*%
%ADD156C,0.07532*%
G04:AMPARAMS|DCode=157|XSize=75.32mil|YSize=75.32mil|CornerRadius=5.68mil|HoleSize=0mil|Usage=FLASHONLY|Rotation=0.000|XOffset=0mil|YOffset=0mil|HoleType=Round|Shape=RoundedRectangle|*
%AMROUNDEDRECTD157*
21,1,0.07532,0.06396,0,0,0.0*
21,1,0.06396,0.07532,0,0,0.0*
1,1,0.01137,0.03198,-0.03198*
1,1,0.01137,-0.03198,-0.03198*
1,1,0.01137,-0.03198,0.03198*
1,1,0.01137,0.03198,0.03198*
%
%ADD157ROUNDEDRECTD157*%
%ADD158C,0.06800*%
%ADD159R,0.06800X0.06800*%
%ADD160C,0.05524*%
%ADD161R,0.05524X0.05524*%
%ADD162C,0.11036*%
%ADD163R,0.04300X0.05300*%
%ADD164O,0.04300X0.05300*%
%ADD165O,0.06800X0.04343*%
G04:AMPARAMS|DCode=166|XSize=68mil|YSize=43.43mil|CornerRadius=12.86mil|HoleSize=0mil|Usage=FLASHONLY|Rotation=0.000|XOffset=0mil|YOffset=0mil|HoleType=Round|Shape=RoundedRectangle|*
%AMROUNDEDRECTD166*
21,1,0.06800,0.01772,0,0,0.0*
21,1,0.04228,0.04343,0,0,0.0*
1,1,0.02572,0.02114,-0.00886*
1,1,0.02572,-0.02114,-0.00886*
1,1,0.02572,-0.02114,0.00886*
1,1,0.02572,0.02114,0.00886*
%
%ADD166ROUNDEDRECTD166*%
%ADD167C,0.03162*%
%ADD168C,0.22453*%
%ADD169R,0.05918X0.07887*%
D114*
X225839Y261500D02*
D03*
X218161D02*
D03*
X226661Y198500D02*
D03*
X234339D02*
D03*
X215839D02*
D03*
X208161D02*
D03*
D115*
X225937Y254500D02*
D03*
X218063D02*
D03*
X189937Y210000D02*
D03*
X182063D02*
D03*
X201937Y253000D02*
D03*
X194063D02*
D03*
X226563Y206000D02*
D03*
X234437D02*
D03*
X215937D02*
D03*
X208063D02*
D03*
D156*
X420000Y468500D02*
D03*
X410000D02*
D03*
D157*
X400000D02*
D03*
D158*
X395508Y224886D02*
D03*
X458500D02*
D03*
X450626D02*
D03*
X442752D02*
D03*
X434878D02*
D03*
X427004D02*
D03*
X419130D02*
D03*
X411256D02*
D03*
X403382D02*
D03*
X387634D02*
D03*
Y311500D02*
D03*
X395508D02*
D03*
X403382D02*
D03*
X411256D02*
D03*
X419130D02*
D03*
X427004D02*
D03*
X434878D02*
D03*
X442752D02*
D03*
X450626D02*
D03*
X381000Y341000D02*
D03*
Y350842D02*
D03*
Y360685D02*
D03*
Y370528D02*
D03*
Y380370D02*
D03*
Y390213D02*
D03*
X251000Y456658D02*
D03*
X162500Y432342D02*
D03*
Y412657D02*
D03*
X308492Y193000D02*
D03*
Y183000D02*
D03*
Y153000D02*
D03*
Y163000D02*
D03*
Y173000D02*
D03*
X270500Y308000D02*
D03*
X280500D02*
D03*
X290500D02*
D03*
X300500D02*
D03*
X310500D02*
D03*
X260500Y128000D02*
D03*
Y138000D02*
D03*
Y148000D02*
D03*
Y268000D02*
D03*
X320500D02*
D03*
Y128000D02*
D03*
X260500Y278000D02*
D03*
Y288000D02*
D03*
Y298000D02*
D03*
Y308000D02*
D03*
Y318000D02*
D03*
Y328000D02*
D03*
Y338000D02*
D03*
Y348000D02*
D03*
Y358000D02*
D03*
X320500D02*
D03*
Y348000D02*
D03*
Y338000D02*
D03*
Y328000D02*
D03*
Y318000D02*
D03*
Y308000D02*
D03*
Y298000D02*
D03*
Y288000D02*
D03*
Y278000D02*
D03*
X260500Y158000D02*
D03*
Y168000D02*
D03*
Y178000D02*
D03*
Y188000D02*
D03*
Y198000D02*
D03*
Y208000D02*
D03*
Y218000D02*
D03*
Y228000D02*
D03*
Y238000D02*
D03*
Y248000D02*
D03*
Y258000D02*
D03*
X320500D02*
D03*
Y248000D02*
D03*
Y238000D02*
D03*
Y228000D02*
D03*
Y218000D02*
D03*
Y208000D02*
D03*
Y198000D02*
D03*
Y188000D02*
D03*
Y178000D02*
D03*
Y168000D02*
D03*
Y158000D02*
D03*
Y148000D02*
D03*
Y138000D02*
D03*
X278000Y187000D02*
D03*
X286000D02*
D03*
X270000Y179000D02*
D03*
X278000D02*
D03*
X286000D02*
D03*
X270000Y187000D02*
D03*
D159*
X458500Y311500D02*
D03*
X251000Y476342D02*
D03*
D160*
X219513Y298419D02*
D03*
X216342Y158500D02*
D03*
D161*
X199828Y298419D02*
D03*
X196658Y158500D02*
D03*
D162*
X119000Y226000D02*
D03*
Y246000D02*
D03*
Y438000D02*
D03*
Y458000D02*
D03*
X121500Y403500D02*
D03*
Y383500D02*
D03*
Y360500D02*
D03*
Y340500D02*
D03*
D163*
X352900Y130400D02*
D03*
X405900Y129900D02*
D03*
D164*
X360100Y130500D02*
D03*
X367300D02*
D03*
X374500D02*
D03*
X413100Y130000D02*
D03*
X420300D02*
D03*
X427500D02*
D03*
D165*
X403000Y343000D02*
D03*
Y348000D02*
D03*
Y353000D02*
D03*
Y358000D02*
D03*
Y363000D02*
D03*
Y368000D02*
D03*
Y378000D02*
D03*
Y373000D02*
D03*
Y383000D02*
D03*
Y388000D02*
D03*
Y393000D02*
D03*
D166*
Y398000D02*
D03*
D167*
X365500Y488500D02*
D03*
X441500Y436500D02*
D03*
X434000Y431000D02*
D03*
X427000Y436500D02*
D03*
X420000Y431000D02*
D03*
X407000Y436500D02*
D03*
X412000D02*
D03*
X391500D02*
D03*
X404500Y149500D02*
D03*
X386500Y213000D02*
D03*
X382000Y204500D02*
D03*
X204500Y397000D02*
D03*
X254500Y387500D02*
D03*
X251500D02*
D03*
X248500D02*
D03*
X254500Y391500D02*
D03*
X251500D02*
D03*
X248500D02*
D03*
X254000Y425000D02*
D03*
X249000Y423000D02*
D03*
X270000Y425000D02*
D03*
X278000Y421500D02*
D03*
X215000Y450500D02*
D03*
X211000D02*
D03*
X207000D02*
D03*
X203500D02*
D03*
X215000Y454000D02*
D03*
X211000D02*
D03*
X207000D02*
D03*
X203500D02*
D03*
X290000Y488500D02*
D03*
X358500D02*
D03*
X352000D02*
D03*
X345500D02*
D03*
X339500D02*
D03*
X333500D02*
D03*
X327000D02*
D03*
X321000D02*
D03*
X314500D02*
D03*
X308500D02*
D03*
X303000D02*
D03*
X297000D02*
D03*
X251500Y359500D02*
D03*
X309000Y274000D02*
D03*
X305500Y266500D02*
D03*
Y348500D02*
D03*
X126000Y215000D02*
D03*
X119000Y208000D02*
D03*
X126000Y201500D02*
D03*
X178000Y331000D02*
D03*
Y334000D02*
D03*
X339500Y288500D02*
D03*
X340000Y260000D02*
D03*
X330000Y268000D02*
D03*
Y285500D02*
D03*
X360500Y260000D02*
D03*
X362500Y252500D02*
D03*
X296500Y396500D02*
D03*
X300500D02*
D03*
X296500Y400000D02*
D03*
X300500D02*
D03*
Y403500D02*
D03*
X296500D02*
D03*
X361500Y357500D02*
D03*
X367000Y350500D02*
D03*
X348500Y328000D02*
D03*
X361000Y318000D02*
D03*
X148500Y454000D02*
D03*
X243500Y264500D02*
D03*
Y289500D02*
D03*
X359500Y314000D02*
D03*
X374500Y365000D02*
D03*
X375000Y250000D02*
D03*
X385000D02*
D03*
X369500Y312500D02*
D03*
X393500Y331000D02*
D03*
X374500Y312000D02*
D03*
X385000Y243000D02*
D03*
X375500D02*
D03*
X379500Y311500D02*
D03*
X385500Y238000D02*
D03*
X375500D02*
D03*
X388500Y331000D02*
D03*
X276000Y200500D02*
D03*
X240500Y285000D02*
D03*
X247500Y269000D02*
D03*
X215500Y210500D02*
D03*
X266500Y201500D02*
D03*
X255500Y231500D02*
D03*
X248500Y245500D02*
D03*
X254500Y216500D02*
D03*
X255000Y224000D02*
D03*
X110000Y188500D02*
D03*
X194000Y273000D02*
D03*
X429000Y193000D02*
D03*
X381500Y174500D02*
D03*
X459000Y340500D02*
D03*
X178500Y372500D02*
D03*
Y376500D02*
D03*
X349000Y307500D02*
D03*
X348500Y301500D02*
D03*
X281500Y281000D02*
D03*
X275500Y276000D02*
D03*
X281000Y260000D02*
D03*
X275500D02*
D03*
X276000Y205500D02*
D03*
X275500Y213000D02*
D03*
X266000Y205500D02*
D03*
Y213000D02*
D03*
X353500Y280500D02*
D03*
X364000Y288500D02*
D03*
X319000Y402000D02*
D03*
X316500D02*
D03*
X314000D02*
D03*
X234500Y210500D02*
D03*
X226500D02*
D03*
X209000Y210000D02*
D03*
X202000Y210500D02*
D03*
X188607Y215919D02*
D03*
X194882Y210500D02*
D03*
X205000Y251500D02*
D03*
X205170Y234419D02*
D03*
X209170D02*
D03*
X213170D02*
D03*
X217170D02*
D03*
X221170D02*
D03*
X224670D02*
D03*
X197170Y229919D02*
D03*
X217170D02*
D03*
X213170D02*
D03*
X197170Y234419D02*
D03*
X205170Y229919D02*
D03*
X201170D02*
D03*
X209170D02*
D03*
X221170D02*
D03*
X224670D02*
D03*
X201170Y234419D02*
D03*
X228170Y229919D02*
D03*
X221170Y224919D02*
D03*
X213170D02*
D03*
X224670D02*
D03*
X228170D02*
D03*
X217170D02*
D03*
X228170Y234419D02*
D03*
X209170Y224919D02*
D03*
X205170D02*
D03*
X197170D02*
D03*
X201170D02*
D03*
X355000Y371000D02*
D03*
X345500Y385000D02*
D03*
X349500Y382500D02*
D03*
X351500Y386000D02*
D03*
X216500Y249500D02*
D03*
X441500Y174000D02*
D03*
X443500Y185000D02*
D03*
X445500Y170500D02*
D03*
X444500Y205000D02*
D03*
X451000Y185500D02*
D03*
X444000Y158000D02*
D03*
X126500Y181000D02*
D03*
X264000Y430000D02*
D03*
X259000D02*
D03*
Y433500D02*
D03*
X264000D02*
D03*
X429000Y205000D02*
D03*
X360500Y301000D02*
D03*
X339000Y268000D02*
D03*
X375000Y273000D02*
D03*
X397500Y278500D02*
D03*
X216500Y179000D02*
D03*
X208500D02*
D03*
X212000Y262500D02*
D03*
X209000Y262000D02*
D03*
X212000Y266000D02*
D03*
X178500Y139500D02*
D03*
X177555Y147000D02*
D03*
X160500Y166500D02*
D03*
X115000Y165500D02*
D03*
X126000Y167500D02*
D03*
X126500Y273500D02*
D03*
Y287000D02*
D03*
Y259000D02*
D03*
Y270000D02*
D03*
X121000Y264500D02*
D03*
X235000Y297000D02*
D03*
X375000Y284500D02*
D03*
X446500Y322000D02*
D03*
X446000Y331000D02*
D03*
X393000Y393500D02*
D03*
X293000Y378500D02*
D03*
X285500Y370000D02*
D03*
X278000Y372000D02*
D03*
X283500Y436000D02*
D03*
X279000D02*
D03*
X283500Y432000D02*
D03*
X279000D02*
D03*
Y427500D02*
D03*
X283500D02*
D03*
X227500Y178500D02*
D03*
X356500Y378500D02*
D03*
X353000D02*
D03*
X184500Y338500D02*
D03*
X185500Y382500D02*
D03*
X135000Y139000D02*
D03*
X346000Y338000D02*
D03*
X357500Y342500D02*
D03*
X371000Y336216D02*
D03*
X368000Y339000D02*
D03*
X376500Y336000D02*
D03*
X362000Y344500D02*
D03*
X346000Y396500D02*
D03*
X376000Y402500D02*
D03*
X328000Y400000D02*
D03*
X293500Y348500D02*
D03*
X375500Y411000D02*
D03*
X392500Y338500D02*
D03*
X382000Y399500D02*
D03*
X376500Y417000D02*
D03*
X342000Y347000D02*
D03*
D168*
X112500Y132000D02*
D03*
X113000Y481000D02*
D03*
X457500Y132000D02*
D03*
X456500Y481000D02*
D03*
D169*
X179488Y200249D02*
D03*
X190512D02*
D03*
X192488Y261500D02*
D03*
X203512D02*
D03*
M02*
