G04 Layer_Color=7318015*
%FSLAX25Y25*%
%MOIN*%
G70*
G01*
G75*
%ADD10R,0.10630X0.05118*%
%ADD11R,0.04331X0.05512*%
%ADD12R,0.07480X0.02362*%
%ADD13R,0.08740X0.04843*%
%ADD14R,0.05315X0.07087*%
%ADD15R,0.09252X0.20079*%
%ADD16R,0.05512X0.05512*%
%ADD17R,0.02913X0.03071*%
%ADD18R,0.05315X0.03937*%
%ADD19R,0.01378X0.03347*%
%ADD20R,0.03150X0.01378*%
%ADD21R,0.06102X0.02362*%
%ADD22R,0.07087X0.05512*%
%ADD23R,0.02165X0.02165*%
%ADD24R,0.01772X0.01772*%
%ADD25R,0.05118X0.05906*%
%ADD26R,0.05512X0.05512*%
%ADD27R,0.04921X0.06102*%
%ADD28R,0.05315X0.04528*%
%ADD29R,0.05512X0.04331*%
%ADD30R,0.05906X0.07480*%
%ADD31R,0.05709X0.04724*%
%ADD32R,0.06102X0.05906*%
%ADD33R,0.00866X0.06693*%
%ADD34O,0.00866X0.06693*%
%ADD35R,0.34567X0.14646*%
%ADD36O,0.09843X0.02756*%
%ADD37R,0.03937X0.05315*%
%ADD38R,0.05900X0.04000*%
%ADD39R,0.05906X0.06102*%
%ADD40R,0.04500X0.06000*%
%ADD41R,0.02362X0.05118*%
%ADD42R,0.10799X0.08500*%
%ADD43R,0.22047X0.25984*%
%ADD44R,0.03740X0.06890*%
%ADD45R,0.25984X0.22047*%
%ADD46R,0.06890X0.03740*%
%ADD47R,0.04528X0.05709*%
%ADD48R,0.06102X0.06102*%
%ADD49R,0.07087X0.05118*%
%ADD50R,0.03228X0.10315*%
%ADD51R,0.18583X0.18898*%
%ADD52R,0.05000X0.05512*%
%ADD53R,0.06102X0.06102*%
%ADD54R,0.05709X0.04528*%
%ADD55R,0.09055X0.14173*%
%ADD56O,0.08661X0.02362*%
%ADD57R,0.07874X0.12205*%
%ADD58R,0.04000X0.05900*%
%ADD59R,0.01181X0.01378*%
%ADD60R,0.03740X0.05945*%
%ADD61R,0.00925X0.03425*%
%ADD62R,0.18898X0.18583*%
%ADD63R,0.05512X0.05000*%
%ADD64R,0.07874X0.07874*%
%ADD96R,0.05512X0.03150*%
%ADD97R,0.02362X0.00000*%
%ADD98R,0.00984X0.02559*%
D10*
X362000Y464988D02*
D03*
Y476012D02*
D03*
X348000Y464988D02*
D03*
Y476012D02*
D03*
X434000Y447512D02*
D03*
Y436488D02*
D03*
X420000Y447512D02*
D03*
Y436488D02*
D03*
X399500Y447512D02*
D03*
Y436488D02*
D03*
D11*
X399445Y149500D02*
D03*
X392555D02*
D03*
Y157500D02*
D03*
X399445D02*
D03*
X358445Y252500D02*
D03*
X351555D02*
D03*
X336945Y280500D02*
D03*
X330055D02*
D03*
X336945Y273000D02*
D03*
X330055D02*
D03*
X250445Y239500D02*
D03*
X243555D02*
D03*
X171945Y147000D02*
D03*
X165055D02*
D03*
X171945Y139500D02*
D03*
X165055D02*
D03*
X131055Y167500D02*
D03*
X137945D02*
D03*
X422055Y187500D02*
D03*
X428945D02*
D03*
X249445Y347500D02*
D03*
X242555D02*
D03*
X161445Y454000D02*
D03*
X154555D02*
D03*
X199445Y388500D02*
D03*
X192555D02*
D03*
X213445Y408000D02*
D03*
X206555D02*
D03*
X226945D02*
D03*
X220055D02*
D03*
D12*
X420252Y164500D02*
D03*
Y169500D02*
D03*
Y174500D02*
D03*
Y179500D02*
D03*
X401748Y164500D02*
D03*
Y169500D02*
D03*
Y174500D02*
D03*
Y179500D02*
D03*
D13*
X348500Y367772D02*
D03*
Y359228D02*
D03*
D14*
X350488Y350500D02*
D03*
X361512D02*
D03*
X356512Y390500D02*
D03*
X345488D02*
D03*
D15*
X170528Y193419D02*
D03*
X152812D02*
D03*
Y276419D02*
D03*
X170528D02*
D03*
X152812Y248419D02*
D03*
X170528D02*
D03*
X152812Y220919D02*
D03*
X170528D02*
D03*
D16*
X355500Y260063D02*
D03*
Y267937D02*
D03*
X217500Y256563D02*
D03*
Y264437D02*
D03*
X166500Y158563D02*
D03*
Y166437D02*
D03*
X344500Y267937D02*
D03*
Y260063D02*
D03*
D17*
X356500Y301429D02*
D03*
Y297571D02*
D03*
X212000Y259429D02*
D03*
Y255571D02*
D03*
D18*
X366500Y267543D02*
D03*
Y260457D02*
D03*
X393000Y365457D02*
D03*
Y372543D02*
D03*
D19*
X346579Y291276D02*
D03*
X348547D02*
D03*
X350516D02*
D03*
X352484D02*
D03*
X354453D02*
D03*
X356421D02*
D03*
Y275724D02*
D03*
X354453D02*
D03*
X352484D02*
D03*
X350516D02*
D03*
X348547D02*
D03*
X346579D02*
D03*
D20*
X359374Y288421D02*
D03*
Y286453D02*
D03*
Y284484D02*
D03*
Y282516D02*
D03*
Y280547D02*
D03*
Y278579D02*
D03*
X343626D02*
D03*
Y280547D02*
D03*
Y282516D02*
D03*
Y284484D02*
D03*
Y286453D02*
D03*
Y288421D02*
D03*
D21*
X450913Y158095D02*
D03*
Y162031D02*
D03*
Y165969D02*
D03*
Y169905D02*
D03*
Y189594D02*
D03*
Y193532D02*
D03*
Y197468D02*
D03*
Y201406D02*
D03*
D22*
X465677Y152189D02*
D03*
Y175811D02*
D03*
Y183689D02*
D03*
Y207311D02*
D03*
D23*
X208500Y258272D02*
D03*
Y254728D02*
D03*
D24*
X202670Y253845D02*
D03*
Y256994D02*
D03*
X191670Y251845D02*
D03*
Y254994D02*
D03*
X185500Y213925D02*
D03*
Y217075D02*
D03*
X184500Y249075D02*
D03*
Y245925D02*
D03*
D25*
X242661Y216500D02*
D03*
X250339D02*
D03*
D26*
X242563Y224000D02*
D03*
X250437D02*
D03*
X122437Y150000D02*
D03*
X114563D02*
D03*
Y159000D02*
D03*
X122437D02*
D03*
X367563Y279500D02*
D03*
X375437D02*
D03*
D27*
X242965Y231500D02*
D03*
X251035D02*
D03*
D28*
X234000Y184146D02*
D03*
Y189854D02*
D03*
X208500Y184146D02*
D03*
Y189854D02*
D03*
D29*
X235000Y285055D02*
D03*
Y291945D02*
D03*
X387500Y197555D02*
D03*
Y204445D02*
D03*
X395000Y197555D02*
D03*
Y204445D02*
D03*
X252000Y372055D02*
D03*
Y378945D02*
D03*
X244500D02*
D03*
Y372055D02*
D03*
X185500Y370555D02*
D03*
Y377445D02*
D03*
X184500Y327055D02*
D03*
Y333945D02*
D03*
X193500Y377445D02*
D03*
Y370555D02*
D03*
X192500Y333945D02*
D03*
Y327055D02*
D03*
X392500Y342055D02*
D03*
Y348945D02*
D03*
D30*
X126765Y280419D02*
D03*
X138576D02*
D03*
X126594Y264500D02*
D03*
X138406D02*
D03*
X126094Y208000D02*
D03*
X137906D02*
D03*
X126265Y188419D02*
D03*
X138076D02*
D03*
D31*
X227000Y184063D02*
D03*
Y191937D02*
D03*
X216500Y184063D02*
D03*
Y191937D02*
D03*
D32*
X227000Y198457D02*
D03*
Y205543D02*
D03*
X216500Y198457D02*
D03*
Y205543D02*
D03*
X393000Y388043D02*
D03*
Y380957D02*
D03*
D33*
X190170Y215919D02*
D03*
D34*
X192139D02*
D03*
X194107D02*
D03*
X196076D02*
D03*
X198044D02*
D03*
X200013D02*
D03*
X201981D02*
D03*
X203950D02*
D03*
X205918D02*
D03*
X207887D02*
D03*
X209855D02*
D03*
X211824D02*
D03*
X213792D02*
D03*
X215761D02*
D03*
X217729D02*
D03*
X219698D02*
D03*
X221666D02*
D03*
X223635D02*
D03*
X225603D02*
D03*
X227572D02*
D03*
X229540D02*
D03*
X231509D02*
D03*
X233477D02*
D03*
X235446D02*
D03*
X190170Y243872D02*
D03*
X192139D02*
D03*
X194107D02*
D03*
X196076D02*
D03*
X198044D02*
D03*
X200013D02*
D03*
X201981D02*
D03*
X203950D02*
D03*
X205918D02*
D03*
X207887D02*
D03*
X209855D02*
D03*
X211824D02*
D03*
X213792D02*
D03*
X215761D02*
D03*
X217729D02*
D03*
X219698D02*
D03*
X221666D02*
D03*
X223635D02*
D03*
X225603D02*
D03*
X227572D02*
D03*
X229540D02*
D03*
X231509D02*
D03*
X233477D02*
D03*
X235446D02*
D03*
D35*
X212611Y229919D02*
D03*
D36*
X154146Y143500D02*
D03*
Y148500D02*
D03*
Y153500D02*
D03*
Y158500D02*
D03*
X134854Y143500D02*
D03*
Y148500D02*
D03*
Y153500D02*
D03*
Y158500D02*
D03*
D37*
X250543Y338000D02*
D03*
X243457D02*
D03*
X338043Y328000D02*
D03*
X330957D02*
D03*
X250543Y258500D02*
D03*
X243457D02*
D03*
X338043Y248000D02*
D03*
X330957D02*
D03*
X338043Y238000D02*
D03*
X330957D02*
D03*
X338043Y218000D02*
D03*
X330957D02*
D03*
X338043Y208000D02*
D03*
X330957D02*
D03*
X249043D02*
D03*
X241957D02*
D03*
X243457Y318000D02*
D03*
X250543D02*
D03*
X249043Y198000D02*
D03*
X241957D02*
D03*
X243457Y328000D02*
D03*
X250543D02*
D03*
X249043Y188000D02*
D03*
X241957D02*
D03*
X338043Y178000D02*
D03*
X330957D02*
D03*
X249043D02*
D03*
X241957D02*
D03*
X338043Y168000D02*
D03*
X330957D02*
D03*
X338043Y158000D02*
D03*
X330957D02*
D03*
X249043D02*
D03*
X241957D02*
D03*
X338043Y148000D02*
D03*
X330957D02*
D03*
X338043Y318000D02*
D03*
X330957D02*
D03*
X430457Y322500D02*
D03*
X437543D02*
D03*
X338043Y338000D02*
D03*
X330957D02*
D03*
D38*
X389500Y175000D02*
D03*
Y168000D02*
D03*
X236500Y379000D02*
D03*
Y372000D02*
D03*
X278000Y415000D02*
D03*
Y408000D02*
D03*
D39*
X451457Y331000D02*
D03*
X458543D02*
D03*
X319669Y395000D02*
D03*
X328331D02*
D03*
D40*
X458500Y322000D02*
D03*
X450500D02*
D03*
D41*
X243760Y355366D02*
D03*
X251240D02*
D03*
X247500Y363634D02*
D03*
X192760Y396866D02*
D03*
X200240D02*
D03*
X196500Y405134D02*
D03*
D42*
X209500Y477201D02*
D03*
Y459799D02*
D03*
D43*
X217500Y340248D02*
D03*
D44*
X208524Y368201D02*
D03*
X226476D02*
D03*
D45*
X158748Y476000D02*
D03*
X199748Y426000D02*
D03*
D46*
X186701Y484976D02*
D03*
Y467024D02*
D03*
X227701Y434976D02*
D03*
Y417024D02*
D03*
D47*
X299945Y383500D02*
D03*
X293055D02*
D03*
X314945D02*
D03*
X308055D02*
D03*
D48*
X285500Y375358D02*
D03*
Y382642D02*
D03*
D49*
X249000Y417012D02*
D03*
Y405988D02*
D03*
X258000Y417012D02*
D03*
Y405988D02*
D03*
X268000Y417012D02*
D03*
Y405988D02*
D03*
D50*
X325000Y477791D02*
D03*
Y459209D02*
D03*
X295500Y477791D02*
D03*
Y459209D02*
D03*
D51*
X303095Y432000D02*
D03*
D52*
X288370Y427906D02*
D03*
Y436095D02*
D03*
D53*
X307957Y375000D02*
D03*
X315043D02*
D03*
D54*
X278000Y398945D02*
D03*
Y392055D02*
D03*
Y382945D02*
D03*
Y376055D02*
D03*
D55*
X359610Y428500D02*
D03*
X323390D02*
D03*
D56*
X289051Y407000D02*
D03*
Y402000D02*
D03*
Y397000D02*
D03*
Y392000D02*
D03*
X307949Y407000D02*
D03*
Y402000D02*
D03*
Y397000D02*
D03*
Y392000D02*
D03*
D57*
X298500Y399500D02*
D03*
D58*
X295500Y415500D02*
D03*
X288500D02*
D03*
X227000Y400500D02*
D03*
X220000D02*
D03*
D59*
X176033Y368858D02*
D03*
X173474D02*
D03*
X170915D02*
D03*
X176033Y376142D02*
D03*
X173474D02*
D03*
X170911D02*
D03*
X175533Y326858D02*
D03*
X172974D02*
D03*
X170415D02*
D03*
X175533Y334142D02*
D03*
X172974D02*
D03*
X170411D02*
D03*
D60*
X172191Y372504D02*
D03*
X171691Y330504D02*
D03*
D61*
X176128Y372657D02*
D03*
X175628Y330658D02*
D03*
D62*
X158000Y385595D02*
D03*
X156500Y344595D02*
D03*
D63*
X162094Y370870D02*
D03*
X153905D02*
D03*
X160594Y329870D02*
D03*
X152406D02*
D03*
D64*
X173126Y453500D02*
D03*
X188874D02*
D03*
D96*
X354633Y378342D02*
D03*
D97*
X354633Y378342D02*
D03*
D98*
X352074Y382476D02*
D03*
X354633D02*
D03*
X357192D02*
D03*
Y374208D02*
D03*
X354633D02*
D03*
X352074D02*
D03*
M02*
