G04 Layer_Physical_Order=2*
G04 Layer_Color=11436288*
%FSLAX25Y25*%
%MOIN*%
G70*
G01*
G75*
%ADD25R,0.05118X0.05906*%
%ADD26R,0.05512X0.05512*%
%ADD68C,0.10000*%
%ADD69C,0.03937*%
%ADD70C,0.01969*%
%ADD72C,0.01181*%
%ADD74C,0.02953*%
%ADD75C,0.06732*%
G04:AMPARAMS|DCode=76|XSize=67.32mil|YSize=67.32mil|CornerRadius=1.68mil|HoleSize=0mil|Usage=FLASHONLY|Rotation=0.000|XOffset=0mil|YOffset=0mil|HoleType=Round|Shape=RoundedRectangle|*
%AMROUNDEDRECTD76*
21,1,0.06732,0.06396,0,0,0.0*
21,1,0.06396,0.06732,0,0,0.0*
1,1,0.00337,0.03198,-0.03198*
1,1,0.00337,-0.03198,-0.03198*
1,1,0.00337,-0.03198,0.03198*
1,1,0.00337,0.03198,0.03198*
%
%ADD76ROUNDEDRECTD76*%
%ADD77C,0.06000*%
%ADD78R,0.06000X0.06000*%
%ADD79C,0.04724*%
%ADD80R,0.04724X0.04724*%
%ADD81C,0.10236*%
%ADD82R,0.03500X0.04500*%
%ADD83O,0.03500X0.04500*%
%ADD84O,0.06000X0.03543*%
G04:AMPARAMS|DCode=85|XSize=60mil|YSize=35.43mil|CornerRadius=8.86mil|HoleSize=0mil|Usage=FLASHONLY|Rotation=0.000|XOffset=0mil|YOffset=0mil|HoleType=Round|Shape=RoundedRectangle|*
%AMROUNDEDRECTD85*
21,1,0.06000,0.01772,0,0,0.0*
21,1,0.04228,0.03543,0,0,0.0*
1,1,0.01772,0.02114,-0.00886*
1,1,0.01772,-0.02114,-0.00886*
1,1,0.01772,-0.02114,0.00886*
1,1,0.01772,0.02114,0.00886*
%
%ADD85ROUNDEDRECTD85*%
%ADD86C,0.02362*%
%ADD87C,0.21654*%
%ADD88R,0.05118X0.07087*%
G36*
X470000Y493347D02*
Y119500D01*
X470000Y119500D01*
X100354D01*
X100000Y119853D01*
X100000Y493701D01*
X100000Y493701D01*
X469647D01*
X470000Y493347D01*
D02*
G37*
%LPC*%
G36*
X320500Y241820D02*
X319511Y241690D01*
X318590Y241308D01*
X317799Y240701D01*
X317192Y239910D01*
X316810Y238989D01*
X316680Y238000D01*
X316810Y237011D01*
X317192Y236090D01*
X317799Y235299D01*
X318590Y234692D01*
X319511Y234310D01*
X320500Y234180D01*
X321489Y234310D01*
X322410Y234692D01*
X323201Y235299D01*
X323808Y236090D01*
X324190Y237011D01*
X324320Y238000D01*
X324190Y238989D01*
X323808Y239910D01*
X323201Y240701D01*
X322410Y241308D01*
X321489Y241690D01*
X320500Y241820D01*
D02*
G37*
G36*
X195989Y236253D02*
X195598Y235992D01*
X195336Y235600D01*
X195989D01*
Y236253D01*
D02*
G37*
G36*
X254319Y233334D02*
X253927Y233072D01*
X253666Y232681D01*
X254319D01*
Y233334D01*
D02*
G37*
G36*
X260500Y241820D02*
X259511Y241690D01*
X258590Y241308D01*
X257799Y240701D01*
X257192Y239910D01*
X256810Y238989D01*
X256680Y238000D01*
X256810Y237011D01*
X257192Y236090D01*
X257799Y235299D01*
X258590Y234692D01*
X259511Y234310D01*
X260500Y234180D01*
X261489Y234310D01*
X262410Y234692D01*
X263201Y235299D01*
X263808Y236090D01*
X264190Y237011D01*
X264320Y238000D01*
X264190Y238989D01*
X263808Y239910D01*
X263201Y240701D01*
X262410Y241308D01*
X261489Y241690D01*
X260500Y241820D01*
D02*
G37*
G36*
X385500Y240007D02*
X384732Y239854D01*
X384660Y239806D01*
X376340D01*
X376268Y239854D01*
X375500Y240007D01*
X374732Y239854D01*
X374081Y239419D01*
X373646Y238768D01*
X373493Y238000D01*
X373646Y237232D01*
X374081Y236581D01*
X374732Y236146D01*
X375500Y235993D01*
X376268Y236146D01*
X376340Y236194D01*
X384660D01*
X384732Y236146D01*
X385500Y235993D01*
X386268Y236146D01*
X386919Y236581D01*
X387354Y237232D01*
X387507Y238000D01*
X387354Y238768D01*
X386919Y239419D01*
X386268Y239854D01*
X385500Y240007D01*
D02*
G37*
G36*
X119000Y251934D02*
X117842Y251820D01*
X116729Y251482D01*
X115703Y250934D01*
X114804Y250196D01*
X114066Y249297D01*
X113518Y248271D01*
X113180Y247158D01*
X113066Y246000D01*
X113180Y244842D01*
X113518Y243729D01*
X114066Y242703D01*
X114804Y241804D01*
X115703Y241066D01*
X116729Y240518D01*
X117842Y240180D01*
X119000Y240066D01*
X120158Y240180D01*
X121271Y240518D01*
X122297Y241066D01*
X123196Y241804D01*
X123934Y242703D01*
X124482Y243729D01*
X124820Y244842D01*
X124934Y246000D01*
X124820Y247158D01*
X124482Y248271D01*
X123934Y249297D01*
X123196Y250196D01*
X122297Y250934D01*
X121271Y251482D01*
X120158Y251820D01*
X119000Y251934D01*
D02*
G37*
G36*
X229351Y236253D02*
Y235600D01*
X230004D01*
X229743Y235992D01*
X229351Y236253D01*
D02*
G37*
G36*
X226989D02*
X226768Y236106D01*
X226420Y236030D01*
X226072Y236106D01*
X225851Y236253D01*
Y234419D01*
X223489D01*
Y236253D01*
X223268Y236106D01*
X222920Y236030D01*
X222572Y236106D01*
X222351Y236253D01*
Y234419D01*
X219989D01*
Y236253D01*
X219598Y235992D01*
X219420Y235726D01*
X218920D01*
X218743Y235992D01*
X218351Y236253D01*
Y234419D01*
X215989D01*
Y236253D01*
X215598Y235992D01*
X215420Y235726D01*
X214920D01*
X214743Y235992D01*
X214351Y236253D01*
Y234419D01*
X211989D01*
Y236253D01*
X211598Y235992D01*
X211420Y235726D01*
X210920D01*
X210743Y235992D01*
X210351Y236253D01*
Y234419D01*
X207989D01*
Y236253D01*
X207598Y235992D01*
X207420Y235726D01*
X206920D01*
X206743Y235992D01*
X206351Y236253D01*
Y234419D01*
X203989D01*
Y236253D01*
X203598Y235992D01*
X203420Y235726D01*
X202920D01*
X202743Y235992D01*
X202351Y236253D01*
Y234419D01*
X199989D01*
Y236253D01*
X199598Y235992D01*
X199420Y235726D01*
X198920D01*
X198743Y235992D01*
X198351Y236253D01*
Y234419D01*
X197170D01*
Y233238D01*
X195336D01*
X195598Y232847D01*
X196196Y232447D01*
X196227Y232329D01*
Y232010D01*
X196196Y231892D01*
X195598Y231492D01*
X195336Y231101D01*
X197170D01*
Y229919D01*
X198351D01*
Y228085D01*
X198743Y228347D01*
X198920Y228613D01*
X199420D01*
X199598Y228347D01*
X199989Y228085D01*
Y229919D01*
X202351D01*
Y228085D01*
X202743Y228347D01*
X202920Y228613D01*
X203420D01*
X203598Y228347D01*
X203989Y228085D01*
Y229919D01*
X206351D01*
Y228085D01*
X206743Y228347D01*
X206920Y228613D01*
X207420D01*
X207598Y228347D01*
X207989Y228085D01*
Y229919D01*
X210351D01*
Y228085D01*
X210743Y228347D01*
X210920Y228613D01*
X211420D01*
X211598Y228347D01*
X211989Y228085D01*
Y229919D01*
X214351D01*
Y228085D01*
X214743Y228347D01*
X214920Y228613D01*
X215420D01*
X215598Y228347D01*
X215989Y228085D01*
Y229919D01*
X218351D01*
Y228085D01*
X218743Y228347D01*
X218920Y228613D01*
X219420D01*
X219598Y228347D01*
X219989Y228085D01*
Y229919D01*
X222351D01*
Y228085D01*
X222572Y228233D01*
X222920Y228308D01*
X223268Y228233D01*
X223489Y228085D01*
Y229919D01*
X225851D01*
Y228085D01*
X226072Y228233D01*
X226420Y228308D01*
X226768Y228233D01*
X226989Y228085D01*
Y229919D01*
X228170D01*
Y231101D01*
X230004D01*
X229743Y231492D01*
X229144Y231892D01*
X229114Y232010D01*
Y232329D01*
X229144Y232447D01*
X229743Y232847D01*
X230004Y233238D01*
X228170D01*
Y234419D01*
X226989D01*
Y236253D01*
D02*
G37*
G36*
X211989Y226753D02*
X211598Y226492D01*
X211420Y226226D01*
X210920D01*
X210743Y226492D01*
X210351Y226753D01*
Y224919D01*
Y223085D01*
X210743Y223347D01*
X210920Y223613D01*
X211420D01*
X211598Y223347D01*
X211989Y223085D01*
Y224919D01*
Y226753D01*
D02*
G37*
G36*
X215989D02*
X215598Y226492D01*
X215420Y226226D01*
X214920D01*
X214743Y226492D01*
X214351Y226753D01*
Y224919D01*
Y223085D01*
X214743Y223347D01*
X214920Y223613D01*
X215420D01*
X215598Y223347D01*
X215989Y223085D01*
Y224919D01*
Y226753D01*
D02*
G37*
G36*
X203989D02*
X203598Y226492D01*
X203420Y226226D01*
X202920D01*
X202743Y226492D01*
X202351Y226753D01*
Y224919D01*
Y223085D01*
X202743Y223347D01*
X202920Y223613D01*
X203420D01*
X203598Y223347D01*
X203989Y223085D01*
Y224919D01*
Y226753D01*
D02*
G37*
G36*
X207989D02*
X207598Y226492D01*
X207420Y226226D01*
X206920D01*
X206743Y226492D01*
X206351Y226753D01*
Y224919D01*
Y223085D01*
X206743Y223347D01*
X206920Y223613D01*
X207420D01*
X207598Y223347D01*
X207989Y223085D01*
Y224919D01*
Y226753D01*
D02*
G37*
G36*
X230004Y228738D02*
X229351D01*
Y228085D01*
X229743Y228347D01*
X230004Y228738D01*
D02*
G37*
G36*
X254319Y230319D02*
X253666D01*
X253927Y229927D01*
X254319Y229666D01*
Y230319D01*
D02*
G37*
G36*
X219989Y226753D02*
X219598Y226492D01*
X219420Y226226D01*
X218920D01*
X218743Y226492D01*
X218351Y226753D01*
Y224919D01*
Y223085D01*
X218743Y223347D01*
X218920Y223613D01*
X219420D01*
X219598Y223347D01*
X219989Y223085D01*
Y224919D01*
Y226753D01*
D02*
G37*
G36*
X195989Y228738D02*
X195336D01*
X195598Y228347D01*
X195989Y228085D01*
Y228738D01*
D02*
G37*
G36*
X361319Y251319D02*
X360666D01*
X360928Y250927D01*
X361319Y250666D01*
Y251319D01*
D02*
G37*
G36*
X364334D02*
X363681D01*
Y250666D01*
X364072Y250927D01*
X364334Y251319D01*
D02*
G37*
G36*
X192882Y251819D02*
X190307D01*
Y249244D01*
X192882D01*
Y251819D01*
D02*
G37*
G36*
X197819D02*
X195244D01*
Y249244D01*
X197819D01*
Y251819D01*
D02*
G37*
G36*
X385000Y252007D02*
X384232Y251854D01*
X383581Y251419D01*
X383571Y251405D01*
X376429D01*
X376419Y251419D01*
X375768Y251854D01*
X375000Y252007D01*
X374232Y251854D01*
X373581Y251419D01*
X373146Y250768D01*
X372993Y250000D01*
X373146Y249232D01*
X373581Y248581D01*
X374232Y248146D01*
X375000Y247993D01*
X375768Y248146D01*
X376419Y248581D01*
X376429Y248595D01*
X383571D01*
X383581Y248581D01*
X384232Y248146D01*
X385000Y247993D01*
X385768Y248146D01*
X386419Y248581D01*
X386854Y249232D01*
X387007Y250000D01*
X386854Y250768D01*
X386419Y251419D01*
X385768Y251854D01*
X385000Y252007D01*
D02*
G37*
G36*
X361319Y254334D02*
X360928Y254072D01*
X360666Y253681D01*
X361319D01*
Y254334D01*
D02*
G37*
G36*
X224756Y253319D02*
X222181D01*
Y250744D01*
X224756D01*
Y253319D01*
D02*
G37*
G36*
X229693D02*
X227118D01*
Y250744D01*
X229693D01*
Y253319D01*
D02*
G37*
G36*
X260500Y251820D02*
X259511Y251690D01*
X258590Y251308D01*
X257799Y250701D01*
X257192Y249910D01*
X256810Y248989D01*
X256680Y248000D01*
X256810Y247011D01*
X257192Y246090D01*
X257799Y245299D01*
X258590Y244692D01*
X259511Y244310D01*
X260500Y244180D01*
X261489Y244310D01*
X262410Y244692D01*
X263201Y245299D01*
X263808Y246090D01*
X264190Y247011D01*
X264320Y248000D01*
X264190Y248989D01*
X263808Y249910D01*
X263201Y250701D01*
X262410Y251308D01*
X261489Y251690D01*
X260500Y251820D01*
D02*
G37*
G36*
X320500D02*
X319511Y251690D01*
X318590Y251308D01*
X317799Y250701D01*
X317192Y249910D01*
X316810Y248989D01*
X316680Y248000D01*
X316810Y247011D01*
X317192Y246090D01*
X317799Y245299D01*
X318590Y244692D01*
X319511Y244310D01*
X320500Y244180D01*
X321489Y244310D01*
X322410Y244692D01*
X323201Y245299D01*
X323808Y246090D01*
X324190Y247011D01*
X324320Y248000D01*
X324190Y248989D01*
X323808Y249910D01*
X323201Y250701D01*
X322410Y251308D01*
X321489Y251690D01*
X320500Y251820D01*
D02*
G37*
G36*
X247319Y244319D02*
X246666D01*
X246927Y243928D01*
X247319Y243666D01*
Y244319D01*
D02*
G37*
G36*
X250334D02*
X249681D01*
Y243666D01*
X250073Y243928D01*
X250334Y244319D01*
D02*
G37*
G36*
X249681Y247334D02*
Y246681D01*
X250334D01*
X250073Y247073D01*
X249681Y247334D01*
D02*
G37*
G36*
X216000Y275308D02*
X194000D01*
X193117Y275132D01*
X192368Y274632D01*
X191868Y273883D01*
X191692Y273000D01*
X191868Y272117D01*
X192368Y271368D01*
X193117Y270868D01*
X194000Y270692D01*
X215044D01*
X215853Y269882D01*
Y267500D01*
X216029Y266617D01*
X216529Y265868D01*
X216721Y265740D01*
X216569Y265240D01*
X214815D01*
Y258043D01*
X214520D01*
Y250957D01*
X214520D01*
X214772Y250457D01*
X214646Y250268D01*
X214493Y249500D01*
X214646Y248732D01*
X215081Y248081D01*
X215732Y247646D01*
X216500Y247493D01*
X217268Y247646D01*
X217919Y248081D01*
X218354Y248732D01*
X218507Y249500D01*
X218354Y250268D01*
X218228Y250457D01*
X218495Y250957D01*
X221606D01*
Y258043D01*
X221508D01*
Y265240D01*
X220066D01*
Y266276D01*
X220294Y266617D01*
X220469Y267500D01*
Y270839D01*
X220294Y271722D01*
X219794Y272471D01*
X217632Y274632D01*
X216883Y275132D01*
X216000Y275308D01*
D02*
G37*
G36*
X385000Y245007D02*
X384232Y244854D01*
X383581Y244419D01*
X383571Y244405D01*
X376929D01*
X376919Y244419D01*
X376268Y244854D01*
X375500Y245007D01*
X374732Y244854D01*
X374081Y244419D01*
X373646Y243768D01*
X373493Y243000D01*
X373646Y242232D01*
X374081Y241581D01*
X374732Y241146D01*
X375500Y240993D01*
X376268Y241146D01*
X376919Y241581D01*
X376929Y241595D01*
X383571D01*
X383581Y241581D01*
X384232Y241146D01*
X385000Y240993D01*
X385768Y241146D01*
X386419Y241581D01*
X386854Y242232D01*
X387007Y243000D01*
X386854Y243768D01*
X386419Y244419D01*
X385768Y244854D01*
X385000Y245007D01*
D02*
G37*
G36*
X247319Y247334D02*
X246927Y247073D01*
X246666Y246681D01*
X247319D01*
Y247334D01*
D02*
G37*
G36*
X199989Y226753D02*
X199598Y226492D01*
X199420Y226226D01*
X198920D01*
X198743Y226492D01*
X198351Y226753D01*
Y224919D01*
Y223085D01*
X198743Y223347D01*
X198920Y223613D01*
X199420D01*
X199598Y223347D01*
X199989Y223085D01*
Y224919D01*
Y226753D01*
D02*
G37*
G36*
X275500Y215007D02*
X274732Y214854D01*
X274081Y214419D01*
X274071Y214405D01*
X267429D01*
X267419Y214419D01*
X266768Y214854D01*
X266000Y215007D01*
X265232Y214854D01*
X264581Y214419D01*
X264146Y213768D01*
X263993Y213000D01*
X264146Y212232D01*
X264581Y211581D01*
X265232Y211146D01*
X266000Y210993D01*
X266768Y211146D01*
X267419Y211581D01*
X267429Y211595D01*
X274071D01*
X274081Y211581D01*
X274732Y211146D01*
X275500Y210993D01*
X276268Y211146D01*
X276919Y211581D01*
X277354Y212232D01*
X277507Y213000D01*
X277354Y213768D01*
X276919Y214419D01*
X276268Y214854D01*
X275500Y215007D01*
D02*
G37*
G36*
X253319Y215319D02*
X252666D01*
X252927Y214928D01*
X253319Y214666D01*
Y215319D01*
D02*
G37*
G36*
X127834Y213819D02*
X127181D01*
Y213166D01*
X127573Y213427D01*
X127834Y213819D01*
D02*
G37*
G36*
X320500Y221820D02*
X319511Y221690D01*
X318590Y221308D01*
X317799Y220701D01*
X317192Y219910D01*
X316810Y218989D01*
X316680Y218000D01*
X316810Y217011D01*
X317192Y216090D01*
X317799Y215299D01*
X318590Y214692D01*
X319511Y214310D01*
X320500Y214180D01*
X321489Y214310D01*
X322410Y214692D01*
X323201Y215299D01*
X323808Y216090D01*
X324190Y217011D01*
X324320Y218000D01*
X324190Y218989D01*
X323808Y219910D01*
X323201Y220701D01*
X322410Y221308D01*
X321489Y221690D01*
X320500Y221820D01*
D02*
G37*
G36*
X187426Y217753D02*
X187035Y217492D01*
X186773Y217101D01*
X187426D01*
Y217753D01*
D02*
G37*
G36*
X189788D02*
Y217101D01*
X190441D01*
X190180Y217492D01*
X189788Y217753D01*
D02*
G37*
G36*
X124819Y216834D02*
X124427Y216572D01*
X124166Y216181D01*
X124819D01*
Y216834D01*
D02*
G37*
G36*
X127181D02*
Y216181D01*
X127834D01*
X127573Y216572D01*
X127181Y216834D01*
D02*
G37*
G36*
X235681Y212334D02*
Y210500D01*
X233319D01*
Y212334D01*
X232927Y212072D01*
X232445Y211351D01*
X232276Y210500D01*
X232347Y210142D01*
X232030Y209756D01*
X230681D01*
Y207181D01*
X238193D01*
Y209756D01*
X236970D01*
X236653Y210142D01*
X236724Y210500D01*
X236555Y211351D01*
X236072Y212072D01*
X235681Y212334D01*
D02*
G37*
G36*
X180882Y213756D02*
X178307D01*
Y211181D01*
X180882D01*
Y213756D01*
D02*
G37*
G36*
X117819Y209834D02*
X117428Y209573D01*
X117166Y209181D01*
X117819D01*
Y209834D01*
D02*
G37*
G36*
X120181D02*
Y209181D01*
X120834D01*
X120572Y209573D01*
X120181Y209834D01*
D02*
G37*
G36*
X200819Y212334D02*
X200428Y212072D01*
X200166Y211681D01*
X200819D01*
Y212334D01*
D02*
G37*
G36*
X124819Y213819D02*
X124166D01*
X124427Y213427D01*
X124819Y213166D01*
Y213819D01*
D02*
G37*
G36*
X185819Y213756D02*
X183244D01*
Y211181D01*
X185819D01*
Y213756D01*
D02*
G37*
G36*
X210181Y211834D02*
Y211181D01*
X210834D01*
X210573Y211573D01*
X210181Y211834D01*
D02*
G37*
G36*
X320500Y231820D02*
X319511Y231690D01*
X318590Y231308D01*
X317799Y230701D01*
X317192Y229910D01*
X316810Y228989D01*
X316680Y228000D01*
X316810Y227011D01*
X317192Y226090D01*
X317799Y225299D01*
X318590Y224692D01*
X319511Y224310D01*
X320500Y224180D01*
X321489Y224310D01*
X322410Y224692D01*
X323201Y225299D01*
X323808Y226090D01*
X324190Y227011D01*
X324320Y228000D01*
X324190Y228989D01*
X323808Y229910D01*
X323201Y230701D01*
X322410Y231308D01*
X321489Y231690D01*
X320500Y231820D01*
D02*
G37*
G36*
X253819Y225834D02*
X253428Y225572D01*
X253166Y225181D01*
X253819D01*
Y225834D01*
D02*
G37*
G36*
X230004Y223738D02*
X229351D01*
Y223085D01*
X229743Y223347D01*
X230004Y223738D01*
D02*
G37*
G36*
X256681Y233334D02*
Y231500D01*
Y229395D01*
X256903Y229213D01*
X256810Y228989D01*
X256680Y228000D01*
X256810Y227011D01*
X257192Y226090D01*
X257799Y225299D01*
X258590Y224692D01*
X259511Y224310D01*
X260500Y224180D01*
X261489Y224310D01*
X262410Y224692D01*
X263201Y225299D01*
X263808Y226090D01*
X264190Y227011D01*
X264320Y228000D01*
X264190Y228989D01*
X263808Y229910D01*
X263201Y230701D01*
X262410Y231308D01*
X261489Y231690D01*
X260500Y231820D01*
X259511Y231690D01*
X258590Y231308D01*
X258124Y230951D01*
X257671Y231233D01*
X257724Y231500D01*
X257555Y232351D01*
X257072Y233072D01*
X256681Y233334D01*
D02*
G37*
G36*
X195989Y226753D02*
X195598Y226492D01*
X195336Y226100D01*
X195989D01*
Y226753D01*
D02*
G37*
G36*
X229351D02*
Y226100D01*
X230004D01*
X229743Y226492D01*
X229351Y226753D01*
D02*
G37*
G36*
X256181Y225834D02*
Y225181D01*
X256834D01*
X256573Y225572D01*
X256181Y225834D01*
D02*
G37*
G36*
X458500Y228706D02*
X457511Y228576D01*
X456590Y228194D01*
X455799Y227587D01*
X455192Y226796D01*
X454810Y225874D01*
X454316D01*
X453934Y226796D01*
X453327Y227587D01*
X452536Y228194D01*
X451615Y228576D01*
X450626Y228706D01*
X449637Y228576D01*
X448716Y228194D01*
X447925Y227587D01*
X447318Y226796D01*
X446936Y225874D01*
X446442D01*
X446060Y226796D01*
X445453Y227587D01*
X444662Y228194D01*
X443741Y228576D01*
X442752Y228706D01*
X441763Y228576D01*
X440842Y228194D01*
X440051Y227587D01*
X439444Y226796D01*
X439062Y225874D01*
X438568D01*
X438186Y226796D01*
X437579Y227587D01*
X436788Y228194D01*
X435867Y228576D01*
X434878Y228706D01*
X433889Y228576D01*
X432968Y228194D01*
X432177Y227587D01*
X431570Y226796D01*
X431188Y225874D01*
X430694D01*
X430312Y226796D01*
X429705Y227587D01*
X428914Y228194D01*
X427993Y228576D01*
X427004Y228706D01*
X426015Y228576D01*
X425094Y228194D01*
X424303Y227587D01*
X423696Y226796D01*
X423314Y225874D01*
X422820D01*
X422438Y226796D01*
X421831Y227587D01*
X421040Y228194D01*
X420119Y228576D01*
X419130Y228706D01*
X418141Y228576D01*
X417220Y228194D01*
X416429Y227587D01*
X415822Y226796D01*
X415440Y225874D01*
X414946D01*
X414564Y226796D01*
X413957Y227587D01*
X413166Y228194D01*
X412245Y228576D01*
X411256Y228706D01*
X410267Y228576D01*
X409346Y228194D01*
X408555Y227587D01*
X407948Y226796D01*
X407566Y225874D01*
X407072D01*
X406690Y226796D01*
X406083Y227587D01*
X405292Y228194D01*
X404371Y228576D01*
X403382Y228706D01*
X402393Y228576D01*
X401472Y228194D01*
X400681Y227587D01*
X400074Y226796D01*
X399692Y225874D01*
X399198D01*
X398816Y226796D01*
X398209Y227587D01*
X397418Y228194D01*
X396497Y228576D01*
X395508Y228706D01*
X394519Y228576D01*
X393598Y228194D01*
X392807Y227587D01*
X392200Y226796D01*
X391818Y225874D01*
X391324D01*
X390942Y226796D01*
X390335Y227587D01*
X389544Y228194D01*
X388623Y228576D01*
X387634Y228706D01*
X386645Y228576D01*
X385724Y228194D01*
X384933Y227587D01*
X384326Y226796D01*
X383944Y225874D01*
X383814Y224886D01*
X383944Y223897D01*
X384326Y222976D01*
X384933Y222185D01*
X385724Y221578D01*
X386645Y221196D01*
X387634Y221066D01*
X388623Y221196D01*
X389544Y221578D01*
X390335Y222185D01*
X390942Y222976D01*
X391324Y223897D01*
X391818D01*
X392200Y222976D01*
X392807Y222185D01*
X393598Y221578D01*
X394519Y221196D01*
X395508Y221066D01*
X396497Y221196D01*
X397418Y221578D01*
X398209Y222185D01*
X398816Y222976D01*
X399198Y223897D01*
X399692D01*
X400074Y222976D01*
X400681Y222185D01*
X401472Y221578D01*
X402393Y221196D01*
X403382Y221066D01*
X404371Y221196D01*
X405292Y221578D01*
X406083Y222185D01*
X406690Y222976D01*
X407072Y223897D01*
X407566D01*
X407948Y222976D01*
X408555Y222185D01*
X409346Y221578D01*
X410267Y221196D01*
X411256Y221066D01*
X412245Y221196D01*
X413166Y221578D01*
X413957Y222185D01*
X414564Y222976D01*
X414946Y223897D01*
X415440D01*
X415822Y222976D01*
X416429Y222185D01*
X417220Y221578D01*
X418141Y221196D01*
X419130Y221066D01*
X420119Y221196D01*
X421040Y221578D01*
X421831Y222185D01*
X422438Y222976D01*
X422820Y223897D01*
X423314D01*
X423696Y222976D01*
X424303Y222185D01*
X425094Y221578D01*
X426015Y221196D01*
X427004Y221066D01*
X427993Y221196D01*
X428914Y221578D01*
X429705Y222185D01*
X430312Y222976D01*
X430694Y223897D01*
X431188D01*
X431570Y222976D01*
X432177Y222185D01*
X432968Y221578D01*
X433889Y221196D01*
X434878Y221066D01*
X435867Y221196D01*
X436788Y221578D01*
X437579Y222185D01*
X438186Y222976D01*
X438568Y223897D01*
X439062D01*
X439444Y222976D01*
X440051Y222185D01*
X440842Y221578D01*
X441763Y221196D01*
X442752Y221066D01*
X443741Y221196D01*
X444662Y221578D01*
X445453Y222185D01*
X446060Y222976D01*
X446442Y223897D01*
X446936D01*
X447318Y222976D01*
X447925Y222185D01*
X448716Y221578D01*
X449637Y221196D01*
X450626Y221066D01*
X451615Y221196D01*
X452536Y221578D01*
X453327Y222185D01*
X453934Y222976D01*
X454316Y223897D01*
X454810D01*
X455192Y222976D01*
X455799Y222185D01*
X456590Y221578D01*
X457511Y221196D01*
X458500Y221066D01*
X459489Y221196D01*
X460410Y221578D01*
X461201Y222185D01*
X461808Y222976D01*
X462190Y223897D01*
X462320Y224886D01*
X462190Y225874D01*
X461808Y226796D01*
X461201Y227587D01*
X460410Y228194D01*
X459489Y228576D01*
X458500Y228706D01*
D02*
G37*
G36*
X119000Y231934D02*
X117842Y231820D01*
X116729Y231482D01*
X115703Y230934D01*
X114804Y230196D01*
X114066Y229297D01*
X113518Y228271D01*
X113180Y227158D01*
X113066Y226000D01*
X113180Y224842D01*
X113518Y223729D01*
X114066Y222703D01*
X114804Y221804D01*
X115703Y221066D01*
X116729Y220518D01*
X117842Y220180D01*
X119000Y220066D01*
X120158Y220180D01*
X121271Y220518D01*
X122297Y221066D01*
X123196Y221804D01*
X123934Y222703D01*
X124482Y223729D01*
X124820Y224842D01*
X124934Y226000D01*
X124820Y227158D01*
X124482Y228271D01*
X123934Y229297D01*
X123196Y230196D01*
X122297Y230934D01*
X121271Y231482D01*
X120158Y231820D01*
X119000Y231934D01*
D02*
G37*
G36*
X253819Y222819D02*
X253166D01*
X253428Y222428D01*
X253819Y222166D01*
Y222819D01*
D02*
G37*
G36*
X253319Y218334D02*
X252927Y218073D01*
X252666Y217681D01*
X253319D01*
Y218334D01*
D02*
G37*
G36*
X260500Y221820D02*
X259511Y221690D01*
X258590Y221308D01*
X257799Y220701D01*
X257192Y219910D01*
X256810Y218989D01*
X256687Y218053D01*
X256553Y217973D01*
X256189Y217898D01*
X256072Y218073D01*
X255681Y218334D01*
Y216500D01*
Y214666D01*
X256072Y214928D01*
X256555Y215649D01*
X256645Y216103D01*
X257165Y216155D01*
X257192Y216090D01*
X257799Y215299D01*
X258590Y214692D01*
X259511Y214310D01*
X260500Y214180D01*
X261489Y214310D01*
X262410Y214692D01*
X263201Y215299D01*
X263808Y216090D01*
X264190Y217011D01*
X264320Y218000D01*
X264190Y218989D01*
X263808Y219910D01*
X263201Y220701D01*
X262410Y221308D01*
X261489Y221690D01*
X260500Y221820D01*
D02*
G37*
G36*
X222351Y226753D02*
Y224919D01*
Y223085D01*
X222572Y223233D01*
X222920Y223308D01*
X223268Y223233D01*
X223489Y223085D01*
Y224919D01*
Y226753D01*
X223268Y226606D01*
X222920Y226530D01*
X222572Y226606D01*
X222351Y226753D01*
D02*
G37*
G36*
X225851D02*
Y224919D01*
Y223085D01*
X226072Y223233D01*
X226420Y223308D01*
X226768Y223233D01*
X226989Y223085D01*
Y224919D01*
Y226753D01*
X226768Y226606D01*
X226420Y226530D01*
X226072Y226606D01*
X225851Y226753D01*
D02*
G37*
G36*
X256834Y222819D02*
X256181D01*
Y222166D01*
X256573Y222428D01*
X256834Y222819D01*
D02*
G37*
G36*
X195989Y223738D02*
X195336D01*
X195598Y223347D01*
X195989Y223085D01*
Y223738D01*
D02*
G37*
G36*
X128334Y272319D02*
X124666D01*
X124927Y271927D01*
Y271572D01*
X124666Y271181D01*
X128334D01*
X128073Y271572D01*
Y271927D01*
X128334Y272319D01*
D02*
G37*
G36*
X260500Y281820D02*
X259511Y281690D01*
X258590Y281308D01*
X257799Y280701D01*
X257192Y279910D01*
X256810Y278989D01*
X256680Y278000D01*
X256810Y277011D01*
X257192Y276090D01*
X257799Y275299D01*
X258590Y274692D01*
X259511Y274310D01*
X260500Y274180D01*
X261489Y274310D01*
X262410Y274692D01*
X263201Y275299D01*
X263808Y276090D01*
X264190Y277011D01*
X264320Y278000D01*
X264190Y278989D01*
X263808Y279910D01*
X263201Y280701D01*
X262410Y281308D01*
X261489Y281690D01*
X260500Y281820D01*
D02*
G37*
G36*
X331181Y269834D02*
Y269181D01*
X331834D01*
X331573Y269572D01*
X331181Y269834D01*
D02*
G37*
G36*
X243500Y291507D02*
X242732Y291354D01*
X242081Y290919D01*
X241646Y290268D01*
X241493Y289500D01*
X241646Y288732D01*
X242081Y288081D01*
X242732Y287646D01*
X243500Y287493D01*
X243517Y287496D01*
X249095Y281918D01*
Y270903D01*
X248595Y270636D01*
X248268Y270854D01*
X247500Y271007D01*
X247483Y271004D01*
X241905Y276582D01*
Y283571D01*
X241919Y283581D01*
X242354Y284232D01*
X242507Y285000D01*
X242354Y285768D01*
X241919Y286419D01*
X241268Y286854D01*
X240500Y287007D01*
X239732Y286854D01*
X239081Y286419D01*
X238646Y285768D01*
X238493Y285000D01*
X238646Y284232D01*
X239081Y283581D01*
X239095Y283571D01*
Y276000D01*
X239202Y275462D01*
X239507Y275007D01*
X245496Y269017D01*
X245493Y269000D01*
X245646Y268232D01*
X246081Y267581D01*
X246732Y267146D01*
X247500Y266993D01*
X248268Y267146D01*
X248595Y267364D01*
X249095Y267097D01*
Y266582D01*
X248418Y265905D01*
X244929D01*
X244919Y265919D01*
X244268Y266354D01*
X243500Y266507D01*
X242732Y266354D01*
X242081Y265919D01*
X241646Y265268D01*
X241493Y264500D01*
X241646Y263732D01*
X242081Y263081D01*
X242732Y262646D01*
X243500Y262493D01*
X244268Y262646D01*
X244919Y263081D01*
X244929Y263095D01*
X249000D01*
X249538Y263202D01*
X249993Y263507D01*
X251493Y265007D01*
X251798Y265462D01*
X251905Y266000D01*
Y282500D01*
X251798Y283038D01*
X251493Y283493D01*
X245504Y289483D01*
X245507Y289500D01*
X245354Y290268D01*
X244919Y290919D01*
X244268Y291354D01*
X243500Y291507D01*
D02*
G37*
G36*
X127681Y275334D02*
Y274681D01*
X128334D01*
X128073Y275073D01*
X127681Y275334D01*
D02*
G37*
G36*
X397500Y280507D02*
X396732Y280354D01*
X396081Y279919D01*
X395646Y279268D01*
X395493Y278500D01*
X395496Y278483D01*
X386418Y269405D01*
X376405D01*
Y271571D01*
X376419Y271581D01*
X376854Y272232D01*
X377007Y273000D01*
X376854Y273768D01*
X376419Y274419D01*
X375768Y274854D01*
X375000Y275007D01*
X374232Y274854D01*
X373581Y274419D01*
X373146Y273768D01*
X372993Y273000D01*
X373146Y272232D01*
X373581Y271581D01*
X373595Y271571D01*
Y269405D01*
X340429D01*
X340419Y269419D01*
X339768Y269854D01*
X339000Y270007D01*
X338232Y269854D01*
X337581Y269419D01*
X337146Y268768D01*
X336993Y268000D01*
X337146Y267232D01*
X337581Y266581D01*
X338232Y266146D01*
X339000Y265993D01*
X339768Y266146D01*
X340419Y266581D01*
X340429Y266595D01*
X387000D01*
X387538Y266702D01*
X387993Y267007D01*
X397483Y276496D01*
X397500Y276493D01*
X398268Y276646D01*
X398919Y277081D01*
X399354Y277732D01*
X399507Y278500D01*
X399354Y279268D01*
X398919Y279919D01*
X398268Y280354D01*
X397500Y280507D01*
D02*
G37*
G36*
X320500Y281820D02*
X319511Y281690D01*
X318590Y281308D01*
X317799Y280701D01*
X317192Y279910D01*
X316810Y278989D01*
X316680Y278000D01*
X316810Y277011D01*
X317192Y276090D01*
X317799Y275299D01*
X318590Y274692D01*
X319511Y274310D01*
X320500Y274180D01*
X321489Y274310D01*
X322410Y274692D01*
X323201Y275299D01*
X323808Y276090D01*
X324190Y277011D01*
X324320Y278000D01*
X324190Y278989D01*
X323808Y279910D01*
X323201Y280701D01*
X322410Y281308D01*
X321489Y281690D01*
X320500Y281820D01*
D02*
G37*
G36*
X125319Y275334D02*
X124927Y275073D01*
X124666Y274681D01*
X125319D01*
Y275334D01*
D02*
G37*
G36*
X213181Y267834D02*
Y267181D01*
X213834D01*
X213573Y267572D01*
X213181Y267834D01*
D02*
G37*
G36*
X125319Y268819D02*
X124666D01*
X124927Y268427D01*
X125319Y268166D01*
Y268819D01*
D02*
G37*
G36*
X331834Y266819D02*
X331181D01*
Y266166D01*
X331573Y266427D01*
X331834Y266819D01*
D02*
G37*
G36*
X210819Y267834D02*
X210427Y267572D01*
X210166Y267181D01*
X210819D01*
Y267834D01*
D02*
G37*
G36*
X261681Y271840D02*
Y269181D01*
X264340D01*
X263994Y270017D01*
X263353Y270853D01*
X262517Y271494D01*
X261681Y271840D01*
D02*
G37*
G36*
X328819Y269834D02*
X328428Y269572D01*
X328166Y269181D01*
X328819D01*
Y269834D01*
D02*
G37*
G36*
X128334Y268819D02*
X127681D01*
Y268166D01*
X128073Y268427D01*
X128334Y268819D01*
D02*
G37*
G36*
X259319Y271840D02*
X258483Y271494D01*
X257647Y270853D01*
X257006Y270017D01*
X256660Y269181D01*
X259319D01*
Y271840D01*
D02*
G37*
G36*
X125319Y285819D02*
X124666D01*
X124927Y285427D01*
X125319Y285166D01*
Y285819D01*
D02*
G37*
G36*
X128334D02*
X127681D01*
Y285166D01*
X128073Y285427D01*
X128334Y285819D01*
D02*
G37*
G36*
X260500Y291820D02*
X259511Y291690D01*
X258590Y291308D01*
X257799Y290701D01*
X257192Y289910D01*
X256810Y288989D01*
X256680Y288000D01*
X256810Y287011D01*
X257192Y286090D01*
X257799Y285299D01*
X258590Y284692D01*
X259511Y284310D01*
X260500Y284180D01*
X261489Y284310D01*
X262410Y284692D01*
X263201Y285299D01*
X263808Y286090D01*
X264190Y287011D01*
X264320Y288000D01*
X264190Y288989D01*
X263808Y289910D01*
X263201Y290701D01*
X262410Y291308D01*
X261489Y291690D01*
X260500Y291820D01*
D02*
G37*
G36*
X320500D02*
X319511Y291690D01*
X318590Y291308D01*
X317799Y290701D01*
X317192Y289910D01*
X316810Y288989D01*
X316680Y288000D01*
X316810Y287011D01*
X317192Y286090D01*
X317799Y285299D01*
X318590Y284692D01*
X319511Y284310D01*
X320500Y284180D01*
X321489Y284310D01*
X322410Y284692D01*
X323201Y285299D01*
X323808Y286090D01*
X324190Y287011D01*
X324320Y288000D01*
X324190Y288989D01*
X323808Y289910D01*
X323201Y290701D01*
X322410Y291308D01*
X321489Y291690D01*
X320500Y291820D01*
D02*
G37*
G36*
X338319Y287319D02*
X337666D01*
X337928Y286928D01*
X338319Y286666D01*
Y287319D01*
D02*
G37*
G36*
X341334D02*
X340681D01*
Y286666D01*
X341073Y286928D01*
X341334Y287319D01*
D02*
G37*
G36*
X373819Y286334D02*
X373428Y286072D01*
X373166Y285681D01*
X373819D01*
Y286334D01*
D02*
G37*
G36*
X376181D02*
Y285681D01*
X376834D01*
X376572Y286072D01*
X376181Y286334D01*
D02*
G37*
G36*
X352319Y282334D02*
X351927Y282072D01*
X351666Y281681D01*
X352319D01*
Y282334D01*
D02*
G37*
G36*
X354681D02*
Y281681D01*
X355334D01*
X355072Y282072D01*
X354681Y282334D01*
D02*
G37*
G36*
X352319Y279319D02*
X351666D01*
X351927Y278927D01*
X352319Y278666D01*
Y279319D01*
D02*
G37*
G36*
X355334D02*
X354681D01*
Y278666D01*
X355072Y278927D01*
X355334Y279319D01*
D02*
G37*
G36*
X328819Y284319D02*
X328166D01*
X328428Y283927D01*
X328819Y283666D01*
Y284319D01*
D02*
G37*
G36*
X331834D02*
X331181D01*
Y283666D01*
X331573Y283927D01*
X331834Y284319D01*
D02*
G37*
G36*
X373819Y283319D02*
X373166D01*
X373428Y282927D01*
X373819Y282666D01*
Y283319D01*
D02*
G37*
G36*
X376834D02*
X376181D01*
Y282666D01*
X376572Y282927D01*
X376834Y283319D01*
D02*
G37*
G36*
X328819Y266819D02*
X328166D01*
X328428Y266427D01*
X328819Y266166D01*
Y266819D01*
D02*
G37*
G36*
X341834Y258819D02*
X341181D01*
Y258166D01*
X341572Y258428D01*
X341834Y258819D01*
D02*
G37*
G36*
X359319D02*
X358666D01*
X358927Y258428D01*
X359319Y258166D01*
Y258819D01*
D02*
G37*
G36*
X281500Y283007D02*
X280732Y282854D01*
X280081Y282419D01*
X279646Y281768D01*
X279493Y281000D01*
X279595Y280487D01*
Y261429D01*
X279581Y261419D01*
X279146Y260768D01*
X278993Y260000D01*
X279146Y259232D01*
X279581Y258581D01*
X280232Y258146D01*
X281000Y257993D01*
X281768Y258146D01*
X282419Y258581D01*
X282854Y259232D01*
X283007Y260000D01*
X282854Y260768D01*
X282419Y261419D01*
X282405Y261429D01*
Y279237D01*
X282919Y279581D01*
X283354Y280232D01*
X283507Y281000D01*
X283354Y281768D01*
X282919Y282419D01*
X282268Y282854D01*
X281500Y283007D01*
D02*
G37*
G36*
X338819Y258819D02*
X338166D01*
X338427Y258428D01*
X338819Y258166D01*
Y258819D01*
D02*
G37*
G36*
X125319Y260834D02*
X124927Y260573D01*
X124666Y260181D01*
X125319D01*
Y260834D01*
D02*
G37*
G36*
X127681D02*
Y260181D01*
X128334D01*
X128073Y260573D01*
X127681Y260834D01*
D02*
G37*
G36*
X362334Y258819D02*
X361681D01*
Y258166D01*
X362072Y258428D01*
X362334Y258819D01*
D02*
G37*
G36*
X206858Y265831D02*
X200165D01*
Y257169D01*
X200532D01*
Y256543D01*
X198394D01*
Y249457D01*
X205480D01*
Y249588D01*
X205768Y249646D01*
X206419Y250081D01*
X206854Y250732D01*
X207007Y251500D01*
X206854Y252268D01*
X206419Y252919D01*
X205768Y253354D01*
X205480Y253412D01*
Y256543D01*
X203342D01*
Y257169D01*
X206858D01*
Y260380D01*
X207358Y260531D01*
X207428Y260427D01*
X207819Y260166D01*
Y262000D01*
X210181D01*
Y260166D01*
X210573Y260427D01*
X210819Y260476D01*
Y262500D01*
X212000D01*
Y263681D01*
X213834D01*
X213573Y264072D01*
Y264427D01*
X213834Y264819D01*
X210166D01*
X210338Y264561D01*
X210279Y264338D01*
X209851Y264055D01*
X209000Y264224D01*
X208149Y264055D01*
X207428Y263573D01*
X207358Y263469D01*
X206858Y263620D01*
Y265831D01*
D02*
G37*
G36*
X320500Y261820D02*
X319511Y261690D01*
X318590Y261308D01*
X317799Y260701D01*
X317192Y259910D01*
X316810Y258989D01*
X316680Y258000D01*
X316810Y257011D01*
X317192Y256090D01*
X317799Y255299D01*
X318590Y254692D01*
X319511Y254310D01*
X320500Y254180D01*
X321489Y254310D01*
X322410Y254692D01*
X323201Y255299D01*
X323808Y256090D01*
X324190Y257011D01*
X324320Y258000D01*
X324190Y258989D01*
X323808Y259910D01*
X323201Y260701D01*
X322410Y261308D01*
X321489Y261690D01*
X320500Y261820D01*
D02*
G37*
G36*
X196047Y260319D02*
X188929D01*
Y256957D01*
X189890D01*
X190307Y256756D01*
X190307Y256457D01*
Y254181D01*
X197819D01*
Y256756D01*
X196464D01*
X196047Y256957D01*
X196047Y257256D01*
Y260319D01*
D02*
G37*
G36*
X363681Y254334D02*
Y253681D01*
X364334D01*
X364072Y254072D01*
X363681Y254334D01*
D02*
G37*
G36*
X260500Y261820D02*
X259511Y261690D01*
X258590Y261308D01*
X257799Y260701D01*
X257192Y259910D01*
X256810Y258989D01*
X256680Y258000D01*
X256810Y257011D01*
X257192Y256090D01*
X257799Y255299D01*
X258590Y254692D01*
X259511Y254310D01*
X260500Y254180D01*
X261489Y254310D01*
X262410Y254692D01*
X263201Y255299D01*
X263808Y256090D01*
X264190Y257011D01*
X264320Y258000D01*
X264190Y258989D01*
X263808Y259910D01*
X263201Y260701D01*
X262410Y261308D01*
X261489Y261690D01*
X260500Y261820D01*
D02*
G37*
G36*
X128334Y257819D02*
X127681D01*
Y257166D01*
X128073Y257428D01*
X128334Y257819D01*
D02*
G37*
G36*
X275500Y278007D02*
X274732Y277854D01*
X274081Y277419D01*
X273646Y276768D01*
X273493Y276000D01*
X273646Y275232D01*
X274081Y274581D01*
X274095Y274571D01*
Y261429D01*
X274081Y261419D01*
X273646Y260768D01*
X273493Y260000D01*
X273646Y259232D01*
X274081Y258581D01*
X274732Y258146D01*
X275500Y257993D01*
X276268Y258146D01*
X276919Y258581D01*
X277354Y259232D01*
X277507Y260000D01*
X277354Y260768D01*
X276919Y261419D01*
X276905Y261429D01*
Y274571D01*
X276919Y274581D01*
X277354Y275232D01*
X277507Y276000D01*
X277354Y276768D01*
X276919Y277419D01*
X276268Y277854D01*
X275500Y278007D01*
D02*
G37*
G36*
X229398Y260319D02*
X222280D01*
Y258256D01*
X222181D01*
Y255681D01*
X229693D01*
Y258256D01*
X229398D01*
Y260319D01*
D02*
G37*
G36*
X125319Y257819D02*
X124666D01*
X124927Y257428D01*
X125319Y257166D01*
Y257819D01*
D02*
G37*
G36*
X229398Y265453D02*
X227020D01*
Y262681D01*
X229398D01*
Y265453D01*
D02*
G37*
G36*
X259319Y266819D02*
X256660D01*
X257006Y265983D01*
X257647Y265147D01*
X258483Y264506D01*
X259319Y264160D01*
Y266819D01*
D02*
G37*
G36*
X196047Y266043D02*
X193669D01*
Y262681D01*
X196047D01*
Y266043D01*
D02*
G37*
G36*
X224658Y265453D02*
X222280D01*
Y262681D01*
X224658D01*
Y265453D01*
D02*
G37*
G36*
X119819Y266334D02*
X119428Y266073D01*
X119166Y265681D01*
X119819D01*
Y266334D01*
D02*
G37*
G36*
X122181D02*
Y265681D01*
X122834D01*
X122573Y266073D01*
X122181Y266334D01*
D02*
G37*
G36*
X264340Y266819D02*
X261681D01*
Y264160D01*
X262517Y264506D01*
X263353Y265147D01*
X263994Y265983D01*
X264340Y266819D01*
D02*
G37*
G36*
X320500Y271820D02*
X319511Y271690D01*
X318590Y271308D01*
X317799Y270701D01*
X317192Y269910D01*
X316810Y268989D01*
X316680Y268000D01*
X316810Y267011D01*
X317192Y266090D01*
X317799Y265299D01*
X318590Y264692D01*
X319511Y264310D01*
X320500Y264180D01*
X321489Y264310D01*
X322410Y264692D01*
X323201Y265299D01*
X323808Y266090D01*
X324190Y267011D01*
X324320Y268000D01*
X324190Y268989D01*
X323808Y269910D01*
X323201Y270701D01*
X322410Y271308D01*
X321489Y271690D01*
X320500Y271820D01*
D02*
G37*
G36*
X341181Y261834D02*
Y261181D01*
X341834D01*
X341572Y261573D01*
X341181Y261834D01*
D02*
G37*
G36*
X359319D02*
X358927Y261573D01*
X358666Y261181D01*
X359319D01*
Y261834D01*
D02*
G37*
G36*
X213834Y261319D02*
X213181D01*
Y260666D01*
X213573Y260928D01*
X213834Y261319D01*
D02*
G37*
G36*
X338819Y261834D02*
X338427Y261573D01*
X338166Y261181D01*
X338819D01*
Y261834D01*
D02*
G37*
G36*
X122834Y263319D02*
X122181D01*
Y262666D01*
X122573Y262928D01*
X122834Y263319D01*
D02*
G37*
G36*
X191307Y266043D02*
X188929D01*
Y262681D01*
X191307D01*
Y266043D01*
D02*
G37*
G36*
X361681Y261834D02*
Y261181D01*
X362334D01*
X362072Y261573D01*
X361681Y261834D01*
D02*
G37*
G36*
X119819Y263319D02*
X119166D01*
X119428Y262928D01*
X119819Y262666D01*
Y263319D01*
D02*
G37*
G36*
X226500Y212507D02*
X225732Y212354D01*
X225081Y211919D01*
X224646Y211268D01*
X224493Y210500D01*
X224584Y210043D01*
X224216Y209543D01*
X223020D01*
Y208780D01*
X219480D01*
Y209543D01*
X217784D01*
X217416Y210043D01*
X217507Y210500D01*
X217354Y211268D01*
X216919Y211919D01*
X216268Y212354D01*
X215500Y212507D01*
X214732Y212354D01*
X214081Y211919D01*
X213646Y211268D01*
X213493Y210500D01*
X213584Y210043D01*
X213216Y209543D01*
X212394D01*
Y202699D01*
X212394Y202457D01*
X212394D01*
X212394Y202457D01*
X212490Y202245D01*
X212490Y202245D01*
X212490Y202244D01*
X212492Y202240D01*
X212492Y201754D01*
Y194760D01*
X218220D01*
Y190000D01*
X218315Y189281D01*
X218593Y188610D01*
X219035Y188034D01*
X224720Y182349D01*
Y178500D01*
X224815Y177781D01*
X225093Y177110D01*
X225535Y176534D01*
X226110Y176093D01*
X226781Y175815D01*
X227500Y175720D01*
X228219Y175815D01*
X228890Y176093D01*
X229466Y176534D01*
X229907Y177110D01*
X230185Y177781D01*
X230280Y178500D01*
Y183500D01*
X230185Y184219D01*
X229907Y184890D01*
X229466Y185466D01*
X223780Y191151D01*
Y194760D01*
X230008D01*
Y201747D01*
X230008Y202240D01*
X230010Y202244D01*
X230010Y202245D01*
X230010Y202245D01*
X230106Y202457D01*
X230106Y202457D01*
X230106D01*
X230106Y202699D01*
Y209543D01*
X228784D01*
X228416Y210043D01*
X228507Y210500D01*
X228354Y211268D01*
X227919Y211919D01*
X227268Y212354D01*
X226500Y212507D01*
D02*
G37*
G36*
X199807Y161650D02*
X193508D01*
Y155350D01*
X199807D01*
Y161650D01*
D02*
G37*
G36*
X442819Y156819D02*
X442166D01*
X442427Y156428D01*
X442819Y156166D01*
Y156819D01*
D02*
G37*
G36*
X215161Y157319D02*
X213193D01*
X213406Y156804D01*
X213945Y156102D01*
X214647Y155563D01*
X215161Y155350D01*
Y157319D01*
D02*
G37*
G36*
X219493D02*
X217524D01*
Y155350D01*
X218038Y155563D01*
X218741Y156102D01*
X219279Y156804D01*
X219493Y157319D01*
D02*
G37*
G36*
X442819Y159834D02*
X442427Y159573D01*
X442166Y159181D01*
X442819D01*
Y159834D01*
D02*
G37*
G36*
X445181D02*
Y159181D01*
X445834D01*
X445573Y159573D01*
X445181Y159834D01*
D02*
G37*
G36*
X445834Y156819D02*
X445181D01*
Y156166D01*
X445573Y156428D01*
X445834Y156819D01*
D02*
G37*
G36*
X308492Y166820D02*
X307503Y166690D01*
X306582Y166308D01*
X305791Y165701D01*
X305184Y164910D01*
X304802Y163989D01*
X304672Y163000D01*
X304802Y162011D01*
X305184Y161090D01*
X305791Y160299D01*
X306582Y159692D01*
X307503Y159310D01*
X308492Y159180D01*
X309481Y159310D01*
X310402Y159692D01*
X311193Y160299D01*
X311800Y161090D01*
X312182Y162011D01*
X312312Y163000D01*
X312182Y163989D01*
X311800Y164910D01*
X311193Y165701D01*
X310402Y166308D01*
X309481Y166690D01*
X308492Y166820D01*
D02*
G37*
G36*
X178736Y148834D02*
Y148181D01*
X179389D01*
X179128Y148573D01*
X178736Y148834D01*
D02*
G37*
G36*
X308492Y156820D02*
X307503Y156690D01*
X306582Y156308D01*
X305791Y155701D01*
X305184Y154910D01*
X304802Y153989D01*
X304672Y153000D01*
X304802Y152011D01*
X305184Y151090D01*
X305791Y150299D01*
X306582Y149692D01*
X307503Y149310D01*
X308492Y149180D01*
X309481Y149310D01*
X310402Y149692D01*
X311193Y150299D01*
X311800Y151090D01*
X312182Y152011D01*
X312312Y153000D01*
X312182Y153989D01*
X311800Y154910D01*
X311193Y155701D01*
X310402Y156308D01*
X309481Y156690D01*
X308492Y156820D01*
D02*
G37*
G36*
X406334Y148319D02*
X405681D01*
Y147666D01*
X406073Y147927D01*
X406334Y148319D01*
D02*
G37*
G36*
X176374Y148834D02*
X175983Y148573D01*
X175721Y148181D01*
X176374D01*
Y148834D01*
D02*
G37*
G36*
X260500Y161820D02*
X259511Y161690D01*
X258590Y161308D01*
X257799Y160701D01*
X257192Y159910D01*
X256810Y158989D01*
X256680Y158000D01*
X256810Y157011D01*
X257192Y156090D01*
X257799Y155299D01*
X258590Y154692D01*
X259511Y154310D01*
X260500Y154180D01*
X261489Y154310D01*
X262410Y154692D01*
X263201Y155299D01*
X263808Y156090D01*
X264190Y157011D01*
X264320Y158000D01*
X264190Y158989D01*
X263808Y159910D01*
X263201Y160701D01*
X262410Y161308D01*
X261489Y161690D01*
X260500Y161820D01*
D02*
G37*
G36*
X320500D02*
X319511Y161690D01*
X318590Y161308D01*
X317799Y160701D01*
X317192Y159910D01*
X316810Y158989D01*
X316680Y158000D01*
X316810Y157011D01*
X317192Y156090D01*
X317799Y155299D01*
X318590Y154692D01*
X319511Y154310D01*
X320500Y154180D01*
X321489Y154310D01*
X322410Y154692D01*
X323201Y155299D01*
X323808Y156090D01*
X324190Y157011D01*
X324320Y158000D01*
X324190Y158989D01*
X323808Y159910D01*
X323201Y160701D01*
X322410Y161308D01*
X321489Y161690D01*
X320500Y161820D01*
D02*
G37*
G36*
X403319Y151334D02*
X402927Y151073D01*
X402666Y150681D01*
X403319D01*
Y151334D01*
D02*
G37*
G36*
X405681D02*
Y150681D01*
X406334D01*
X406073Y151073D01*
X405681Y151334D01*
D02*
G37*
G36*
X113819Y167334D02*
X113427Y167072D01*
X113166Y166681D01*
X113819D01*
Y167334D01*
D02*
G37*
G36*
X116181D02*
Y166681D01*
X116834D01*
X116572Y167072D01*
X116181Y167334D01*
D02*
G37*
G36*
X124819Y166319D02*
X124166D01*
X124427Y165928D01*
X124819Y165666D01*
Y166319D01*
D02*
G37*
G36*
X127834D02*
X127181D01*
Y165666D01*
X127573Y165928D01*
X127834Y166319D01*
D02*
G37*
G36*
X124819Y169334D02*
X124427Y169072D01*
X124166Y168681D01*
X124819D01*
Y169334D01*
D02*
G37*
G36*
X127181D02*
Y168681D01*
X127834D01*
X127573Y169072D01*
X127181Y169334D01*
D02*
G37*
G36*
X159319Y168334D02*
X158928Y168072D01*
X158666Y167681D01*
X159319D01*
Y168334D01*
D02*
G37*
G36*
X161681D02*
Y167681D01*
X162334D01*
X162073Y168072D01*
X161681Y168334D01*
D02*
G37*
G36*
X113819Y164319D02*
X113166D01*
X113427Y163927D01*
X113819Y163666D01*
Y164319D01*
D02*
G37*
G36*
X116834D02*
X116181D01*
Y163666D01*
X116572Y163927D01*
X116834Y164319D01*
D02*
G37*
G36*
X215161Y161650D02*
X214647Y161437D01*
X213945Y160898D01*
X213406Y160196D01*
X213193Y159681D01*
X215161D01*
Y161650D01*
D02*
G37*
G36*
X217524D02*
Y159681D01*
X219493D01*
X219279Y160196D01*
X218741Y160898D01*
X218038Y161437D01*
X217524Y161650D01*
D02*
G37*
G36*
X159319Y165319D02*
X158666D01*
X158928Y164927D01*
X159319Y164666D01*
Y165319D01*
D02*
G37*
G36*
X162334D02*
X161681D01*
Y164666D01*
X162073Y164927D01*
X162334Y165319D01*
D02*
G37*
G36*
X260500Y171820D02*
X259511Y171690D01*
X258590Y171308D01*
X257799Y170701D01*
X257192Y169910D01*
X256810Y168989D01*
X256680Y168000D01*
X256810Y167011D01*
X257192Y166090D01*
X257799Y165299D01*
X258590Y164692D01*
X259511Y164310D01*
X260500Y164180D01*
X261489Y164310D01*
X262410Y164692D01*
X263201Y165299D01*
X263808Y166090D01*
X264190Y167011D01*
X264320Y168000D01*
X264190Y168989D01*
X263808Y169910D01*
X263201Y170701D01*
X262410Y171308D01*
X261489Y171690D01*
X260500Y171820D01*
D02*
G37*
G36*
X320500D02*
X319511Y171690D01*
X318590Y171308D01*
X317799Y170701D01*
X317192Y169910D01*
X316810Y168989D01*
X316680Y168000D01*
X316810Y167011D01*
X317192Y166090D01*
X317799Y165299D01*
X318590Y164692D01*
X319511Y164310D01*
X320500Y164180D01*
X321489Y164310D01*
X322410Y164692D01*
X323201Y165299D01*
X323808Y166090D01*
X324190Y167011D01*
X324320Y168000D01*
X324190Y168989D01*
X323808Y169910D01*
X323201Y170701D01*
X322410Y171308D01*
X321489Y171690D01*
X320500Y171820D01*
D02*
G37*
G36*
X403319Y148319D02*
X402666D01*
X402927Y147927D01*
X403319Y147666D01*
Y148319D01*
D02*
G37*
G36*
X367300Y133587D02*
X366310Y133390D01*
X365471Y132829D01*
X364910Y131990D01*
X364713Y131000D01*
Y130000D01*
X364910Y129010D01*
X365471Y128171D01*
X366310Y127610D01*
X367300Y127413D01*
X368290Y127610D01*
X369129Y128171D01*
X369690Y129010D01*
X369887Y130000D01*
Y131000D01*
X369690Y131990D01*
X369129Y132829D01*
X368290Y133390D01*
X367300Y133587D01*
D02*
G37*
G36*
X373319Y129319D02*
X371816D01*
X371821Y129282D01*
X372098Y128613D01*
X372539Y128039D01*
X373113Y127598D01*
X373319Y127513D01*
Y129319D01*
D02*
G37*
G36*
X355437Y133437D02*
X350363D01*
Y127363D01*
X355437D01*
Y133437D01*
D02*
G37*
G36*
X360100Y133587D02*
X359110Y133390D01*
X358271Y132829D01*
X357710Y131990D01*
X357513Y131000D01*
Y130000D01*
X357710Y129010D01*
X358271Y128171D01*
X359110Y127610D01*
X360100Y127413D01*
X361090Y127610D01*
X361929Y128171D01*
X362490Y129010D01*
X362687Y130000D01*
Y131000D01*
X362490Y131990D01*
X361929Y132829D01*
X361090Y133390D01*
X360100Y133587D01*
D02*
G37*
G36*
X321681Y131840D02*
Y129181D01*
X324340D01*
X323994Y130017D01*
X323353Y130853D01*
X322517Y131494D01*
X321681Y131840D01*
D02*
G37*
G36*
X426319Y132987D02*
X426113Y132902D01*
X425539Y132461D01*
X425098Y131887D01*
X424821Y131218D01*
X424816Y131181D01*
X426319D01*
Y132987D01*
D02*
G37*
G36*
X377184Y129319D02*
X375681D01*
Y127513D01*
X375887Y127598D01*
X376461Y128039D01*
X376902Y128613D01*
X377179Y129282D01*
X377184Y129319D01*
D02*
G37*
G36*
X319319Y131840D02*
X318483Y131494D01*
X317647Y130853D01*
X317006Y130017D01*
X316660Y129181D01*
X319319D01*
Y131840D01*
D02*
G37*
G36*
X464000Y342808D02*
X459000D01*
X458117Y342632D01*
X457368Y342132D01*
X456868Y341383D01*
X456692Y340500D01*
X456868Y339617D01*
X457368Y338868D01*
X458117Y338368D01*
X459000Y338192D01*
X463044D01*
X464692Y336544D01*
Y220308D01*
X442000D01*
X441117Y220132D01*
X440368Y219632D01*
X427368Y206632D01*
X426868Y205883D01*
X426692Y205000D01*
X426868Y204117D01*
X427368Y203368D01*
X428117Y202868D01*
X429000Y202692D01*
X429883Y202868D01*
X430632Y203368D01*
X442956Y215692D01*
X464692D01*
Y154956D01*
X458544Y148808D01*
X446500D01*
X445617Y148632D01*
X444868Y148132D01*
X439931Y143195D01*
X439617Y143132D01*
X438868Y142632D01*
X438368Y141883D01*
X438192Y141000D01*
Y140500D01*
Y126956D01*
X436044Y124808D01*
X323690D01*
X323476Y125308D01*
X323994Y125983D01*
X324340Y126819D01*
X316660D01*
X317006Y125983D01*
X317524Y125308D01*
X317311Y124808D01*
X263339D01*
X263233Y125121D01*
X263208Y125308D01*
X263808Y126090D01*
X264190Y127011D01*
X264320Y128000D01*
X264190Y128989D01*
X263808Y129910D01*
X263201Y130701D01*
X262410Y131308D01*
X261489Y131690D01*
X260500Y131820D01*
X259511Y131690D01*
X258590Y131308D01*
X257799Y130701D01*
X257192Y129910D01*
X256810Y128989D01*
X256680Y128000D01*
X256810Y127011D01*
X257192Y126090D01*
X257792Y125308D01*
X257767Y125121D01*
X257661Y124808D01*
X180808D01*
Y139500D01*
X180632Y140383D01*
X180132Y141132D01*
X179383Y141632D01*
X178500Y141808D01*
X177617Y141632D01*
X176868Y141132D01*
X176368Y140383D01*
X176192Y139500D01*
Y124808D01*
X136956D01*
X129808Y131956D01*
Y141000D01*
X129632Y141883D01*
X129132Y142632D01*
X123132Y148632D01*
X122383Y149132D01*
X121500Y149308D01*
X108456D01*
X105808Y151956D01*
Y181044D01*
X111632Y186868D01*
X112132Y187617D01*
X112308Y188500D01*
X112132Y189383D01*
X111632Y190132D01*
X110883Y190632D01*
X110000Y190808D01*
X109117Y190632D01*
X108368Y190132D01*
X101868Y183632D01*
X101368Y182883D01*
X101192Y182000D01*
Y151000D01*
X101368Y150117D01*
X101868Y149368D01*
X105868Y145368D01*
X106617Y144868D01*
X106763Y144838D01*
X107500Y144692D01*
X120544D01*
X125192Y140044D01*
Y131000D01*
X125368Y130117D01*
X125868Y129368D01*
X134368Y120868D01*
X135117Y120368D01*
X136000Y120192D01*
X437000D01*
X437883Y120368D01*
X438632Y120868D01*
X442132Y124368D01*
X442632Y125117D01*
X442808Y126000D01*
Y139544D01*
X447456Y144192D01*
X459500D01*
X460383Y144368D01*
X461132Y144868D01*
X468632Y152368D01*
X469132Y153117D01*
X469308Y154000D01*
Y218000D01*
Y337500D01*
X469132Y338383D01*
X468632Y339132D01*
X465632Y342132D01*
X464883Y342632D01*
X464000Y342808D01*
D02*
G37*
G36*
X408437Y132937D02*
X403363D01*
Y126863D01*
X408437D01*
Y132937D01*
D02*
G37*
G36*
X112500Y143650D02*
X110678Y143507D01*
X108900Y143080D01*
X107211Y142380D01*
X105652Y141425D01*
X104262Y140238D01*
X103075Y138848D01*
X102120Y137289D01*
X101420Y135600D01*
X100993Y133823D01*
X100850Y132000D01*
X100993Y130177D01*
X101420Y128400D01*
X102120Y126711D01*
X103075Y125152D01*
X104262Y123762D01*
X105652Y122575D01*
X107211Y121620D01*
X108900Y120920D01*
X110678Y120493D01*
X112500Y120350D01*
X114322Y120493D01*
X116100Y120920D01*
X117789Y121620D01*
X119348Y122575D01*
X120738Y123762D01*
X121925Y125152D01*
X122880Y126711D01*
X123580Y128400D01*
X124007Y130177D01*
X124150Y132000D01*
X124007Y133823D01*
X123580Y135600D01*
X122880Y137289D01*
X121925Y138848D01*
X120738Y140238D01*
X119348Y141425D01*
X117789Y142380D01*
X116100Y143080D01*
X114322Y143507D01*
X112500Y143650D01*
D02*
G37*
G36*
X457500D02*
X455678Y143507D01*
X453900Y143080D01*
X452211Y142380D01*
X450652Y141425D01*
X449262Y140238D01*
X448075Y138848D01*
X447120Y137289D01*
X446420Y135600D01*
X445993Y133823D01*
X445850Y132000D01*
X445993Y130177D01*
X446420Y128400D01*
X447120Y126711D01*
X448075Y125152D01*
X449262Y123762D01*
X450652Y122575D01*
X452211Y121620D01*
X453900Y120920D01*
X455678Y120493D01*
X457500Y120350D01*
X459323Y120493D01*
X461100Y120920D01*
X462789Y121620D01*
X464348Y122575D01*
X465738Y123762D01*
X466925Y125152D01*
X467880Y126711D01*
X468580Y128400D01*
X469007Y130177D01*
X469150Y132000D01*
X469007Y133823D01*
X468580Y135600D01*
X467880Y137289D01*
X466925Y138848D01*
X465738Y140238D01*
X464348Y141425D01*
X462789Y142380D01*
X461100Y143080D01*
X459323Y143507D01*
X457500Y143650D01*
D02*
G37*
G36*
X426319Y128819D02*
X424816D01*
X424821Y128782D01*
X425098Y128113D01*
X425539Y127539D01*
X426113Y127098D01*
X426319Y127013D01*
Y128819D01*
D02*
G37*
G36*
X430184D02*
X428681D01*
Y127013D01*
X428887Y127098D01*
X429461Y127539D01*
X429902Y128113D01*
X430179Y128782D01*
X430184Y128819D01*
D02*
G37*
G36*
X413100Y133087D02*
X412110Y132890D01*
X411271Y132329D01*
X410710Y131490D01*
X410513Y130500D01*
Y129500D01*
X410710Y128510D01*
X411271Y127671D01*
X412110Y127110D01*
X413100Y126913D01*
X414090Y127110D01*
X414929Y127671D01*
X415490Y128510D01*
X415687Y129500D01*
Y130500D01*
X415490Y131490D01*
X414929Y132329D01*
X414090Y132890D01*
X413100Y133087D01*
D02*
G37*
G36*
X420300D02*
X419310Y132890D01*
X418471Y132329D01*
X417910Y131490D01*
X417713Y130500D01*
Y129500D01*
X417910Y128510D01*
X418471Y127671D01*
X419310Y127110D01*
X420300Y126913D01*
X421290Y127110D01*
X422129Y127671D01*
X422690Y128510D01*
X422887Y129500D01*
Y130500D01*
X422690Y131490D01*
X422129Y132329D01*
X421290Y132890D01*
X420300Y133087D01*
D02*
G37*
G36*
X133819Y140834D02*
X133428Y140573D01*
X133166Y140181D01*
X133819D01*
Y140834D01*
D02*
G37*
G36*
X136181D02*
Y140181D01*
X136834D01*
X136573Y140573D01*
X136181Y140834D01*
D02*
G37*
G36*
X259319Y141840D02*
X258483Y141494D01*
X257647Y140853D01*
X257006Y140017D01*
X256660Y139181D01*
X259319D01*
Y141840D01*
D02*
G37*
G36*
X261681D02*
Y139181D01*
X264340D01*
X263994Y140017D01*
X263353Y140853D01*
X262517Y141494D01*
X261681Y141840D01*
D02*
G37*
G36*
X176374Y145819D02*
X175721D01*
X175983Y145428D01*
X176374Y145166D01*
Y145819D01*
D02*
G37*
G36*
X179389D02*
X178736D01*
Y145166D01*
X179128Y145428D01*
X179389Y145819D01*
D02*
G37*
G36*
X260500Y151820D02*
X259511Y151690D01*
X258590Y151308D01*
X257799Y150701D01*
X257192Y149910D01*
X256810Y148989D01*
X256680Y148000D01*
X256810Y147011D01*
X257192Y146090D01*
X257799Y145299D01*
X258590Y144692D01*
X259511Y144310D01*
X260500Y144180D01*
X261489Y144310D01*
X262410Y144692D01*
X263201Y145299D01*
X263808Y146090D01*
X264190Y147011D01*
X264320Y148000D01*
X264190Y148989D01*
X263808Y149910D01*
X263201Y150701D01*
X262410Y151308D01*
X261489Y151690D01*
X260500Y151820D01*
D02*
G37*
G36*
X320500D02*
X319511Y151690D01*
X318590Y151308D01*
X317799Y150701D01*
X317192Y149910D01*
X316810Y148989D01*
X316680Y148000D01*
X316810Y147011D01*
X317192Y146090D01*
X317799Y145299D01*
X318590Y144692D01*
X319511Y144310D01*
X320500Y144180D01*
X321489Y144310D01*
X322410Y144692D01*
X323201Y145299D01*
X323808Y146090D01*
X324190Y147011D01*
X324320Y148000D01*
X324190Y148989D01*
X323808Y149910D01*
X323201Y150701D01*
X322410Y151308D01*
X321489Y151690D01*
X320500Y151820D01*
D02*
G37*
G36*
X375681Y133487D02*
Y131681D01*
X377184D01*
X377179Y131718D01*
X376902Y132387D01*
X376461Y132961D01*
X375887Y133402D01*
X375681Y133487D01*
D02*
G37*
G36*
X259319Y136819D02*
X256660D01*
X257006Y135983D01*
X257647Y135147D01*
X258483Y134506D01*
X259319Y134160D01*
Y136819D01*
D02*
G37*
G36*
X428681Y132987D02*
Y131181D01*
X430184D01*
X430179Y131218D01*
X429902Y131887D01*
X429461Y132461D01*
X428887Y132902D01*
X428681Y132987D01*
D02*
G37*
G36*
X373319Y133487D02*
X373113Y133402D01*
X372539Y132961D01*
X372098Y132387D01*
X371821Y131718D01*
X371816Y131681D01*
X373319D01*
Y133487D01*
D02*
G37*
G36*
X133819Y137819D02*
X133166D01*
X133428Y137427D01*
X133819Y137166D01*
Y137819D01*
D02*
G37*
G36*
X136834D02*
X136181D01*
Y137166D01*
X136573Y137427D01*
X136834Y137819D01*
D02*
G37*
G36*
X264340Y136819D02*
X261681D01*
Y134160D01*
X262517Y134506D01*
X263353Y135147D01*
X263994Y135983D01*
X264340Y136819D01*
D02*
G37*
G36*
X320500Y141820D02*
X319511Y141690D01*
X318590Y141308D01*
X317799Y140701D01*
X317192Y139910D01*
X316810Y138989D01*
X316680Y138000D01*
X316810Y137011D01*
X317192Y136090D01*
X317799Y135299D01*
X318590Y134692D01*
X319511Y134310D01*
X320500Y134180D01*
X321489Y134310D01*
X322410Y134692D01*
X323201Y135299D01*
X323808Y136090D01*
X324190Y137011D01*
X324320Y138000D01*
X324190Y138989D01*
X323808Y139910D01*
X323201Y140701D01*
X322410Y141308D01*
X321489Y141690D01*
X320500Y141820D01*
D02*
G37*
G36*
X233157Y197319D02*
X230780D01*
Y194547D01*
X233157D01*
Y197319D01*
D02*
G37*
G36*
X237898D02*
X235520D01*
Y194547D01*
X237898D01*
Y197319D01*
D02*
G37*
G36*
X206980D02*
X204602D01*
Y194547D01*
X206980D01*
Y197319D01*
D02*
G37*
G36*
X211720D02*
X209343D01*
Y194547D01*
X211720D01*
Y197319D01*
D02*
G37*
G36*
X124819Y200319D02*
X124166D01*
X124427Y199927D01*
X124819Y199666D01*
Y200319D01*
D02*
G37*
G36*
X127834D02*
X127181D01*
Y199666D01*
X127573Y199927D01*
X127834Y200319D01*
D02*
G37*
G36*
X178307Y199068D02*
X175929D01*
Y195706D01*
X178307D01*
Y199068D01*
D02*
G37*
G36*
X183047D02*
X180669D01*
Y195706D01*
X183047D01*
Y199068D01*
D02*
G37*
G36*
X260500Y201820D02*
X259511Y201690D01*
X258590Y201308D01*
X257799Y200701D01*
X257192Y199910D01*
X256810Y198989D01*
X256680Y198000D01*
X256810Y197011D01*
X257192Y196090D01*
X257799Y195299D01*
X258590Y194692D01*
X259511Y194310D01*
X260500Y194180D01*
X261489Y194310D01*
X262410Y194692D01*
X263201Y195299D01*
X263808Y196090D01*
X264190Y197011D01*
X264320Y198000D01*
X264190Y198989D01*
X263808Y199910D01*
X263201Y200701D01*
X262410Y201308D01*
X261489Y201690D01*
X260500Y201820D01*
D02*
G37*
G36*
X320500D02*
X319511Y201690D01*
X318590Y201308D01*
X317799Y200701D01*
X317192Y199910D01*
X316810Y198989D01*
X316680Y198000D01*
X316810Y197011D01*
X317192Y196090D01*
X317799Y195299D01*
X318590Y194692D01*
X319511Y194310D01*
X320500Y194180D01*
X321489Y194310D01*
X322410Y194692D01*
X323201Y195299D01*
X323808Y196090D01*
X324190Y197011D01*
X324320Y198000D01*
X324190Y198989D01*
X323808Y199910D01*
X323201Y200701D01*
X322410Y201308D01*
X321489Y201690D01*
X320500Y201820D01*
D02*
G37*
G36*
X427819Y191819D02*
X427166D01*
X427427Y191428D01*
X427819Y191166D01*
Y191819D01*
D02*
G37*
G36*
X430834D02*
X430181D01*
Y191166D01*
X430573Y191428D01*
X430834Y191819D01*
D02*
G37*
G36*
X427819Y194834D02*
X427427Y194572D01*
X427166Y194181D01*
X427819D01*
Y194834D01*
D02*
G37*
G36*
X430181D02*
Y194181D01*
X430834D01*
X430573Y194572D01*
X430181Y194834D01*
D02*
G37*
G36*
X307311Y196840D02*
X306475Y196494D01*
X305639Y195853D01*
X304998Y195017D01*
X304652Y194181D01*
X307311D01*
Y196840D01*
D02*
G37*
G36*
X309673D02*
Y194181D01*
X312333D01*
X311986Y195017D01*
X311345Y195853D01*
X310509Y196494D01*
X309673Y196840D01*
D02*
G37*
G36*
X180882Y208819D02*
X178307D01*
Y206244D01*
X180882D01*
Y208819D01*
D02*
G37*
G36*
X185819D02*
X183244D01*
Y206244D01*
X185819D01*
Y208819D01*
D02*
G37*
G36*
X117819Y206819D02*
X117166D01*
X117428Y206428D01*
X117819Y206166D01*
Y206819D01*
D02*
G37*
G36*
X120834D02*
X120181D01*
Y206166D01*
X120572Y206428D01*
X120834Y206819D01*
D02*
G37*
G36*
X190441Y214738D02*
X186773D01*
X187035Y214347D01*
X187489Y214043D01*
X187337Y213543D01*
X186394D01*
Y206457D01*
X188204D01*
Y204580D01*
X187165D01*
Y195919D01*
X193858D01*
Y204580D01*
X192820D01*
Y206457D01*
X193480D01*
Y208539D01*
X193921Y208774D01*
X194114Y208646D01*
X194882Y208493D01*
X195650Y208646D01*
X196301Y209081D01*
X196736Y209732D01*
X196889Y210500D01*
X196736Y211268D01*
X196301Y211919D01*
X195650Y212354D01*
X194882Y212507D01*
X194114Y212354D01*
X193921Y212226D01*
X193480Y212461D01*
Y213543D01*
X189877D01*
X189725Y214043D01*
X190180Y214347D01*
X190441Y214738D01*
D02*
G37*
G36*
X200819Y209319D02*
X200166D01*
X200428Y208927D01*
X200819Y208666D01*
Y209319D01*
D02*
G37*
G36*
X386500Y215007D02*
X385732Y214854D01*
X385081Y214419D01*
X384646Y213768D01*
X384493Y213000D01*
X384646Y212232D01*
X385081Y211581D01*
X385095Y211571D01*
Y209582D01*
X382017Y206504D01*
X382000Y206507D01*
X381232Y206354D01*
X380581Y205919D01*
X380146Y205268D01*
X379993Y204500D01*
X380146Y203732D01*
X380581Y203081D01*
X381232Y202646D01*
X382000Y202493D01*
X382768Y202646D01*
X383419Y203081D01*
X383854Y203732D01*
X384007Y204500D01*
X384004Y204517D01*
X387493Y208007D01*
X387798Y208462D01*
X387905Y209000D01*
Y211571D01*
X387919Y211581D01*
X388354Y212232D01*
X388507Y213000D01*
X388354Y213768D01*
X387919Y214419D01*
X387268Y214854D01*
X386500Y215007D01*
D02*
G37*
G36*
X203181Y212334D02*
Y210500D01*
Y208666D01*
X203573Y208927D01*
X203807Y209279D01*
X204307Y209127D01*
Y207181D01*
X211819D01*
Y208819D01*
X209000D01*
Y210000D01*
X207819D01*
Y211834D01*
X207428Y211573D01*
X206945Y210851D01*
X206776Y210000D01*
X206576Y209756D01*
X204586D01*
X204163Y210196D01*
X204224Y210500D01*
X204054Y211351D01*
X203573Y212072D01*
X203181Y212334D01*
D02*
G37*
G36*
X178307Y204793D02*
X175929D01*
Y201430D01*
X178307D01*
Y204793D01*
D02*
G37*
G36*
X183047D02*
X180669D01*
Y201430D01*
X183047D01*
Y204793D01*
D02*
G37*
G36*
X211819Y204819D02*
X204307D01*
Y202244D01*
X204602D01*
Y199681D01*
X211720D01*
Y202244D01*
X211819D01*
Y204819D01*
D02*
G37*
G36*
X238193D02*
X230681D01*
Y202244D01*
X230780D01*
Y199681D01*
X237898D01*
Y202244D01*
X238193D01*
Y204819D01*
D02*
G37*
G36*
X260500Y211820D02*
X259511Y211690D01*
X258590Y211308D01*
X257799Y210701D01*
X257192Y209910D01*
X256810Y208989D01*
X256680Y208000D01*
X256810Y207011D01*
X257192Y206090D01*
X257799Y205299D01*
X258590Y204692D01*
X259511Y204310D01*
X260500Y204180D01*
X261489Y204310D01*
X262410Y204692D01*
X263201Y205299D01*
X263528Y205724D01*
X263995Y205512D01*
X263993Y205500D01*
X264146Y204732D01*
X264581Y204081D01*
X265232Y203646D01*
X265260Y203640D01*
X265365Y203109D01*
X265081Y202919D01*
X264646Y202268D01*
X264493Y201500D01*
X264646Y200732D01*
X265081Y200081D01*
X265732Y199646D01*
X266500Y199493D01*
X267268Y199646D01*
X267919Y200081D01*
X267929Y200095D01*
X274074D01*
X274146Y199732D01*
X274581Y199081D01*
X275232Y198646D01*
X276000Y198493D01*
X276768Y198646D01*
X277419Y199081D01*
X277854Y199732D01*
X278007Y200500D01*
X277854Y201268D01*
X277419Y201919D01*
X276768Y202354D01*
X276000Y202507D01*
X275979Y202503D01*
X275538Y202798D01*
X275000Y202905D01*
X267929D01*
X267919Y202919D01*
X267372Y203285D01*
X267302Y203736D01*
X267312Y203845D01*
X267554Y204095D01*
X274571D01*
X274581Y204081D01*
X275232Y203646D01*
X276000Y203493D01*
X276768Y203646D01*
X277419Y204081D01*
X277854Y204732D01*
X278007Y205500D01*
X277854Y206268D01*
X277419Y206919D01*
X276768Y207354D01*
X276000Y207507D01*
X275232Y207354D01*
X274581Y206919D01*
X274571Y206905D01*
X267429D01*
X267419Y206919D01*
X266768Y207354D01*
X266000Y207507D01*
X265232Y207354D01*
X264692Y206993D01*
X264292Y207170D01*
X264219Y207233D01*
X264320Y208000D01*
X264190Y208989D01*
X263808Y209910D01*
X263201Y210701D01*
X262410Y211308D01*
X261489Y211690D01*
X260500Y211820D01*
D02*
G37*
G36*
X320500D02*
X319511Y211690D01*
X318590Y211308D01*
X317799Y210701D01*
X317192Y209910D01*
X316810Y208989D01*
X316680Y208000D01*
X316810Y207011D01*
X317192Y206090D01*
X317799Y205299D01*
X318590Y204692D01*
X319511Y204310D01*
X320500Y204180D01*
X321489Y204310D01*
X322410Y204692D01*
X323201Y205299D01*
X323808Y206090D01*
X324190Y207011D01*
X324320Y208000D01*
X324190Y208989D01*
X323808Y209910D01*
X323201Y210701D01*
X322410Y211308D01*
X321489Y211690D01*
X320500Y211820D01*
D02*
G37*
G36*
X124819Y203334D02*
X124427Y203073D01*
X124166Y202681D01*
X124819D01*
Y203334D01*
D02*
G37*
G36*
X127181D02*
Y202681D01*
X127834D01*
X127573Y203073D01*
X127181Y203334D01*
D02*
G37*
G36*
X312333Y191819D02*
X309673D01*
Y189160D01*
X310509Y189506D01*
X311345Y190147D01*
X311986Y190983D01*
X312333Y191819D01*
D02*
G37*
G36*
X218334Y177819D02*
X217681D01*
Y177166D01*
X218073Y177427D01*
X218334Y177819D01*
D02*
G37*
G36*
X307311Y181819D02*
X304652D01*
X304998Y180983D01*
X305639Y180147D01*
X306475Y179506D01*
X307311Y179160D01*
Y181819D01*
D02*
G37*
G36*
X210334Y177819D02*
X209681D01*
Y177166D01*
X210072Y177427D01*
X210334Y177819D01*
D02*
G37*
G36*
X215319D02*
X214666D01*
X214928Y177427D01*
X215319Y177166D01*
Y177819D01*
D02*
G37*
G36*
X128334Y179819D02*
X127681D01*
Y179166D01*
X128073Y179428D01*
X128334Y179819D01*
D02*
G37*
G36*
X207319Y180834D02*
X206927Y180572D01*
X206666Y180181D01*
X207319D01*
Y180834D01*
D02*
G37*
G36*
X312333Y181819D02*
X309673D01*
Y179160D01*
X310509Y179506D01*
X311345Y180147D01*
X311986Y180983D01*
X312333Y181819D01*
D02*
G37*
G36*
X125319Y179819D02*
X124666D01*
X124927Y179428D01*
X125319Y179166D01*
Y179819D01*
D02*
G37*
G36*
X383334Y173319D02*
X382681D01*
Y172666D01*
X383072Y172927D01*
X383334Y173319D01*
D02*
G37*
G36*
X260500Y181820D02*
X259511Y181690D01*
X258590Y181308D01*
X257799Y180701D01*
X257192Y179910D01*
X256810Y178989D01*
X256680Y178000D01*
X256810Y177011D01*
X257192Y176090D01*
X257799Y175299D01*
X258590Y174692D01*
X259511Y174310D01*
X260500Y174180D01*
X261489Y174310D01*
X262410Y174692D01*
X263201Y175299D01*
X263808Y176090D01*
X264190Y177011D01*
X264320Y178000D01*
X264190Y178989D01*
X263808Y179910D01*
X263201Y180701D01*
X262410Y181308D01*
X261489Y181690D01*
X260500Y181820D01*
D02*
G37*
G36*
X308492Y176820D02*
X307503Y176690D01*
X306582Y176308D01*
X305791Y175701D01*
X305184Y174910D01*
X304802Y173989D01*
X304672Y173000D01*
X304802Y172011D01*
X305184Y171090D01*
X305791Y170299D01*
X306582Y169692D01*
X307503Y169310D01*
X308492Y169180D01*
X309481Y169310D01*
X310402Y169692D01*
X311193Y170299D01*
X311800Y171090D01*
X312182Y172011D01*
X312312Y173000D01*
X312182Y173989D01*
X311800Y174910D01*
X311193Y175701D01*
X310402Y176308D01*
X309481Y176690D01*
X308492Y176820D01*
D02*
G37*
G36*
X380319Y173319D02*
X379666D01*
X379927Y172927D01*
X380319Y172666D01*
Y173319D01*
D02*
G37*
G36*
X382681Y176334D02*
Y175681D01*
X383334D01*
X383072Y176073D01*
X382681Y176334D01*
D02*
G37*
G36*
X207319Y177819D02*
X206666D01*
X206927Y177427D01*
X207319Y177166D01*
Y177819D01*
D02*
G37*
G36*
X320500Y181820D02*
X319511Y181690D01*
X318590Y181308D01*
X317799Y180701D01*
X317192Y179910D01*
X316810Y178989D01*
X316680Y178000D01*
X316810Y177011D01*
X317192Y176090D01*
X317799Y175299D01*
X318590Y174692D01*
X319511Y174310D01*
X320500Y174180D01*
X321489Y174310D01*
X322410Y174692D01*
X323201Y175299D01*
X323808Y176090D01*
X324190Y177011D01*
X324320Y178000D01*
X324190Y178989D01*
X323808Y179910D01*
X323201Y180701D01*
X322410Y181308D01*
X321489Y181690D01*
X320500Y181820D01*
D02*
G37*
G36*
X380319Y176334D02*
X379927Y176073D01*
X379666Y175681D01*
X380319D01*
Y176334D01*
D02*
G37*
G36*
X309673Y186840D02*
Y184181D01*
X312333D01*
X311986Y185017D01*
X311345Y185853D01*
X310509Y186494D01*
X309673Y186840D01*
D02*
G37*
G36*
X449819Y187334D02*
X449428Y187073D01*
X449166Y186681D01*
X449819D01*
Y187334D01*
D02*
G37*
G36*
X320500Y191820D02*
X319511Y191690D01*
X318590Y191308D01*
X317799Y190701D01*
X317192Y189910D01*
X316810Y188989D01*
X316680Y188000D01*
X316810Y187011D01*
X317192Y186090D01*
X317799Y185299D01*
X318590Y184692D01*
X319511Y184310D01*
X320500Y184180D01*
X321489Y184310D01*
X322410Y184692D01*
X323201Y185299D01*
X323808Y186090D01*
X324190Y187011D01*
X324320Y188000D01*
X324190Y188989D01*
X323808Y189910D01*
X323201Y190701D01*
X322410Y191308D01*
X321489Y191690D01*
X320500Y191820D01*
D02*
G37*
G36*
X307311Y186840D02*
X306475Y186494D01*
X305639Y185853D01*
X304998Y185017D01*
X304652Y184181D01*
X307311D01*
Y186840D01*
D02*
G37*
G36*
X279181Y190840D02*
Y187000D01*
X276819D01*
Y190840D01*
X275983Y190494D01*
X275147Y189853D01*
X274506Y189017D01*
X274152Y188162D01*
X273745Y188118D01*
X273626Y188142D01*
X273308Y188910D01*
X272701Y189701D01*
X271910Y190308D01*
X270989Y190690D01*
X270000Y190820D01*
X269011Y190690D01*
X268090Y190308D01*
X267299Y189701D01*
X266692Y188910D01*
X266310Y187989D01*
X266180Y187000D01*
X266310Y186011D01*
X266692Y185090D01*
X267299Y184299D01*
X268090Y183692D01*
X269011Y183310D01*
X269451Y183252D01*
Y182748D01*
X269011Y182690D01*
X268090Y182308D01*
X267299Y181701D01*
X266692Y180910D01*
X266310Y179989D01*
X266180Y179000D01*
X266310Y178011D01*
X266692Y177090D01*
X267299Y176299D01*
X268090Y175692D01*
X269011Y175310D01*
X270000Y175180D01*
X270989Y175310D01*
X271910Y175692D01*
X272701Y176299D01*
X273308Y177090D01*
X273690Y178011D01*
X273748Y178451D01*
X274252D01*
X274310Y178011D01*
X274692Y177090D01*
X275299Y176299D01*
X276090Y175692D01*
X277011Y175310D01*
X278000Y175180D01*
X278989Y175310D01*
X279910Y175692D01*
X280701Y176299D01*
X281308Y177090D01*
X281690Y178011D01*
X281748Y178451D01*
X282252D01*
X282310Y178011D01*
X282692Y177090D01*
X283299Y176299D01*
X284090Y175692D01*
X285011Y175310D01*
X286000Y175180D01*
X286989Y175310D01*
X287910Y175692D01*
X288701Y176299D01*
X289308Y177090D01*
X289690Y178011D01*
X289820Y179000D01*
X289690Y179989D01*
X289308Y180910D01*
X288701Y181701D01*
X287910Y182308D01*
X286989Y182690D01*
X286549Y182748D01*
Y183252D01*
X286989Y183310D01*
X287910Y183692D01*
X288701Y184299D01*
X289308Y185090D01*
X289690Y186011D01*
X289820Y187000D01*
X289690Y187989D01*
X289308Y188910D01*
X288701Y189701D01*
X287910Y190308D01*
X286989Y190690D01*
X286000Y190820D01*
X285011Y190690D01*
X284090Y190308D01*
X283299Y189701D01*
X282692Y188910D01*
X282374Y188142D01*
X282255Y188118D01*
X281848Y188162D01*
X281494Y189017D01*
X280853Y189853D01*
X280017Y190494D01*
X279181Y190840D01*
D02*
G37*
G36*
X307311Y191819D02*
X304652D01*
X304998Y190983D01*
X305639Y190147D01*
X306475Y189506D01*
X307311Y189160D01*
Y191819D01*
D02*
G37*
G36*
X452181Y187334D02*
Y186681D01*
X452834D01*
X452572Y187073D01*
X452181Y187334D01*
D02*
G37*
G36*
X444500Y207007D02*
X443732Y206854D01*
X443081Y206419D01*
X442646Y205768D01*
X442493Y205000D01*
X442646Y204232D01*
X443081Y203581D01*
X443732Y203146D01*
X444500Y202993D01*
X444654Y202532D01*
Y187152D01*
X444154Y186877D01*
X443500Y187007D01*
X442732Y186854D01*
X442081Y186419D01*
X441646Y185768D01*
X441493Y185000D01*
X441496Y184983D01*
X440507Y183993D01*
X440202Y183538D01*
X440095Y183000D01*
Y175429D01*
X440081Y175419D01*
X439646Y174768D01*
X439493Y174000D01*
X439646Y173232D01*
X440081Y172581D01*
X440732Y172146D01*
X441500Y171993D01*
X442268Y172146D01*
X442919Y172581D01*
X443354Y173232D01*
X443507Y174000D01*
X443354Y174768D01*
X442919Y175419D01*
X442905Y175429D01*
Y182418D01*
X443483Y182996D01*
X443500Y182993D01*
X444154Y183123D01*
X444654Y182848D01*
Y172302D01*
X444081Y171919D01*
X443646Y171268D01*
X443493Y170500D01*
X443646Y169732D01*
X444081Y169081D01*
X444732Y168646D01*
X445500Y168493D01*
X446268Y168646D01*
X446919Y169081D01*
X447354Y169732D01*
X447507Y170500D01*
X447430Y170888D01*
X447464Y171059D01*
Y203441D01*
X447357Y203979D01*
X447052Y204434D01*
X446504Y204983D01*
X446507Y205000D01*
X446354Y205768D01*
X445919Y206419D01*
X445268Y206854D01*
X444500Y207007D01*
D02*
G37*
G36*
X217681Y180834D02*
Y180181D01*
X218334D01*
X218073Y180572D01*
X217681Y180834D01*
D02*
G37*
G36*
X125319Y182834D02*
X124927Y182572D01*
X124666Y182181D01*
X125319D01*
Y182834D01*
D02*
G37*
G36*
X209681Y180834D02*
Y180181D01*
X210334D01*
X210072Y180572D01*
X209681Y180834D01*
D02*
G37*
G36*
X215319D02*
X214928Y180572D01*
X214666Y180181D01*
X215319D01*
Y180834D01*
D02*
G37*
G36*
X452834Y184319D02*
X452181D01*
Y183666D01*
X452572Y183928D01*
X452834Y184319D01*
D02*
G37*
G36*
X260500Y191820D02*
X259511Y191690D01*
X258590Y191308D01*
X257799Y190701D01*
X257192Y189910D01*
X256810Y188989D01*
X256680Y188000D01*
X256810Y187011D01*
X257192Y186090D01*
X257799Y185299D01*
X258590Y184692D01*
X259511Y184310D01*
X260500Y184180D01*
X261489Y184310D01*
X262410Y184692D01*
X263201Y185299D01*
X263808Y186090D01*
X264190Y187011D01*
X264320Y188000D01*
X264190Y188989D01*
X263808Y189910D01*
X263201Y190701D01*
X262410Y191308D01*
X261489Y191690D01*
X260500Y191820D01*
D02*
G37*
G36*
X127681Y182834D02*
Y182181D01*
X128334D01*
X128073Y182572D01*
X127681Y182834D01*
D02*
G37*
G36*
X449819Y184319D02*
X449166D01*
X449428Y183928D01*
X449819Y183666D01*
Y184319D01*
D02*
G37*
G36*
X277819Y426319D02*
X277166D01*
X277428Y425927D01*
X277819Y425666D01*
Y426319D01*
D02*
G37*
G36*
X285334D02*
X284681D01*
Y425666D01*
X285072Y425927D01*
X285334Y426319D01*
D02*
G37*
G36*
X271834Y423819D02*
X271181D01*
Y423166D01*
X271572Y423427D01*
X271834Y423819D01*
D02*
G37*
G36*
X247819Y424834D02*
X247428Y424573D01*
X247166Y424181D01*
X247819D01*
Y424834D01*
D02*
G37*
G36*
X161319Y431161D02*
X158660D01*
X159006Y430325D01*
X159647Y429490D01*
X160483Y428849D01*
X161319Y428502D01*
Y431161D01*
D02*
G37*
G36*
X166340D02*
X163681D01*
Y428502D01*
X164517Y428849D01*
X165353Y429490D01*
X165994Y430325D01*
X166340Y431161D01*
D02*
G37*
G36*
X268819Y426834D02*
X268427Y426573D01*
X268166Y426181D01*
X268819D01*
Y426834D01*
D02*
G37*
G36*
X271181D02*
Y426181D01*
X271834D01*
X271572Y426573D01*
X271181Y426834D01*
D02*
G37*
G36*
X247819Y421819D02*
X247166D01*
X247428Y421427D01*
X247819Y421166D01*
Y421819D01*
D02*
G37*
G36*
X250181Y424834D02*
Y423000D01*
Y421166D01*
X250572Y421427D01*
X251055Y422149D01*
X251224Y423000D01*
X251055Y423851D01*
X250572Y424573D01*
X250181Y424834D01*
D02*
G37*
G36*
X276819Y420319D02*
X276166D01*
X276428Y419928D01*
X276819Y419666D01*
Y420319D01*
D02*
G37*
G36*
X279834D02*
X279181D01*
Y419666D01*
X279573Y419928D01*
X279834Y420319D01*
D02*
G37*
G36*
X252819Y426834D02*
X252428Y426573D01*
X251945Y425851D01*
X251776Y425000D01*
X251945Y424149D01*
X252428Y423427D01*
X252819Y423166D01*
Y425000D01*
Y426834D01*
D02*
G37*
G36*
X268819Y423819D02*
X268166D01*
X268427Y423427D01*
X268819Y423166D01*
Y423819D01*
D02*
G37*
G36*
X276819Y423334D02*
X276428Y423072D01*
X276166Y422681D01*
X276819D01*
Y423334D01*
D02*
G37*
G36*
X279181D02*
Y422681D01*
X279834D01*
X279573Y423072D01*
X279181Y423334D01*
D02*
G37*
G36*
X216834Y449319D02*
X216181D01*
Y448666D01*
X216572Y448927D01*
X216834Y449319D01*
D02*
G37*
G36*
X119000Y463934D02*
X117842Y463820D01*
X116729Y463482D01*
X115703Y462934D01*
X114804Y462196D01*
X114066Y461297D01*
X113518Y460271D01*
X113180Y459158D01*
X113066Y458000D01*
X113180Y456842D01*
X113518Y455729D01*
X114066Y454703D01*
X114804Y453804D01*
X115703Y453066D01*
X116729Y452518D01*
X117842Y452180D01*
X119000Y452066D01*
X120158Y452180D01*
X121271Y452518D01*
X122297Y453066D01*
X123196Y453804D01*
X123934Y454703D01*
X124482Y455729D01*
X124820Y456842D01*
X124934Y458000D01*
X124820Y459158D01*
X124482Y460271D01*
X123934Y461297D01*
X123196Y462196D01*
X122297Y462934D01*
X121271Y463482D01*
X120158Y463820D01*
X119000Y463934D01*
D02*
G37*
G36*
X120181Y444031D02*
Y439181D01*
X125031D01*
X125030Y439199D01*
X124680Y440353D01*
X124112Y441416D01*
X123347Y442347D01*
X122415Y443112D01*
X121353Y443680D01*
X120199Y444030D01*
X120181Y444031D01*
D02*
G37*
G36*
X202319Y449319D02*
X201666D01*
X201927Y448927D01*
X202319Y448666D01*
Y449319D01*
D02*
G37*
G36*
X249819Y455476D02*
X247160D01*
X247506Y454640D01*
X248147Y453805D01*
X248983Y453163D01*
X249819Y452817D01*
Y455476D01*
D02*
G37*
G36*
X254840D02*
X252181D01*
Y452817D01*
X253017Y453163D01*
X253853Y453805D01*
X254494Y454640D01*
X254840Y455476D01*
D02*
G37*
G36*
X147319Y452819D02*
X146666D01*
X146927Y452427D01*
X147319Y452166D01*
Y452819D01*
D02*
G37*
G36*
X150334D02*
X149681D01*
Y452166D01*
X150073Y452427D01*
X150334Y452819D01*
D02*
G37*
G36*
X161319Y436183D02*
X160483Y435837D01*
X159647Y435195D01*
X159006Y434360D01*
X158660Y433524D01*
X161319D01*
Y436183D01*
D02*
G37*
G36*
X163681D02*
Y433524D01*
X166340D01*
X165994Y434360D01*
X165353Y435195D01*
X164517Y435837D01*
X163681Y436183D01*
D02*
G37*
G36*
X117819Y436819D02*
X112969D01*
X112970Y436801D01*
X113320Y435647D01*
X113888Y434585D01*
X114653Y433653D01*
X115585Y432888D01*
X116647Y432320D01*
X117801Y431970D01*
X117819Y431969D01*
Y436819D01*
D02*
G37*
G36*
X125031D02*
X120181D01*
Y431969D01*
X120199Y431970D01*
X121353Y432320D01*
X122415Y432888D01*
X123347Y433653D01*
X124112Y434585D01*
X124680Y435647D01*
X125030Y436801D01*
X125031Y436819D01*
D02*
G37*
G36*
X284681Y437834D02*
Y437181D01*
X285334D01*
X285072Y437572D01*
X284681Y437834D01*
D02*
G37*
G36*
X117819Y444031D02*
X117801Y444030D01*
X116647Y443680D01*
X115585Y443112D01*
X114653Y442347D01*
X113888Y441416D01*
X113320Y440353D01*
X112970Y439199D01*
X112969Y439181D01*
X117819D01*
Y444031D01*
D02*
G37*
G36*
X282319Y437834D02*
X281927Y437572D01*
X281528Y436974D01*
X281409Y436943D01*
X281091D01*
X280972Y436974D01*
X280573Y437572D01*
X280181Y437834D01*
Y436000D01*
X279000D01*
Y434819D01*
X277166D01*
X277428Y434427D01*
X277693Y434250D01*
Y433750D01*
X277428Y433572D01*
X277166Y433181D01*
X279000D01*
Y430819D01*
X277166D01*
X277428Y430428D01*
X278026Y430028D01*
X278057Y429909D01*
Y429591D01*
X278026Y429472D01*
X277428Y429073D01*
X277166Y428681D01*
X279000D01*
Y427500D01*
X280181D01*
Y425666D01*
X280573Y425927D01*
X280972Y426526D01*
X281091Y426557D01*
X281409D01*
X281528Y426526D01*
X281927Y425927D01*
X282319Y425666D01*
Y427500D01*
X283500D01*
Y428681D01*
X285334D01*
X285072Y429073D01*
X284474Y429472D01*
X284443Y429591D01*
Y429909D01*
X284474Y430028D01*
X285072Y430428D01*
X285334Y430819D01*
X283500D01*
Y433181D01*
X285334D01*
X285072Y433572D01*
X284807Y433750D01*
Y434250D01*
X285072Y434427D01*
X285334Y434819D01*
X283500D01*
Y436000D01*
X282319D01*
Y437834D01*
D02*
G37*
G36*
X277819D02*
X277428Y437572D01*
X277166Y437181D01*
X277819D01*
Y437834D01*
D02*
G37*
G36*
X162500Y416478D02*
X161511Y416347D01*
X160590Y415966D01*
X159799Y415359D01*
X159192Y414568D01*
X158810Y413646D01*
X158680Y412657D01*
X158810Y411669D01*
X159192Y410747D01*
X159799Y409956D01*
X160590Y409349D01*
X161511Y408968D01*
X162500Y408837D01*
X163489Y408968D01*
X164410Y409349D01*
X165201Y409956D01*
X165808Y410747D01*
X166190Y411669D01*
X166320Y412657D01*
X166190Y413646D01*
X165808Y414568D01*
X165201Y415359D01*
X164410Y415966D01*
X163489Y416347D01*
X162500Y416478D01*
D02*
G37*
G36*
X376500Y419007D02*
X375732Y418854D01*
X375081Y418419D01*
X374646Y417768D01*
X374493Y417000D01*
X374646Y416232D01*
X375081Y415581D01*
X375732Y415146D01*
X376500Y414993D01*
X376517Y414996D01*
X380595Y410918D01*
Y400929D01*
X380581Y400919D01*
X380146Y400268D01*
X379993Y399500D01*
X380146Y398732D01*
X380581Y398081D01*
X381232Y397646D01*
X382000Y397493D01*
X382768Y397646D01*
X383419Y398081D01*
X383854Y398732D01*
X384007Y399500D01*
X383854Y400268D01*
X383419Y400919D01*
X383405Y400929D01*
Y411500D01*
X383298Y412038D01*
X382993Y412494D01*
X378504Y416983D01*
X378507Y417000D01*
X378354Y417768D01*
X377919Y418419D01*
X377268Y418854D01*
X376500Y419007D01*
D02*
G37*
G36*
X121500Y409434D02*
X120342Y409320D01*
X119229Y408982D01*
X118203Y408434D01*
X117304Y407696D01*
X116566Y406797D01*
X116018Y405771D01*
X115680Y404658D01*
X115566Y403500D01*
X115680Y402342D01*
X116018Y401229D01*
X116566Y400203D01*
X117304Y399304D01*
X118203Y398566D01*
X119229Y398018D01*
X120342Y397680D01*
X121500Y397566D01*
X122658Y397680D01*
X123771Y398018D01*
X124797Y398566D01*
X125696Y399304D01*
X126434Y400203D01*
X126982Y401229D01*
X127320Y402342D01*
X127434Y403500D01*
X127320Y404658D01*
X126982Y405771D01*
X126434Y406797D01*
X125696Y407696D01*
X124797Y408434D01*
X123771Y408982D01*
X122658Y409320D01*
X121500Y409434D01*
D02*
G37*
G36*
X203319Y395819D02*
X202666D01*
X202927Y395427D01*
X203319Y395166D01*
Y395819D01*
D02*
G37*
G36*
X206334D02*
X205681D01*
Y395166D01*
X206072Y395427D01*
X206334Y395819D01*
D02*
G37*
G36*
X326819Y398819D02*
X326166D01*
X326428Y398428D01*
X326819Y398166D01*
Y398819D01*
D02*
G37*
G36*
X329834D02*
X329181D01*
Y398166D01*
X329573Y398428D01*
X329834Y398819D01*
D02*
G37*
G36*
X344819Y398334D02*
X344427Y398073D01*
X344166Y397681D01*
X344819D01*
Y398334D01*
D02*
G37*
G36*
X347181D02*
Y397681D01*
X347834D01*
X347572Y398073D01*
X347181Y398334D01*
D02*
G37*
G36*
X295319Y395319D02*
X294666D01*
X294928Y394928D01*
X295319Y394666D01*
Y395319D01*
D02*
G37*
G36*
X302334D02*
X301681D01*
Y394666D01*
X302073Y394928D01*
X302334Y395319D01*
D02*
G37*
G36*
X391819Y392319D02*
X391166D01*
X391427Y391928D01*
X391819Y391666D01*
Y392319D01*
D02*
G37*
G36*
X394834D02*
X394181D01*
Y391666D01*
X394572Y391928D01*
X394834Y392319D01*
D02*
G37*
G36*
X391819Y395334D02*
X391427Y395073D01*
X391166Y394681D01*
X391819D01*
Y395334D01*
D02*
G37*
G36*
X394181D02*
Y394681D01*
X394834D01*
X394572Y395073D01*
X394181Y395334D01*
D02*
G37*
G36*
X344819Y395319D02*
X344166D01*
X344427Y394928D01*
X344819Y394666D01*
Y395319D01*
D02*
G37*
G36*
X347834D02*
X347181D01*
Y394666D01*
X347572Y394928D01*
X347834Y395319D01*
D02*
G37*
G36*
X320181Y403834D02*
Y403181D01*
X320834D01*
X320572Y403573D01*
X320181Y403834D01*
D02*
G37*
G36*
X315319D02*
X315250Y403788D01*
X315181Y403834D01*
Y402000D01*
Y400166D01*
X315250Y400212D01*
X315319Y400166D01*
Y402000D01*
Y403834D01*
D02*
G37*
G36*
X329181Y401834D02*
Y401181D01*
X329834D01*
X329573Y401573D01*
X329181Y401834D01*
D02*
G37*
G36*
X312819Y403834D02*
X312427Y403573D01*
X312166Y403181D01*
X312819D01*
Y403834D01*
D02*
G37*
G36*
X301681Y405334D02*
Y404681D01*
X302334D01*
X302073Y405072D01*
X301681Y405334D01*
D02*
G37*
G36*
X299319D02*
X298927Y405072D01*
X298750Y404807D01*
X298250D01*
X298073Y405072D01*
X297681Y405334D01*
Y403500D01*
X296500D01*
Y402319D01*
X294666D01*
X294928Y401928D01*
Y401573D01*
X294666Y401181D01*
X296500D01*
Y398819D01*
X294666D01*
X294814Y398598D01*
X294889Y398250D01*
X294814Y397902D01*
X294666Y397681D01*
X296500D01*
Y396500D01*
X297681D01*
Y394666D01*
X298073Y394928D01*
X298250Y395193D01*
X298750D01*
X298927Y394928D01*
X299319Y394666D01*
Y396500D01*
X300500D01*
Y397681D01*
X302334D01*
X302073Y398073D01*
Y398428D01*
X302334Y398819D01*
X300500D01*
Y401181D01*
X302334D01*
X302073Y401573D01*
Y401928D01*
X302334Y402319D01*
X300500D01*
Y403500D01*
X299319D01*
Y405334D01*
D02*
G37*
G36*
X317819Y403834D02*
X317750Y403788D01*
X317681Y403834D01*
Y402000D01*
Y400166D01*
X317750Y400212D01*
X317819Y400166D01*
Y402000D01*
Y403834D01*
D02*
G37*
G36*
X295319Y405334D02*
X294928Y405072D01*
X294666Y404681D01*
X295319D01*
Y405334D01*
D02*
G37*
G36*
X401819Y400809D02*
X400886D01*
X400150Y400662D01*
X399526Y400245D01*
X399109Y399622D01*
X399022Y399181D01*
X401819D01*
Y400809D01*
D02*
G37*
G36*
X405114D02*
X404181D01*
Y399181D01*
X406978D01*
X406891Y399622D01*
X406474Y400245D01*
X405850Y400662D01*
X405114Y400809D01*
D02*
G37*
G36*
X203319Y398834D02*
X202927Y398572D01*
X202666Y398181D01*
X203319D01*
Y398834D01*
D02*
G37*
G36*
X205681D02*
Y398181D01*
X206334D01*
X206072Y398572D01*
X205681Y398834D01*
D02*
G37*
G36*
X375500Y413007D02*
X374732Y412854D01*
X374081Y412419D01*
X373646Y411768D01*
X373493Y411000D01*
X373646Y410232D01*
X374081Y409581D01*
X374595Y409237D01*
Y403929D01*
X374581Y403919D01*
X374146Y403268D01*
X373993Y402500D01*
X374146Y401732D01*
X374581Y401081D01*
X375232Y400646D01*
X376000Y400493D01*
X376768Y400646D01*
X377419Y401081D01*
X377854Y401732D01*
X378007Y402500D01*
X377854Y403268D01*
X377419Y403919D01*
X377405Y403929D01*
Y410487D01*
X377507Y411000D01*
X377354Y411768D01*
X376919Y412419D01*
X376268Y412854D01*
X375500Y413007D01*
D02*
G37*
G36*
X326819Y401834D02*
X326428Y401573D01*
X326166Y401181D01*
X326819D01*
Y401834D01*
D02*
G37*
G36*
X312819Y400819D02*
X312166D01*
X312427Y400427D01*
X312819Y400166D01*
Y400819D01*
D02*
G37*
G36*
X320834D02*
X320181D01*
Y400166D01*
X320572Y400427D01*
X320834Y400819D01*
D02*
G37*
G36*
X147319Y455834D02*
X146927Y455573D01*
X146666Y455181D01*
X147319D01*
Y455834D01*
D02*
G37*
G36*
X295819Y490334D02*
X295427Y490072D01*
X295166Y489681D01*
X295819D01*
Y490334D01*
D02*
G37*
G36*
X298181D02*
Y489681D01*
X298834D01*
X298572Y490072D01*
X298181Y490334D01*
D02*
G37*
G36*
X288819D02*
X288427Y490072D01*
X288166Y489681D01*
X288819D01*
Y490334D01*
D02*
G37*
G36*
X291181D02*
Y489681D01*
X291834D01*
X291572Y490072D01*
X291181Y490334D01*
D02*
G37*
G36*
X307319D02*
X306927Y490072D01*
X306666Y489681D01*
X307319D01*
Y490334D01*
D02*
G37*
G36*
X309681D02*
Y489681D01*
X310334D01*
X310072Y490072D01*
X309681Y490334D01*
D02*
G37*
G36*
X301819D02*
X301428Y490072D01*
X301166Y489681D01*
X301819D01*
Y490334D01*
D02*
G37*
G36*
X304181D02*
Y489681D01*
X304834D01*
X304573Y490072D01*
X304181Y490334D01*
D02*
G37*
G36*
X344319Y487319D02*
X343666D01*
X343928Y486928D01*
X344319Y486666D01*
Y487319D01*
D02*
G37*
G36*
X347334D02*
X346681D01*
Y486666D01*
X347073Y486928D01*
X347334Y487319D01*
D02*
G37*
G36*
X338319D02*
X337666D01*
X337928Y486928D01*
X338319Y486666D01*
Y487319D01*
D02*
G37*
G36*
X341334D02*
X340681D01*
Y486666D01*
X341073Y486928D01*
X341334Y487319D01*
D02*
G37*
G36*
X357319D02*
X356666D01*
X356927Y486928D01*
X357319Y486666D01*
Y487319D01*
D02*
G37*
G36*
X360334D02*
X359681D01*
Y486666D01*
X360072Y486928D01*
X360334Y487319D01*
D02*
G37*
G36*
X350819D02*
X350166D01*
X350428Y486928D01*
X350819Y486666D01*
Y487319D01*
D02*
G37*
G36*
X353834D02*
X353181D01*
Y486666D01*
X353573Y486928D01*
X353834Y487319D01*
D02*
G37*
G36*
X344319Y490334D02*
X343928Y490072D01*
X343666Y489681D01*
X344319D01*
Y490334D01*
D02*
G37*
G36*
X346681D02*
Y489681D01*
X347334D01*
X347073Y490072D01*
X346681Y490334D01*
D02*
G37*
G36*
X338319D02*
X337928Y490072D01*
X337666Y489681D01*
X338319D01*
Y490334D01*
D02*
G37*
G36*
X340681D02*
Y489681D01*
X341334D01*
X341073Y490072D01*
X340681Y490334D01*
D02*
G37*
G36*
X357319D02*
X356927Y490072D01*
X356666Y489681D01*
X357319D01*
Y490334D01*
D02*
G37*
G36*
X359681D02*
Y489681D01*
X360334D01*
X360072Y490072D01*
X359681Y490334D01*
D02*
G37*
G36*
X350819D02*
X350428Y490072D01*
X350166Y489681D01*
X350819D01*
Y490334D01*
D02*
G37*
G36*
X353181D02*
Y489681D01*
X353834D01*
X353573Y490072D01*
X353181Y490334D01*
D02*
G37*
G36*
X319819D02*
X319427Y490072D01*
X319166Y489681D01*
X319819D01*
Y490334D01*
D02*
G37*
G36*
X322181D02*
Y489681D01*
X322834D01*
X322572Y490072D01*
X322181Y490334D01*
D02*
G37*
G36*
X313319D02*
X312928Y490072D01*
X312666Y489681D01*
X313319D01*
Y490334D01*
D02*
G37*
G36*
X315681D02*
Y489681D01*
X316334D01*
X316073Y490072D01*
X315681Y490334D01*
D02*
G37*
G36*
X332319D02*
X331927Y490072D01*
X331666Y489681D01*
X332319D01*
Y490334D01*
D02*
G37*
G36*
X334681D02*
Y489681D01*
X335334D01*
X335072Y490072D01*
X334681Y490334D01*
D02*
G37*
G36*
X325819D02*
X325428Y490072D01*
X325166Y489681D01*
X325819D01*
Y490334D01*
D02*
G37*
G36*
X328181D02*
Y489681D01*
X328834D01*
X328573Y490072D01*
X328181Y490334D01*
D02*
G37*
G36*
X335334Y487319D02*
X334681D01*
Y486666D01*
X335072Y486928D01*
X335334Y487319D01*
D02*
G37*
G36*
X111819Y479819D02*
X101230D01*
X101283Y479144D01*
X101717Y477334D01*
X102430Y475614D01*
X103402Y474027D01*
X104611Y472611D01*
X106027Y471402D01*
X107614Y470430D01*
X109334Y469717D01*
X111144Y469283D01*
X111819Y469230D01*
Y479819D01*
D02*
G37*
G36*
X124770D02*
X114181D01*
Y469230D01*
X114856Y469283D01*
X116666Y469717D01*
X118386Y470430D01*
X119973Y471402D01*
X121389Y472611D01*
X122598Y474027D01*
X123570Y475614D01*
X124283Y477334D01*
X124717Y479144D01*
X124770Y479819D01*
D02*
G37*
G36*
X420000Y472689D02*
X418916Y472547D01*
X417905Y472128D01*
X417038Y471462D01*
X416372Y470595D01*
X415953Y469584D01*
X415811Y468500D01*
X415953Y467416D01*
X416372Y466405D01*
X417038Y465538D01*
X417905Y464872D01*
X418916Y464453D01*
X420000Y464311D01*
X421084Y464453D01*
X422095Y464872D01*
X422962Y465538D01*
X423628Y466405D01*
X424047Y467416D01*
X424189Y468500D01*
X424047Y469584D01*
X423628Y470595D01*
X422962Y471462D01*
X422095Y472128D01*
X421084Y472547D01*
X420000Y472689D01*
D02*
G37*
G36*
X403198Y472672D02*
X396802D01*
X396429Y472598D01*
X396113Y472387D01*
X395902Y472071D01*
X395828Y471698D01*
Y465302D01*
X395902Y464929D01*
X396113Y464613D01*
X396429Y464402D01*
X396802Y464328D01*
X403198D01*
X403571Y464402D01*
X403887Y464613D01*
X404098Y464929D01*
X404172Y465302D01*
Y471698D01*
X404098Y472071D01*
X403887Y472387D01*
X403571Y472598D01*
X403198Y472672D01*
D02*
G37*
G36*
X411181Y472737D02*
Y469681D01*
X414237D01*
X413814Y470702D01*
X413114Y471614D01*
X412202Y472314D01*
X411181Y472737D01*
D02*
G37*
G36*
X254787Y480130D02*
X247213D01*
Y472555D01*
X254787D01*
Y480130D01*
D02*
G37*
G36*
X456500Y492650D02*
X454677Y492507D01*
X452900Y492080D01*
X451211Y491380D01*
X449652Y490425D01*
X448262Y489238D01*
X447075Y487848D01*
X446120Y486289D01*
X445420Y484600D01*
X444993Y482823D01*
X444850Y481000D01*
X444993Y479178D01*
X445420Y477400D01*
X446120Y475711D01*
X447075Y474152D01*
X448262Y472762D01*
X449652Y471575D01*
X451211Y470620D01*
X452900Y469920D01*
X454677Y469493D01*
X456500Y469350D01*
X458322Y469493D01*
X460100Y469920D01*
X461789Y470620D01*
X463348Y471575D01*
X464738Y472762D01*
X465925Y474152D01*
X466880Y475711D01*
X467580Y477400D01*
X468007Y479178D01*
X468150Y481000D01*
X468007Y482823D01*
X467580Y484600D01*
X466880Y486289D01*
X465925Y487848D01*
X464738Y489238D01*
X463348Y490425D01*
X461789Y491380D01*
X460100Y492080D01*
X458322Y492507D01*
X456500Y492650D01*
D02*
G37*
G36*
X408819Y472737D02*
X407798Y472314D01*
X406886Y471614D01*
X406186Y470702D01*
X405763Y469681D01*
X408819D01*
Y472737D01*
D02*
G37*
G36*
X216181Y455834D02*
Y455181D01*
X216834D01*
X216572Y455573D01*
X216181Y455834D01*
D02*
G37*
G36*
X213819D02*
X213427Y455573D01*
X213250Y455307D01*
X212750D01*
X212573Y455573D01*
X212181Y455834D01*
Y454000D01*
X209819D01*
Y455834D01*
X209427Y455573D01*
X209250Y455307D01*
X208750D01*
X208573Y455573D01*
X208181Y455834D01*
Y454000D01*
X205819D01*
Y455834D01*
X205428Y455573D01*
X205072D01*
X204681Y455834D01*
Y454000D01*
X203500D01*
Y452819D01*
X201666D01*
X201814Y452598D01*
X201889Y452250D01*
X201814Y451902D01*
X201666Y451681D01*
X203500D01*
Y450500D01*
X204681D01*
Y448666D01*
X205072Y448927D01*
X205428D01*
X205819Y448666D01*
Y450500D01*
X208181D01*
Y448666D01*
X208573Y448927D01*
X208750Y449193D01*
X209250D01*
X209427Y448927D01*
X209819Y448666D01*
Y450500D01*
X212181D01*
Y448666D01*
X212573Y448927D01*
X212750Y449193D01*
X213250D01*
X213427Y448927D01*
X213819Y448666D01*
Y450500D01*
X215000D01*
Y451681D01*
X216834D01*
X216686Y451902D01*
X216611Y452250D01*
X216686Y452598D01*
X216834Y452819D01*
X215000D01*
Y454000D01*
X213819D01*
Y455834D01*
D02*
G37*
G36*
X149681D02*
Y455181D01*
X150334D01*
X150073Y455573D01*
X149681Y455834D01*
D02*
G37*
G36*
X202319D02*
X201927Y455573D01*
X201666Y455181D01*
X202319D01*
Y455834D01*
D02*
G37*
G36*
X408819Y467319D02*
X405763D01*
X406186Y466298D01*
X406886Y465386D01*
X407798Y464686D01*
X408819Y464263D01*
Y467319D01*
D02*
G37*
G36*
X414237D02*
X411181D01*
Y464263D01*
X412202Y464686D01*
X413114Y465386D01*
X413814Y466298D01*
X414237Y467319D01*
D02*
G37*
G36*
X249819Y460498D02*
X248983Y460151D01*
X248147Y459510D01*
X247506Y458675D01*
X247160Y457839D01*
X249819D01*
Y460498D01*
D02*
G37*
G36*
X252181D02*
Y457839D01*
X254840D01*
X254494Y458675D01*
X253853Y459510D01*
X253017Y460151D01*
X252181Y460498D01*
D02*
G37*
G36*
X316334Y487319D02*
X315681D01*
Y486666D01*
X316073Y486928D01*
X316334Y487319D01*
D02*
G37*
G36*
X319819D02*
X319166D01*
X319427Y486928D01*
X319819Y486666D01*
Y487319D01*
D02*
G37*
G36*
X310334D02*
X309681D01*
Y486666D01*
X310072Y486928D01*
X310334Y487319D01*
D02*
G37*
G36*
X313319D02*
X312666D01*
X312928Y486928D01*
X313319Y486666D01*
Y487319D01*
D02*
G37*
G36*
X328834D02*
X328181D01*
Y486666D01*
X328573Y486928D01*
X328834Y487319D01*
D02*
G37*
G36*
X332319D02*
X331666D01*
X331927Y486928D01*
X332319Y486666D01*
Y487319D01*
D02*
G37*
G36*
X322834D02*
X322181D01*
Y486666D01*
X322572Y486928D01*
X322834Y487319D01*
D02*
G37*
G36*
X325819D02*
X325166D01*
X325428Y486928D01*
X325819Y486666D01*
Y487319D01*
D02*
G37*
G36*
X291834D02*
X291181D01*
Y486666D01*
X291572Y486928D01*
X291834Y487319D01*
D02*
G37*
G36*
X295819D02*
X295166D01*
X295427Y486928D01*
X295819Y486666D01*
Y487319D01*
D02*
G37*
G36*
X113000Y492863D02*
X111144Y492717D01*
X109334Y492283D01*
X107614Y491570D01*
X106027Y490598D01*
X104611Y489389D01*
X103402Y487973D01*
X102430Y486386D01*
X101717Y484666D01*
X101283Y482856D01*
X101230Y482181D01*
X124770D01*
X124717Y482856D01*
X124283Y484666D01*
X123570Y486386D01*
X122598Y487973D01*
X121389Y489389D01*
X119973Y490598D01*
X118386Y491570D01*
X116666Y492283D01*
X114856Y492717D01*
X113000Y492863D01*
D02*
G37*
G36*
X288819Y487319D02*
X288166D01*
X288427Y486928D01*
X288819Y486666D01*
Y487319D01*
D02*
G37*
G36*
X304834D02*
X304181D01*
Y486666D01*
X304573Y486928D01*
X304834Y487319D01*
D02*
G37*
G36*
X307319D02*
X306666D01*
X306927Y486928D01*
X307319Y486666D01*
Y487319D01*
D02*
G37*
G36*
X298834D02*
X298181D01*
Y486666D01*
X298572Y486928D01*
X298834Y487319D01*
D02*
G37*
G36*
X301819D02*
X301166D01*
X301428Y486928D01*
X301819Y486666D01*
Y487319D01*
D02*
G37*
G36*
X352681Y387834D02*
Y387181D01*
X353334D01*
X353073Y387573D01*
X352681Y387834D01*
D02*
G37*
G36*
X260500Y331820D02*
X259511Y331690D01*
X258590Y331308D01*
X257799Y330701D01*
X257192Y329910D01*
X256810Y328989D01*
X256680Y328000D01*
X256810Y327011D01*
X257192Y326090D01*
X257799Y325299D01*
X258590Y324692D01*
X259511Y324310D01*
X260500Y324180D01*
X261489Y324310D01*
X262410Y324692D01*
X263201Y325299D01*
X263808Y326090D01*
X264190Y327011D01*
X264320Y328000D01*
X264190Y328989D01*
X263808Y329910D01*
X263201Y330701D01*
X262410Y331308D01*
X261489Y331690D01*
X260500Y331820D01*
D02*
G37*
G36*
X391500Y335405D02*
X386000D01*
X385462Y335298D01*
X385007Y334993D01*
X373507Y323493D01*
X373202Y323038D01*
X373095Y322500D01*
Y313429D01*
X373081Y313419D01*
X372646Y312768D01*
X372493Y312000D01*
X372646Y311232D01*
X373081Y310581D01*
X373732Y310146D01*
X374500Y309993D01*
X375268Y310146D01*
X375919Y310581D01*
X376354Y311232D01*
X376507Y312000D01*
X376354Y312768D01*
X375919Y313419D01*
X375905Y313429D01*
Y321918D01*
X386222Y332235D01*
X386345Y332217D01*
X386546Y331916D01*
X386626Y331670D01*
X386493Y331000D01*
X386646Y330232D01*
X387081Y329581D01*
X387095Y329571D01*
Y328582D01*
X378507Y319993D01*
X378202Y319538D01*
X378095Y319000D01*
Y312929D01*
X378081Y312919D01*
X377646Y312268D01*
X377493Y311500D01*
X377646Y310732D01*
X378081Y310081D01*
X378732Y309646D01*
X379500Y309493D01*
X380268Y309646D01*
X380919Y310081D01*
X381354Y310732D01*
X381507Y311500D01*
X381354Y312268D01*
X380919Y312919D01*
X380905Y312929D01*
Y318418D01*
X389493Y327007D01*
X389798Y327462D01*
X389905Y328000D01*
Y329571D01*
X389919Y329581D01*
X390354Y330232D01*
X390507Y331000D01*
X390354Y331768D01*
X390136Y332095D01*
X390403Y332595D01*
X390918D01*
X391686Y331828D01*
X391646Y331768D01*
X391493Y331000D01*
X391646Y330232D01*
X392081Y329581D01*
X392732Y329146D01*
X393500Y328993D01*
X394268Y329146D01*
X394919Y329581D01*
X395354Y330232D01*
X395507Y331000D01*
X395354Y331768D01*
X394919Y332419D01*
X394807Y332494D01*
X394798Y332538D01*
X394493Y332993D01*
X392493Y334993D01*
X392038Y335298D01*
X391500Y335405D01*
D02*
G37*
G36*
X445319Y323834D02*
X444928Y323572D01*
X444666Y323181D01*
X445319D01*
Y323834D01*
D02*
G37*
G36*
X447681D02*
Y323181D01*
X448334D01*
X448072Y323572D01*
X447681Y323834D01*
D02*
G37*
G36*
X444819Y329819D02*
X444166D01*
X444427Y329428D01*
X444819Y329166D01*
Y329819D01*
D02*
G37*
G36*
X447834D02*
X447181D01*
Y329166D01*
X447573Y329428D01*
X447834Y329819D01*
D02*
G37*
G36*
X176819D02*
X176166D01*
X176427Y329428D01*
X176819Y329166D01*
Y329819D01*
D02*
G37*
G36*
X179834D02*
X179181D01*
Y329166D01*
X179572Y329428D01*
X179834Y329819D01*
D02*
G37*
G36*
X291681Y311840D02*
Y309181D01*
X294340D01*
X293994Y310017D01*
X293353Y310853D01*
X292517Y311494D01*
X291681Y311840D01*
D02*
G37*
G36*
X376500Y338007D02*
X375732Y337854D01*
X375081Y337419D01*
X374646Y336768D01*
X374493Y336000D01*
X374646Y335232D01*
X375081Y334581D01*
X375082Y334569D01*
X368507Y327993D01*
X368202Y327538D01*
X368095Y327000D01*
Y313929D01*
X368081Y313919D01*
X367646Y313268D01*
X367493Y312500D01*
X367646Y311732D01*
X368081Y311081D01*
X368732Y310646D01*
X369500Y310493D01*
X370268Y310646D01*
X370919Y311081D01*
X371354Y311732D01*
X371507Y312500D01*
X371354Y313268D01*
X370919Y313919D01*
X370905Y313929D01*
Y326418D01*
X377493Y333007D01*
X377798Y333462D01*
X377905Y334000D01*
Y334571D01*
X377919Y334581D01*
X378354Y335232D01*
X378507Y336000D01*
X378354Y336768D01*
X377919Y337419D01*
X377268Y337854D01*
X376500Y338007D01*
D02*
G37*
G36*
X388815Y315340D02*
Y311500D01*
Y307660D01*
X389651Y308006D01*
X390487Y308647D01*
X391128Y309483D01*
X391415Y310177D01*
X391956D01*
X392200Y309590D01*
X392807Y308799D01*
X393598Y308192D01*
X394519Y307810D01*
X395508Y307680D01*
X396497Y307810D01*
X397418Y308192D01*
X398209Y308799D01*
X398816Y309590D01*
X399198Y310511D01*
X399692D01*
X400074Y309590D01*
X400681Y308799D01*
X401472Y308192D01*
X402393Y307810D01*
X403382Y307680D01*
X404371Y307810D01*
X405292Y308192D01*
X406083Y308799D01*
X406690Y309590D01*
X407072Y310511D01*
X407566D01*
X407948Y309590D01*
X408555Y308799D01*
X409346Y308192D01*
X410267Y307810D01*
X411256Y307680D01*
X412245Y307810D01*
X413166Y308192D01*
X413957Y308799D01*
X414564Y309590D01*
X414946Y310511D01*
X415440D01*
X415822Y309590D01*
X416429Y308799D01*
X417220Y308192D01*
X418141Y307810D01*
X419130Y307680D01*
X420119Y307810D01*
X421040Y308192D01*
X421831Y308799D01*
X422438Y309590D01*
X422820Y310511D01*
X423314D01*
X423696Y309590D01*
X424303Y308799D01*
X425094Y308192D01*
X426015Y307810D01*
X427004Y307680D01*
X427993Y307810D01*
X428914Y308192D01*
X429705Y308799D01*
X430312Y309590D01*
X430694Y310511D01*
X431188D01*
X431570Y309590D01*
X432177Y308799D01*
X432968Y308192D01*
X433889Y307810D01*
X434878Y307680D01*
X435867Y307810D01*
X436788Y308192D01*
X437579Y308799D01*
X438186Y309590D01*
X438568Y310511D01*
X439062D01*
X439444Y309590D01*
X440051Y308799D01*
X440842Y308192D01*
X441763Y307810D01*
X442752Y307680D01*
X443741Y307810D01*
X444662Y308192D01*
X445453Y308799D01*
X446060Y309590D01*
X446442Y310511D01*
X446936D01*
X447318Y309590D01*
X447925Y308799D01*
X448716Y308192D01*
X449637Y307810D01*
X450626Y307680D01*
X451615Y307810D01*
X452536Y308192D01*
X453327Y308799D01*
X453934Y309590D01*
X454213Y310262D01*
X454713Y310162D01*
Y307713D01*
X462287D01*
Y315287D01*
X454713D01*
Y312838D01*
X454213Y312738D01*
X453934Y313410D01*
X453327Y314201D01*
X452536Y314808D01*
X451615Y315190D01*
X450626Y315320D01*
X449637Y315190D01*
X448716Y314808D01*
X447925Y314201D01*
X447318Y313410D01*
X446936Y312489D01*
X446442D01*
X446060Y313410D01*
X445453Y314201D01*
X444662Y314808D01*
X443741Y315190D01*
X442752Y315320D01*
X441763Y315190D01*
X440842Y314808D01*
X440051Y314201D01*
X439444Y313410D01*
X439062Y312489D01*
X438568D01*
X438186Y313410D01*
X437579Y314201D01*
X436788Y314808D01*
X435867Y315190D01*
X434878Y315320D01*
X433889Y315190D01*
X432968Y314808D01*
X432177Y314201D01*
X431570Y313410D01*
X431188Y312489D01*
X430694D01*
X430312Y313410D01*
X429705Y314201D01*
X428914Y314808D01*
X427993Y315190D01*
X427004Y315320D01*
X426015Y315190D01*
X425094Y314808D01*
X424303Y314201D01*
X423696Y313410D01*
X423314Y312489D01*
X422820D01*
X422438Y313410D01*
X421831Y314201D01*
X421040Y314808D01*
X420119Y315190D01*
X419130Y315320D01*
X418141Y315190D01*
X417220Y314808D01*
X416429Y314201D01*
X415822Y313410D01*
X415440Y312489D01*
X414946D01*
X414564Y313410D01*
X413957Y314201D01*
X413166Y314808D01*
X412245Y315190D01*
X411256Y315320D01*
X410267Y315190D01*
X409346Y314808D01*
X408555Y314201D01*
X407948Y313410D01*
X407566Y312489D01*
X407072D01*
X406690Y313410D01*
X406083Y314201D01*
X405292Y314808D01*
X404371Y315190D01*
X403382Y315320D01*
X402393Y315190D01*
X401472Y314808D01*
X400681Y314201D01*
X400074Y313410D01*
X399692Y312489D01*
X399198D01*
X398816Y313410D01*
X398209Y314201D01*
X397418Y314808D01*
X396497Y315190D01*
X395508Y315320D01*
X394519Y315190D01*
X393598Y314808D01*
X392807Y314201D01*
X392200Y313410D01*
X391956Y312823D01*
X391415D01*
X391128Y313517D01*
X390487Y314353D01*
X389651Y314994D01*
X388815Y315340D01*
D02*
G37*
G36*
X289319Y311840D02*
X288483Y311494D01*
X287647Y310853D01*
X287006Y310017D01*
X286660Y309181D01*
X289319D01*
Y311840D01*
D02*
G37*
G36*
X445319Y320819D02*
X444666D01*
X444928Y320427D01*
X445319Y320166D01*
Y320819D01*
D02*
G37*
G36*
X448334D02*
X447681D01*
Y320166D01*
X448072Y320427D01*
X448334Y320819D01*
D02*
G37*
G36*
X386453Y315340D02*
X385617Y314994D01*
X384781Y314353D01*
X384140Y313517D01*
X383793Y312681D01*
X386453D01*
Y315340D01*
D02*
G37*
G36*
X260500Y321820D02*
X259511Y321690D01*
X258590Y321308D01*
X257799Y320701D01*
X257192Y319910D01*
X256810Y318989D01*
X256680Y318000D01*
X256810Y317011D01*
X257192Y316090D01*
X257799Y315299D01*
X258590Y314692D01*
X259511Y314310D01*
X260500Y314180D01*
X261489Y314310D01*
X262410Y314692D01*
X263201Y315299D01*
X263808Y316090D01*
X264190Y317011D01*
X264320Y318000D01*
X264190Y318989D01*
X263808Y319910D01*
X263201Y320701D01*
X262410Y321308D01*
X261489Y321690D01*
X260500Y321820D01*
D02*
G37*
G36*
X394334Y337319D02*
X393681D01*
Y336666D01*
X394073Y336928D01*
X394334Y337319D01*
D02*
G37*
G36*
X381000Y344820D02*
X380011Y344690D01*
X379090Y344308D01*
X378299Y343701D01*
X377692Y342910D01*
X377310Y341989D01*
X377180Y341000D01*
X377310Y340011D01*
X377692Y339090D01*
X378299Y338299D01*
X379090Y337692D01*
X380011Y337310D01*
X381000Y337180D01*
X381989Y337310D01*
X382910Y337692D01*
X383701Y338299D01*
X384308Y339090D01*
X384690Y340011D01*
X384820Y341000D01*
X384690Y341989D01*
X384308Y342910D01*
X383701Y343701D01*
X382910Y344308D01*
X381989Y344690D01*
X381000Y344820D01*
D02*
G37*
G36*
X186334Y337319D02*
X185681D01*
Y336666D01*
X186073Y336928D01*
X186334Y337319D01*
D02*
G37*
G36*
X391319D02*
X390666D01*
X390928Y336928D01*
X391319Y336666D01*
Y337319D01*
D02*
G37*
G36*
Y340334D02*
X390928Y340072D01*
X390666Y339681D01*
X391319D01*
Y340334D01*
D02*
G37*
G36*
X393681D02*
Y339681D01*
X394334D01*
X394073Y340072D01*
X393681Y340334D01*
D02*
G37*
G36*
X183319D02*
X182928Y340072D01*
X182666Y339681D01*
X183319D01*
Y340334D01*
D02*
G37*
G36*
X185681D02*
Y339681D01*
X186334D01*
X186073Y340072D01*
X185681Y340334D01*
D02*
G37*
G36*
X447181Y332834D02*
Y332181D01*
X447834D01*
X447573Y332573D01*
X447181Y332834D01*
D02*
G37*
G36*
X260500Y341820D02*
X259511Y341690D01*
X258590Y341308D01*
X257799Y340701D01*
X257192Y339910D01*
X256810Y338989D01*
X256680Y338000D01*
X256810Y337011D01*
X257192Y336090D01*
X257799Y335299D01*
X258590Y334692D01*
X259511Y334310D01*
X260500Y334180D01*
X261489Y334310D01*
X262410Y334692D01*
X263201Y335299D01*
X263808Y336090D01*
X264190Y337011D01*
X264320Y338000D01*
X264190Y338989D01*
X263808Y339910D01*
X263201Y340701D01*
X262410Y341308D01*
X261489Y341690D01*
X260500Y341820D01*
D02*
G37*
G36*
X179834Y332819D02*
X176166D01*
X176379Y332500D01*
X176166Y332181D01*
X179834D01*
X179621Y332500D01*
X179834Y332819D01*
D02*
G37*
G36*
X444819Y332834D02*
X444427Y332573D01*
X444166Y332181D01*
X444819D01*
Y332834D01*
D02*
G37*
G36*
X179181Y335834D02*
Y335181D01*
X179834D01*
X179572Y335573D01*
X179181Y335834D01*
D02*
G37*
G36*
X183319Y337319D02*
X182666D01*
X182928Y336928D01*
X183319Y336666D01*
Y337319D01*
D02*
G37*
G36*
X121500Y346434D02*
X120342Y346320D01*
X119229Y345982D01*
X118203Y345434D01*
X117304Y344696D01*
X116566Y343797D01*
X116018Y342771D01*
X115680Y341658D01*
X115566Y340500D01*
X115680Y339342D01*
X116018Y338229D01*
X116566Y337203D01*
X117304Y336304D01*
X118203Y335566D01*
X119229Y335018D01*
X120342Y334680D01*
X121500Y334566D01*
X122658Y334680D01*
X123771Y335018D01*
X124797Y335566D01*
X125696Y336304D01*
X126434Y337203D01*
X126982Y338229D01*
X127320Y339342D01*
X127434Y340500D01*
X127320Y341658D01*
X126982Y342771D01*
X126434Y343797D01*
X125696Y344696D01*
X124797Y345434D01*
X123771Y345982D01*
X122658Y346320D01*
X121500Y346434D01*
D02*
G37*
G36*
X176819Y335834D02*
X176427Y335573D01*
X176166Y335181D01*
X176819D01*
Y335834D01*
D02*
G37*
G36*
X260500Y301820D02*
X259511Y301690D01*
X258590Y301308D01*
X257799Y300701D01*
X257192Y299910D01*
X256810Y298989D01*
X256680Y298000D01*
X256810Y297011D01*
X257192Y296090D01*
X257799Y295299D01*
X258590Y294692D01*
X259511Y294310D01*
X260500Y294180D01*
X261489Y294310D01*
X262410Y294692D01*
X263201Y295299D01*
X263808Y296090D01*
X264190Y297011D01*
X264320Y298000D01*
X264190Y298989D01*
X263808Y299910D01*
X263201Y300701D01*
X262410Y301308D01*
X261489Y301690D01*
X260500Y301820D01*
D02*
G37*
G36*
X320500D02*
X319511Y301690D01*
X318590Y301308D01*
X317799Y300701D01*
X317192Y299910D01*
X316810Y298989D01*
X316680Y298000D01*
X316810Y297011D01*
X317192Y296090D01*
X317799Y295299D01*
X318590Y294692D01*
X319511Y294310D01*
X320500Y294180D01*
X321489Y294310D01*
X322410Y294692D01*
X323201Y295299D01*
X323808Y296090D01*
X324190Y297011D01*
X324320Y298000D01*
X324190Y298989D01*
X323808Y299910D01*
X323201Y300701D01*
X322410Y301308D01*
X321489Y301690D01*
X320500Y301820D01*
D02*
G37*
G36*
X362819Y290334D02*
X362427Y290072D01*
X362166Y289681D01*
X362819D01*
Y290334D01*
D02*
G37*
G36*
X365181D02*
Y289681D01*
X365834D01*
X365573Y290072D01*
X365181Y290334D01*
D02*
G37*
G36*
X218332Y297238D02*
X216363D01*
X216576Y296724D01*
X217115Y296021D01*
X217817Y295482D01*
X218332Y295269D01*
Y297238D01*
D02*
G37*
G36*
X222663D02*
X220694D01*
Y295269D01*
X221208Y295482D01*
X221911Y296021D01*
X222449Y296724D01*
X222663Y297238D01*
D02*
G37*
G36*
X233819Y295819D02*
X233166D01*
X233428Y295427D01*
X233819Y295166D01*
Y295819D01*
D02*
G37*
G36*
X236834D02*
X236181D01*
Y295166D01*
X236573Y295427D01*
X236834Y295819D01*
D02*
G37*
G36*
X328819Y287334D02*
X328428Y287072D01*
X328166Y286681D01*
X328819D01*
Y287334D01*
D02*
G37*
G36*
X331181D02*
Y286681D01*
X331834D01*
X331573Y287072D01*
X331181Y287334D01*
D02*
G37*
G36*
X362819Y287319D02*
X362166D01*
X362427Y286928D01*
X362819Y286666D01*
Y287319D01*
D02*
G37*
G36*
X365834D02*
X365181D01*
Y286666D01*
X365573Y286928D01*
X365834Y287319D01*
D02*
G37*
G36*
X338319Y290334D02*
X337928Y290072D01*
X337666Y289681D01*
X338319D01*
Y290334D01*
D02*
G37*
G36*
X340681D02*
Y289681D01*
X341334D01*
X341073Y290072D01*
X340681Y290334D01*
D02*
G37*
G36*
X125319Y288834D02*
X124927Y288573D01*
X124666Y288181D01*
X125319D01*
Y288834D01*
D02*
G37*
G36*
X127681D02*
Y288181D01*
X128334D01*
X128073Y288573D01*
X127681Y288834D01*
D02*
G37*
G36*
X289319Y306819D02*
X286660D01*
X287006Y305983D01*
X287647Y305147D01*
X288483Y304506D01*
X289319Y304160D01*
Y306819D01*
D02*
G37*
G36*
X294340D02*
X291681D01*
Y304160D01*
X292517Y304506D01*
X293353Y305147D01*
X293994Y305983D01*
X294340Y306819D01*
D02*
G37*
G36*
X359319Y302834D02*
X358927Y302572D01*
X358666Y302181D01*
X359319D01*
Y302834D01*
D02*
G37*
G36*
X361681D02*
Y302181D01*
X362334D01*
X362072Y302572D01*
X361681Y302834D01*
D02*
G37*
G36*
X280500Y311820D02*
X279511Y311690D01*
X278590Y311308D01*
X277799Y310701D01*
X277192Y309910D01*
X276810Y308989D01*
X276680Y308000D01*
X276810Y307011D01*
X277192Y306090D01*
X277799Y305299D01*
X278590Y304692D01*
X279511Y304310D01*
X280500Y304180D01*
X281489Y304310D01*
X282410Y304692D01*
X283201Y305299D01*
X283808Y306090D01*
X284190Y307011D01*
X284320Y308000D01*
X284190Y308989D01*
X283808Y309910D01*
X283201Y310701D01*
X282410Y311308D01*
X281489Y311690D01*
X280500Y311820D01*
D02*
G37*
G36*
X386453Y310319D02*
X383793D01*
X384140Y309483D01*
X384781Y308647D01*
X385617Y308006D01*
X386453Y307660D01*
Y310319D01*
D02*
G37*
G36*
X260500Y311820D02*
X259511Y311690D01*
X258590Y311308D01*
X257799Y310701D01*
X257192Y309910D01*
X256810Y308989D01*
X256680Y308000D01*
X256810Y307011D01*
X257192Y306090D01*
X257799Y305299D01*
X258590Y304692D01*
X259511Y304310D01*
X260500Y304180D01*
X261489Y304310D01*
X262410Y304692D01*
X263201Y305299D01*
X263808Y306090D01*
X264190Y307011D01*
X264320Y308000D01*
X264190Y308989D01*
X263808Y309910D01*
X263201Y310701D01*
X262410Y311308D01*
X261489Y311690D01*
X260500Y311820D01*
D02*
G37*
G36*
X270500D02*
X269511Y311690D01*
X268590Y311308D01*
X267799Y310701D01*
X267192Y309910D01*
X266810Y308989D01*
X266680Y308000D01*
X266810Y307011D01*
X267192Y306090D01*
X267799Y305299D01*
X268590Y304692D01*
X269511Y304310D01*
X270500Y304180D01*
X271489Y304310D01*
X272410Y304692D01*
X273201Y305299D01*
X273808Y306090D01*
X274190Y307011D01*
X274320Y308000D01*
X274190Y308989D01*
X273808Y309910D01*
X273201Y310701D01*
X272410Y311308D01*
X271489Y311690D01*
X270500Y311820D01*
D02*
G37*
G36*
X236181Y298834D02*
Y298181D01*
X236834D01*
X236573Y298572D01*
X236181Y298834D01*
D02*
G37*
G36*
X359319Y299819D02*
X358666D01*
X358927Y299428D01*
X359319Y299166D01*
Y299819D01*
D02*
G37*
G36*
X202977Y301569D02*
X196678D01*
Y295270D01*
X202977D01*
Y301569D01*
D02*
G37*
G36*
X233819Y298834D02*
X233428Y298572D01*
X233166Y298181D01*
X233819D01*
Y298834D01*
D02*
G37*
G36*
X218332Y301569D02*
X217817Y301356D01*
X217115Y300817D01*
X216576Y300115D01*
X216363Y299601D01*
X218332D01*
Y301569D01*
D02*
G37*
G36*
X220694D02*
Y299601D01*
X222663D01*
X222449Y300115D01*
X221911Y300817D01*
X221208Y301356D01*
X220694Y301569D01*
D02*
G37*
G36*
X362334Y299819D02*
X361681D01*
Y299166D01*
X362072Y299428D01*
X362334Y299819D01*
D02*
G37*
G36*
X349000Y309507D02*
X348232Y309354D01*
X347581Y308919D01*
X347146Y308268D01*
X346993Y307500D01*
X347095Y306987D01*
Y302929D01*
X347081Y302919D01*
X346646Y302268D01*
X346493Y301500D01*
X346646Y300732D01*
X347081Y300081D01*
X347732Y299646D01*
X348500Y299493D01*
X349268Y299646D01*
X349919Y300081D01*
X350354Y300732D01*
X350507Y301500D01*
X350354Y302268D01*
X349919Y302919D01*
X349905Y302929D01*
Y305737D01*
X350419Y306081D01*
X350854Y306732D01*
X351007Y307500D01*
X350854Y308268D01*
X350419Y308919D01*
X349768Y309354D01*
X349000Y309507D01*
D02*
G37*
G36*
X291819Y377319D02*
X291166D01*
X291427Y376927D01*
X291819Y376666D01*
Y377319D01*
D02*
G37*
G36*
X294834D02*
X294181D01*
Y376666D01*
X294572Y376927D01*
X294834Y377319D01*
D02*
G37*
G36*
X180334Y375319D02*
X176666D01*
X176927Y374927D01*
X177193Y374750D01*
Y374250D01*
X176927Y374073D01*
X176666Y373681D01*
X180334D01*
X180072Y374073D01*
X179807Y374250D01*
Y374750D01*
X180072Y374927D01*
X180334Y375319D01*
D02*
G37*
G36*
X381000Y384190D02*
X380011Y384060D01*
X379090Y383678D01*
X378299Y383071D01*
X377692Y382280D01*
X377310Y381359D01*
X377180Y380370D01*
X377310Y379381D01*
X377692Y378460D01*
X378299Y377669D01*
X379090Y377062D01*
X380011Y376680D01*
X381000Y376550D01*
X381989Y376680D01*
X382910Y377062D01*
X383701Y377669D01*
X384308Y378460D01*
X384690Y379381D01*
X384820Y380370D01*
X384690Y381359D01*
X384308Y382280D01*
X383701Y383071D01*
X382910Y383678D01*
X381989Y384060D01*
X381000Y384190D01*
D02*
G37*
G36*
X121500Y389434D02*
X120342Y389320D01*
X119229Y388982D01*
X118203Y388434D01*
X117304Y387696D01*
X116566Y386797D01*
X116018Y385771D01*
X115680Y384658D01*
X115566Y383500D01*
X115680Y382342D01*
X116018Y381229D01*
X116566Y380203D01*
X117304Y379304D01*
X118203Y378566D01*
X119229Y378018D01*
X120342Y377680D01*
X121500Y377566D01*
X122658Y377680D01*
X123771Y378018D01*
X124797Y378566D01*
X125696Y379304D01*
X126434Y380203D01*
X126982Y381229D01*
X127320Y382342D01*
X127434Y383500D01*
X127320Y384658D01*
X126982Y385771D01*
X126434Y386797D01*
X125696Y387696D01*
X124797Y388434D01*
X123771Y388982D01*
X122658Y389320D01*
X121500Y389434D01*
D02*
G37*
G36*
X177319Y378334D02*
X176927Y378073D01*
X176666Y377681D01*
X177319D01*
Y378334D01*
D02*
G37*
G36*
X351819Y377319D02*
X351166D01*
X351428Y376927D01*
X351819Y376666D01*
Y377319D01*
D02*
G37*
G36*
X358334D02*
X357681D01*
Y376666D01*
X358072Y376927D01*
X358334Y377319D01*
D02*
G37*
G36*
X379819Y374368D02*
X378983Y374022D01*
X378147Y373380D01*
X377506Y372545D01*
X377160Y371709D01*
X379819D01*
Y374368D01*
D02*
G37*
G36*
X382181D02*
Y371709D01*
X384840D01*
X384494Y372545D01*
X383853Y373380D01*
X383017Y374022D01*
X382181Y374368D01*
D02*
G37*
G36*
X284319Y371834D02*
X283927Y371572D01*
X283666Y371181D01*
X284319D01*
Y371834D01*
D02*
G37*
G36*
X286681D02*
Y371181D01*
X287334D01*
X287072Y371572D01*
X286681Y371834D01*
D02*
G37*
G36*
X276819Y373834D02*
X276428Y373572D01*
X276166Y373181D01*
X276819D01*
Y373834D01*
D02*
G37*
G36*
X279181D02*
Y373181D01*
X279834D01*
X279573Y373572D01*
X279181Y373834D01*
D02*
G37*
G36*
X353819Y372834D02*
X353428Y372572D01*
X353166Y372181D01*
X353819D01*
Y372834D01*
D02*
G37*
G36*
X356181D02*
Y372181D01*
X356834D01*
X356573Y372572D01*
X356181Y372834D01*
D02*
G37*
G36*
X179681Y378334D02*
Y377681D01*
X180334D01*
X180072Y378073D01*
X179681Y378334D01*
D02*
G37*
G36*
X344319Y383819D02*
X343666D01*
X343928Y383428D01*
X344319Y383166D01*
Y383819D01*
D02*
G37*
G36*
X184319Y384334D02*
X183928Y384072D01*
X183666Y383681D01*
X184319D01*
Y384334D01*
D02*
G37*
G36*
X351334Y381319D02*
X350681D01*
Y380666D01*
X351073Y380927D01*
X351334Y381319D01*
D02*
G37*
G36*
X261500Y439837D02*
X259989Y439638D01*
X258581Y439055D01*
X257372Y438128D01*
X256445Y436919D01*
X255862Y435511D01*
X255663Y434000D01*
Y427114D01*
X255181Y426856D01*
Y425000D01*
Y423144D01*
X255663Y422886D01*
Y396418D01*
X254082Y394837D01*
X248500D01*
X246989Y394638D01*
X245581Y394055D01*
X244372Y393128D01*
X243445Y391919D01*
X242862Y390511D01*
X242663Y389000D01*
X242862Y387489D01*
X243445Y386081D01*
X244372Y384872D01*
X245581Y383945D01*
X246989Y383362D01*
X248500Y383163D01*
X256500D01*
X258011Y383362D01*
X259006Y383774D01*
X259419Y383945D01*
X260628Y384872D01*
X265628Y389872D01*
X266555Y391081D01*
X267138Y392489D01*
X267337Y394000D01*
Y424643D01*
X267337Y424643D01*
Y425357D01*
X267337Y425357D01*
Y434000D01*
X267138Y435511D01*
X266555Y436919D01*
X265628Y438128D01*
X264419Y439055D01*
X263011Y439638D01*
X261500Y439837D01*
D02*
G37*
G36*
X381000Y394033D02*
X380011Y393902D01*
X379090Y393521D01*
X378299Y392914D01*
X377692Y392123D01*
X377310Y391201D01*
X377180Y390213D01*
X377310Y389224D01*
X377692Y388303D01*
X378299Y387511D01*
X379090Y386904D01*
X380011Y386523D01*
X381000Y386392D01*
X381989Y386523D01*
X382910Y386904D01*
X383701Y387511D01*
X384308Y388303D01*
X384690Y389224D01*
X384820Y390213D01*
X384690Y391201D01*
X384308Y392123D01*
X383701Y392914D01*
X382910Y393521D01*
X381989Y393902D01*
X381000Y394033D01*
D02*
G37*
G36*
X350319Y387834D02*
X349927Y387573D01*
X349666Y387181D01*
X350319D01*
Y387834D01*
D02*
G37*
G36*
X186681Y384334D02*
Y383681D01*
X187334D01*
X187073Y384072D01*
X186681Y384334D01*
D02*
G37*
G36*
X344319Y386834D02*
X343928Y386573D01*
X343666Y386181D01*
X344319D01*
Y386834D01*
D02*
G37*
G36*
X351819Y380334D02*
X351428Y380072D01*
X351166Y379681D01*
X351819D01*
Y380334D01*
D02*
G37*
G36*
X357681D02*
Y379681D01*
X358334D01*
X358072Y380072D01*
X357681Y380334D01*
D02*
G37*
G36*
X291819D02*
X291427Y380072D01*
X291166Y379681D01*
X291819D01*
Y380334D01*
D02*
G37*
G36*
X294181D02*
Y379681D01*
X294834D01*
X294572Y380072D01*
X294181Y380334D01*
D02*
G37*
G36*
X187334Y381319D02*
X186681D01*
Y380666D01*
X187073Y380927D01*
X187334Y381319D01*
D02*
G37*
G36*
X346681Y386834D02*
Y385000D01*
Y383166D01*
X346932Y383334D01*
X347390Y383071D01*
X347276Y382500D01*
X347445Y381649D01*
X347927Y380927D01*
X348319Y380666D01*
Y382500D01*
X349500D01*
Y383681D01*
X351739D01*
X351828Y383841D01*
X352351Y383945D01*
X353073Y384427D01*
X353334Y384819D01*
X349261D01*
X349172Y384659D01*
X348649Y384555D01*
X348068Y384166D01*
X347610Y384429D01*
X347724Y385000D01*
X347555Y385851D01*
X347073Y386573D01*
X346681Y386834D01*
D02*
G37*
G36*
X355319Y380334D02*
X354927Y380072D01*
X354573D01*
X354181Y380334D01*
Y378500D01*
Y376666D01*
X354573Y376927D01*
X354927D01*
X355319Y376666D01*
Y378500D01*
Y380334D01*
D02*
G37*
G36*
X184319Y381319D02*
X183666D01*
X183928Y380927D01*
X184319Y380666D01*
Y381319D01*
D02*
G37*
G36*
X320500Y361820D02*
X319511Y361690D01*
X318590Y361308D01*
X317799Y360701D01*
X317192Y359910D01*
X316810Y358989D01*
X316680Y358000D01*
X316810Y357011D01*
X317192Y356090D01*
X317799Y355299D01*
X318590Y354692D01*
X319511Y354310D01*
X320500Y354180D01*
X321489Y354310D01*
X322410Y354692D01*
X323201Y355299D01*
X323808Y356090D01*
X324190Y357011D01*
X324320Y358000D01*
X324190Y358989D01*
X323808Y359910D01*
X323201Y360701D01*
X322410Y361308D01*
X321489Y361690D01*
X320500Y361820D01*
D02*
G37*
G36*
X260500D02*
X259511Y361690D01*
X258590Y361308D01*
X257799Y360701D01*
X257192Y359910D01*
X256810Y358989D01*
X256680Y358000D01*
X256810Y357011D01*
X257192Y356090D01*
X257799Y355299D01*
X258590Y354692D01*
X259511Y354310D01*
X260500Y354180D01*
X261489Y354310D01*
X262410Y354692D01*
X263201Y355299D01*
X263808Y356090D01*
X264190Y357011D01*
X264320Y358000D01*
X264190Y358989D01*
X263808Y359910D01*
X263201Y360701D01*
X262410Y361308D01*
X261489Y361690D01*
X260500Y361820D01*
D02*
G37*
G36*
X368181Y352334D02*
Y351681D01*
X368834D01*
X368572Y352073D01*
X368181Y352334D01*
D02*
G37*
G36*
X121500Y366434D02*
X120342Y366320D01*
X119229Y365982D01*
X118203Y365434D01*
X117304Y364696D01*
X116566Y363797D01*
X116018Y362771D01*
X115680Y361658D01*
X115566Y360500D01*
X115680Y359342D01*
X116018Y358229D01*
X116566Y357203D01*
X117304Y356304D01*
X118203Y355566D01*
X119229Y355018D01*
X120342Y354680D01*
X121500Y354566D01*
X122658Y354680D01*
X123771Y355018D01*
X124797Y355566D01*
X125696Y356304D01*
X126434Y357203D01*
X126982Y358229D01*
X127320Y359342D01*
X127434Y360500D01*
X127320Y361658D01*
X126982Y362771D01*
X126434Y363797D01*
X125696Y364696D01*
X124797Y365434D01*
X123771Y365982D01*
X122658Y366320D01*
X121500Y366434D01*
D02*
G37*
G36*
X406739Y341819D02*
X404181D01*
Y340204D01*
X404228D01*
X404952Y340300D01*
X405626Y340579D01*
X406205Y341023D01*
X406649Y341602D01*
X406739Y341819D01*
D02*
G37*
G36*
X363334Y356319D02*
X362681D01*
Y355666D01*
X363072Y355927D01*
X363334Y356319D01*
D02*
G37*
G36*
X360319D02*
X359666D01*
X359928Y355927D01*
X360319Y355666D01*
Y356319D01*
D02*
G37*
G36*
X365819Y352334D02*
X365427Y352073D01*
X365166Y351681D01*
X365819D01*
Y352334D01*
D02*
G37*
G36*
X357500Y344507D02*
X356732Y344354D01*
X356081Y343919D01*
X355646Y343268D01*
X355493Y342500D01*
X355496Y342483D01*
X352418Y339405D01*
X347429D01*
X347419Y339419D01*
X346768Y339854D01*
X346000Y340007D01*
X345232Y339854D01*
X344581Y339419D01*
X344146Y338768D01*
X343993Y338000D01*
X344146Y337232D01*
X344581Y336581D01*
X345232Y336146D01*
X346000Y335993D01*
X346768Y336146D01*
X347419Y336581D01*
X347429Y336595D01*
X353000D01*
X353538Y336702D01*
X353993Y337007D01*
X357483Y340496D01*
X357500Y340493D01*
X358268Y340646D01*
X358919Y341081D01*
X359354Y341732D01*
X359507Y342500D01*
X359354Y343268D01*
X358919Y343919D01*
X358268Y344354D01*
X357500Y344507D01*
D02*
G37*
G36*
X260500Y351820D02*
X259511Y351690D01*
X258590Y351308D01*
X257799Y350701D01*
X257192Y349910D01*
X256810Y348989D01*
X256680Y348000D01*
X256810Y347011D01*
X257192Y346090D01*
X257799Y345299D01*
X258590Y344692D01*
X259511Y344310D01*
X260500Y344180D01*
X261489Y344310D01*
X262410Y344692D01*
X263201Y345299D01*
X263808Y346090D01*
X264190Y347011D01*
X264320Y348000D01*
X264190Y348989D01*
X263808Y349910D01*
X263201Y350701D01*
X262410Y351308D01*
X261489Y351690D01*
X260500Y351820D01*
D02*
G37*
G36*
X342000Y349007D02*
X341232Y348854D01*
X340581Y348419D01*
X340146Y347768D01*
X339993Y347000D01*
X340146Y346232D01*
X340581Y345581D01*
X341232Y345146D01*
X342000Y344993D01*
X342768Y345146D01*
X343419Y345581D01*
X343429Y345595D01*
X358918D01*
X359996Y344517D01*
X359993Y344500D01*
X360146Y343732D01*
X360581Y343081D01*
X361232Y342646D01*
X362000Y342493D01*
X362768Y342646D01*
X363419Y343081D01*
X363854Y343732D01*
X364007Y344500D01*
X363854Y345268D01*
X363419Y345919D01*
X362768Y346354D01*
X362000Y346507D01*
X361983Y346504D01*
X360493Y347993D01*
X360038Y348298D01*
X359500Y348405D01*
X343429D01*
X343419Y348419D01*
X342768Y348854D01*
X342000Y349007D01*
D02*
G37*
G36*
X381000Y354663D02*
X380011Y354532D01*
X379090Y354151D01*
X378299Y353544D01*
X377692Y352753D01*
X377483Y352248D01*
X374843D01*
X374305Y352140D01*
X373849Y351836D01*
X351418Y329405D01*
X349929D01*
X349919Y329419D01*
X349268Y329854D01*
X348500Y330007D01*
X347732Y329854D01*
X347081Y329419D01*
X346646Y328768D01*
X346493Y328000D01*
X346646Y327232D01*
X347081Y326581D01*
X347732Y326146D01*
X348500Y325993D01*
X349268Y326146D01*
X349919Y326581D01*
X349929Y326595D01*
X352000D01*
X352538Y326702D01*
X352993Y327007D01*
X356152Y330165D01*
X356672Y330030D01*
X356695Y330001D01*
X356595Y329500D01*
Y316000D01*
X356702Y315462D01*
X357007Y315007D01*
X357579Y314434D01*
X357493Y314000D01*
X357646Y313232D01*
X358081Y312581D01*
X358732Y312146D01*
X359500Y311993D01*
X360268Y312146D01*
X360919Y312581D01*
X361354Y313232D01*
X361507Y314000D01*
X361354Y314768D01*
X360919Y315419D01*
X360749Y315533D01*
X360944Y316004D01*
X361000Y315993D01*
X361768Y316146D01*
X362419Y316581D01*
X362854Y317232D01*
X363007Y318000D01*
X362854Y318768D01*
X362419Y319419D01*
X362405Y319429D01*
Y324418D01*
X371993Y334007D01*
X372298Y334462D01*
X372356Y334755D01*
X372419Y334797D01*
X372854Y335448D01*
X373007Y336216D01*
X372854Y336984D01*
X372419Y337635D01*
X371768Y338070D01*
X371000Y338223D01*
X370313Y338087D01*
X370047Y338279D01*
X369897Y338448D01*
X370007Y339000D01*
X369854Y339768D01*
X369419Y340419D01*
X368768Y340854D01*
X368000Y341007D01*
X367627Y340933D01*
X367380Y341394D01*
X375425Y349438D01*
X377483D01*
X377692Y348933D01*
X378299Y348141D01*
X379090Y347534D01*
X380011Y347153D01*
X381000Y347022D01*
X381989Y347153D01*
X382910Y347534D01*
X383701Y348141D01*
X384308Y348933D01*
X384690Y349854D01*
X384820Y350842D01*
X384690Y351831D01*
X384308Y352753D01*
X383701Y353544D01*
X382910Y354151D01*
X381989Y354532D01*
X381000Y354663D01*
D02*
G37*
G36*
X311500Y353905D02*
X305000D01*
X304462Y353798D01*
X304007Y353493D01*
X300418Y349905D01*
X294929D01*
X294919Y349919D01*
X294268Y350354D01*
X293500Y350507D01*
X292732Y350354D01*
X292081Y349919D01*
X291646Y349268D01*
X291493Y348500D01*
X291646Y347732D01*
X292081Y347081D01*
X292732Y346646D01*
X293500Y346493D01*
X294268Y346646D01*
X294919Y347081D01*
X294929Y347095D01*
X301000D01*
X301538Y347202D01*
X301993Y347507D01*
X303031Y348544D01*
X303526Y348332D01*
X303646Y347732D01*
X304081Y347081D01*
X304095Y347071D01*
Y310358D01*
X303595Y310188D01*
X303201Y310701D01*
X302410Y311308D01*
X301489Y311690D01*
X300500Y311820D01*
X299511Y311690D01*
X298590Y311308D01*
X297799Y310701D01*
X297192Y309910D01*
X296810Y308989D01*
X296680Y308000D01*
X296810Y307011D01*
X297192Y306090D01*
X297799Y305299D01*
X298590Y304692D01*
X299511Y304310D01*
X300500Y304180D01*
X301489Y304310D01*
X302410Y304692D01*
X303201Y305299D01*
X303595Y305812D01*
X304095Y305642D01*
Y267929D01*
X304081Y267919D01*
X303646Y267268D01*
X303493Y266500D01*
X303646Y265732D01*
X304081Y265081D01*
X304732Y264646D01*
X305500Y264493D01*
X306268Y264646D01*
X306919Y265081D01*
X307354Y265732D01*
X307507Y266500D01*
X307354Y267268D01*
X306919Y267919D01*
X306905Y267929D01*
Y272692D01*
X307405Y272844D01*
X307581Y272581D01*
X308232Y272146D01*
X309000Y271993D01*
X309768Y272146D01*
X310419Y272581D01*
X310854Y273232D01*
X311007Y274000D01*
X310854Y274768D01*
X310419Y275419D01*
X310405Y275429D01*
Y294418D01*
X315993Y300007D01*
X316298Y300462D01*
X316405Y301000D01*
Y306683D01*
X316905Y306782D01*
X317192Y306090D01*
X317799Y305299D01*
X318590Y304692D01*
X319511Y304310D01*
X320500Y304180D01*
X321489Y304310D01*
X322410Y304692D01*
X323201Y305299D01*
X323808Y306090D01*
X324190Y307011D01*
X324320Y308000D01*
X324190Y308989D01*
X323808Y309910D01*
X323201Y310701D01*
X322410Y311308D01*
X321489Y311690D01*
X320500Y311820D01*
X319511Y311690D01*
X318590Y311308D01*
X317799Y310701D01*
X317192Y309910D01*
X316905Y309218D01*
X316405Y309317D01*
Y316683D01*
X316905Y316782D01*
X317192Y316090D01*
X317799Y315299D01*
X318590Y314692D01*
X319511Y314310D01*
X320500Y314180D01*
X321489Y314310D01*
X322410Y314692D01*
X323201Y315299D01*
X323808Y316090D01*
X324190Y317011D01*
X324320Y318000D01*
X324190Y318989D01*
X323808Y319910D01*
X323201Y320701D01*
X322410Y321308D01*
X321489Y321690D01*
X320500Y321820D01*
X319511Y321690D01*
X318590Y321308D01*
X317799Y320701D01*
X317192Y319910D01*
X316905Y319218D01*
X316405Y319317D01*
Y326683D01*
X316905Y326782D01*
X317192Y326090D01*
X317799Y325299D01*
X318590Y324692D01*
X319511Y324310D01*
X320500Y324180D01*
X321489Y324310D01*
X322410Y324692D01*
X323201Y325299D01*
X323808Y326090D01*
X324190Y327011D01*
X324320Y328000D01*
X324190Y328989D01*
X323808Y329910D01*
X323201Y330701D01*
X322410Y331308D01*
X321489Y331690D01*
X320500Y331820D01*
X319511Y331690D01*
X318590Y331308D01*
X317799Y330701D01*
X317192Y329910D01*
X316905Y329218D01*
X316405Y329317D01*
Y336683D01*
X316905Y336782D01*
X317192Y336090D01*
X317799Y335299D01*
X318590Y334692D01*
X319511Y334310D01*
X320500Y334180D01*
X321489Y334310D01*
X322410Y334692D01*
X323201Y335299D01*
X323808Y336090D01*
X324190Y337011D01*
X324320Y338000D01*
X324190Y338989D01*
X323808Y339910D01*
X323201Y340701D01*
X322410Y341308D01*
X321489Y341690D01*
X320500Y341820D01*
X319511Y341690D01*
X318590Y341308D01*
X317799Y340701D01*
X317192Y339910D01*
X316905Y339218D01*
X316405Y339317D01*
Y346683D01*
X316905Y346782D01*
X317192Y346090D01*
X317799Y345299D01*
X318590Y344692D01*
X319511Y344310D01*
X320500Y344180D01*
X321489Y344310D01*
X322410Y344692D01*
X323201Y345299D01*
X323808Y346090D01*
X324190Y347011D01*
X324320Y348000D01*
X324190Y348989D01*
X323808Y349910D01*
X323201Y350701D01*
X322410Y351308D01*
X321489Y351690D01*
X320500Y351820D01*
X319511Y351690D01*
X318590Y351308D01*
X317799Y350701D01*
X317192Y349910D01*
X316882Y349163D01*
X316362Y349214D01*
X316298Y349538D01*
X315993Y349993D01*
X312493Y353493D01*
X312038Y353798D01*
X311500Y353905D01*
D02*
G37*
G36*
X368834Y349319D02*
X368181D01*
Y348666D01*
X368572Y348927D01*
X368834Y349319D01*
D02*
G37*
G36*
X365819D02*
X365166D01*
X365427Y348927D01*
X365819Y348666D01*
Y349319D01*
D02*
G37*
G36*
X250319Y358319D02*
X249666D01*
X249927Y357927D01*
X250319Y357666D01*
Y358319D01*
D02*
G37*
G36*
X276819Y370819D02*
X276166D01*
X276428Y370427D01*
X276819Y370166D01*
Y370819D01*
D02*
G37*
G36*
X356834Y369819D02*
X356181D01*
Y369166D01*
X356573Y369427D01*
X356834Y369819D01*
D02*
G37*
G36*
X353819D02*
X353166D01*
X353428Y369427D01*
X353819Y369166D01*
Y369819D01*
D02*
G37*
G36*
X401819Y341819D02*
X399261D01*
X399351Y341602D01*
X399795Y341023D01*
X400374Y340579D01*
X401048Y340300D01*
X401772Y340204D01*
X401819D01*
Y341819D01*
D02*
G37*
G36*
X180334Y371319D02*
X179681D01*
Y370666D01*
X180072Y370928D01*
X180334Y371319D01*
D02*
G37*
G36*
X177319D02*
X176666D01*
X176927Y370928D01*
X177319Y370666D01*
Y371319D01*
D02*
G37*
G36*
X279834Y370819D02*
X279181D01*
Y370166D01*
X279573Y370427D01*
X279834Y370819D01*
D02*
G37*
G36*
X287334Y368819D02*
X286681D01*
Y368166D01*
X287072Y368427D01*
X287334Y368819D01*
D02*
G37*
G36*
X362681Y359334D02*
Y358681D01*
X363334D01*
X363072Y359072D01*
X362681Y359334D01*
D02*
G37*
G36*
X360319D02*
X359928Y359072D01*
X359666Y358681D01*
X360319D01*
Y359334D01*
D02*
G37*
G36*
X253334Y358319D02*
X252681D01*
Y357666D01*
X253073Y357927D01*
X253334Y358319D01*
D02*
G37*
G36*
X250319Y361334D02*
X249927Y361072D01*
X249666Y360681D01*
X250319D01*
Y361334D01*
D02*
G37*
G36*
X284319Y368819D02*
X283666D01*
X283927Y368427D01*
X284319Y368166D01*
Y368819D01*
D02*
G37*
G36*
X406978Y396819D02*
X399022D01*
X399109Y396378D01*
X399526Y395755D01*
X399959Y395465D01*
X400027Y394927D01*
X400011Y394875D01*
X399946Y394825D01*
X399536Y394291D01*
X399278Y393668D01*
X399190Y393000D01*
X399278Y392332D01*
X399536Y391709D01*
X399946Y391175D01*
X400481Y390765D01*
Y390235D01*
X399946Y389825D01*
X399536Y389291D01*
X399278Y388668D01*
X399190Y388000D01*
X399278Y387332D01*
X399536Y386709D01*
X399946Y386175D01*
X400481Y385765D01*
Y385235D01*
X399946Y384825D01*
X399536Y384291D01*
X399278Y383668D01*
X399190Y383000D01*
X399278Y382332D01*
X399536Y381709D01*
X399946Y381175D01*
X400481Y380765D01*
Y380235D01*
X399946Y379825D01*
X399536Y379291D01*
X399278Y378668D01*
X399190Y378000D01*
X399278Y377332D01*
X399536Y376709D01*
X399946Y376175D01*
X400481Y375765D01*
Y375235D01*
X399946Y374825D01*
X399536Y374291D01*
X399278Y373668D01*
X399190Y373000D01*
X399278Y372332D01*
X399536Y371709D01*
X399946Y371175D01*
X400481Y370765D01*
Y370235D01*
X399946Y369825D01*
X399536Y369291D01*
X399278Y368668D01*
X399190Y368000D01*
X399278Y367332D01*
X399536Y366709D01*
X399946Y366175D01*
X400481Y365765D01*
Y365235D01*
X399946Y364825D01*
X399624Y364405D01*
X385458D01*
X383807Y366056D01*
X383351Y366361D01*
X382911Y366448D01*
X382826Y366732D01*
X382836Y366958D01*
X383017Y367034D01*
X383853Y367675D01*
X384494Y368510D01*
X384840Y369346D01*
X377160D01*
X377506Y368510D01*
X378147Y367675D01*
X378983Y367034D01*
X379141Y366968D01*
X379042Y366468D01*
X375846D01*
X375268Y366854D01*
X374500Y367007D01*
X373732Y366854D01*
X373081Y366419D01*
X372646Y365768D01*
X372493Y365000D01*
X372646Y364232D01*
X373081Y363581D01*
X373732Y363146D01*
X374500Y362993D01*
X375268Y363146D01*
X375919Y363581D01*
X375971Y363658D01*
X377877D01*
X378124Y363158D01*
X377692Y362595D01*
X377310Y361674D01*
X377180Y360685D01*
X377310Y359696D01*
X377692Y358775D01*
X378299Y357984D01*
X379090Y357377D01*
X380011Y356995D01*
X381000Y356865D01*
X381989Y356995D01*
X382910Y357377D01*
X383701Y357984D01*
X384308Y358775D01*
X384690Y359696D01*
X384820Y360685D01*
X384760Y361143D01*
X385205Y361595D01*
X399624D01*
X399946Y361175D01*
X400481Y360765D01*
Y360235D01*
X399946Y359825D01*
X399536Y359291D01*
X399278Y358668D01*
X399190Y358000D01*
X399278Y357332D01*
X399536Y356709D01*
X399946Y356175D01*
X400481Y355765D01*
Y355235D01*
X399946Y354825D01*
X399536Y354291D01*
X399278Y353668D01*
X399190Y353000D01*
X399278Y352332D01*
X399536Y351709D01*
X399946Y351175D01*
X400481Y350765D01*
Y350235D01*
X399946Y349825D01*
X399536Y349291D01*
X399278Y348668D01*
X399190Y348000D01*
X399278Y347332D01*
X399536Y346709D01*
X399946Y346175D01*
X400276Y345922D01*
X400310Y345748D01*
X400273Y345360D01*
X400259Y345333D01*
X399795Y344977D01*
X399351Y344398D01*
X399261Y344181D01*
X406739D01*
X406649Y344398D01*
X406205Y344977D01*
X405741Y345333D01*
X405727Y345360D01*
X405690Y345748D01*
X405724Y345922D01*
X406053Y346175D01*
X406464Y346709D01*
X406721Y347332D01*
X406810Y348000D01*
X406721Y348668D01*
X406464Y349291D01*
X406053Y349825D01*
X405519Y350235D01*
Y350765D01*
X406053Y351175D01*
X406464Y351709D01*
X406721Y352332D01*
X406810Y353000D01*
X406721Y353668D01*
X406464Y354291D01*
X406053Y354825D01*
X405519Y355235D01*
Y355765D01*
X406053Y356175D01*
X406464Y356709D01*
X406721Y357332D01*
X406810Y358000D01*
X406721Y358668D01*
X406464Y359291D01*
X406053Y359825D01*
X405519Y360235D01*
Y360765D01*
X406053Y361175D01*
X406464Y361709D01*
X406721Y362332D01*
X406810Y363000D01*
X406721Y363668D01*
X406464Y364291D01*
X406053Y364825D01*
X405519Y365235D01*
Y365765D01*
X406053Y366175D01*
X406464Y366709D01*
X406721Y367332D01*
X406810Y368000D01*
X406721Y368668D01*
X406464Y369291D01*
X406053Y369825D01*
X405519Y370235D01*
Y370765D01*
X406053Y371175D01*
X406464Y371709D01*
X406721Y372332D01*
X406810Y373000D01*
X406721Y373668D01*
X406464Y374291D01*
X406053Y374825D01*
X405519Y375235D01*
Y375765D01*
X406053Y376175D01*
X406464Y376709D01*
X406721Y377332D01*
X406810Y378000D01*
X406721Y378668D01*
X406464Y379291D01*
X406053Y379825D01*
X405519Y380235D01*
Y380765D01*
X406053Y381175D01*
X406464Y381709D01*
X406721Y382332D01*
X406810Y383000D01*
X406721Y383668D01*
X406464Y384291D01*
X406053Y384825D01*
X405519Y385235D01*
Y385765D01*
X406053Y386175D01*
X406464Y386709D01*
X406721Y387332D01*
X406810Y388000D01*
X406721Y388668D01*
X406464Y389291D01*
X406053Y389825D01*
X405519Y390235D01*
Y390765D01*
X406053Y391175D01*
X406464Y391709D01*
X406721Y392332D01*
X406810Y393000D01*
X406721Y393668D01*
X406464Y394291D01*
X406053Y394825D01*
X405989Y394875D01*
X405973Y394927D01*
X406041Y395465D01*
X406474Y395755D01*
X406891Y396378D01*
X406978Y396819D01*
D02*
G37*
G36*
X252681Y361334D02*
Y360681D01*
X253334D01*
X253073Y361072D01*
X252681Y361334D01*
D02*
G37*
%LPD*%
G36*
X313595Y348418D02*
Y310943D01*
X313095Y310783D01*
X312410Y311308D01*
X311489Y311690D01*
X310500Y311820D01*
X309511Y311690D01*
X308590Y311308D01*
X307799Y310701D01*
X307405Y310188D01*
X306905Y310358D01*
Y347071D01*
X306919Y347081D01*
X307354Y347732D01*
X307507Y348500D01*
X307354Y349268D01*
X306919Y349919D01*
X306268Y350354D01*
X306081Y350392D01*
X305849Y350947D01*
X305946Y351095D01*
X310918D01*
X313595Y348418D01*
D02*
G37*
G36*
X307799Y305299D02*
X308590Y304692D01*
X309511Y304310D01*
X310500Y304180D01*
X311489Y304310D01*
X312410Y304692D01*
X313095Y305217D01*
X313595Y305057D01*
Y301582D01*
X308007Y295993D01*
X307702Y295538D01*
X307595Y295000D01*
Y275598D01*
X307405Y275427D01*
X306905Y275650D01*
Y305642D01*
X307405Y305812D01*
X307799Y305299D01*
D02*
G37*
G36*
X368953Y336937D02*
X369103Y336768D01*
X368993Y336216D01*
X369146Y335448D01*
X369272Y335259D01*
X360007Y325993D01*
X359905Y325841D01*
X359405Y325993D01*
Y328918D01*
X367566Y337079D01*
X368000Y336993D01*
X368687Y337130D01*
X368953Y336937D01*
D02*
G37*
D25*
X225839Y261500D02*
D03*
X218161D02*
D03*
X226661Y198500D02*
D03*
X234339D02*
D03*
X215839D02*
D03*
X208161D02*
D03*
D26*
X225937Y254500D02*
D03*
X218063D02*
D03*
X189937Y210000D02*
D03*
X182063D02*
D03*
X201937Y253000D02*
D03*
X194063D02*
D03*
X226563Y206000D02*
D03*
X234437D02*
D03*
X215937D02*
D03*
X208063D02*
D03*
D68*
X248500Y389000D02*
X256500D01*
X261500Y394000D01*
Y434000D01*
D69*
X221000Y198500D02*
X226661D01*
X215839D02*
X221000D01*
Y206000D02*
X226563D01*
X215937D02*
X221000D01*
Y198500D02*
Y206000D01*
Y190000D02*
Y198500D01*
Y190000D02*
X227500Y183500D01*
Y178500D02*
Y183500D01*
D70*
X375500Y238000D02*
X385500D01*
D72*
X386500Y209000D02*
Y213000D01*
X382000Y204500D02*
X386500Y209000D01*
X305000Y352500D02*
X311500D01*
X315000Y349000D01*
Y301000D02*
Y349000D01*
X309000Y295000D02*
X315000Y301000D01*
X309000Y274000D02*
Y295000D01*
X305500Y266500D02*
Y348500D01*
X374843Y350842D02*
X381000D01*
X352000Y328000D02*
X374843Y350842D01*
X348500Y328000D02*
X352000D01*
X361000Y318000D02*
Y325000D01*
X358000Y316000D02*
Y329500D01*
Y316000D02*
X359500Y314500D01*
X243500Y289500D02*
X250500Y282500D01*
Y266000D02*
Y282500D01*
X249000Y264500D02*
X250500Y266000D01*
X243500Y264500D02*
X249000D01*
X374937Y365063D02*
X382813D01*
X384876Y363000D01*
X403000D01*
X375000Y250000D02*
X385000D01*
X369500Y312500D02*
Y327000D01*
X386000Y334000D02*
X391500D01*
X374500Y322500D02*
X386000Y334000D01*
X374500Y312000D02*
Y322500D01*
X393500Y331500D02*
Y332000D01*
X391500Y334000D02*
X393500Y332000D01*
X375500Y243000D02*
X385000D01*
X388500Y328000D02*
Y331000D01*
X379500Y319000D02*
X388500Y328000D01*
X379500Y311500D02*
Y319000D01*
X275000Y201500D02*
X276000Y200500D01*
X266500Y201500D02*
X275000D01*
X240500Y276000D02*
Y285000D01*
Y276000D02*
X247500Y269000D01*
X190512Y209425D02*
X191587Y210500D01*
X194882D01*
X215500Y206437D02*
X215937Y206000D01*
X215500Y206437D02*
Y210500D01*
X348500Y301500D02*
Y307000D01*
X281000Y260000D02*
Y280500D01*
X281500Y281000D01*
X275500Y260000D02*
Y276000D01*
X266000Y213000D02*
X275500D01*
X266000Y205500D02*
X276000D01*
X226500Y206063D02*
Y210500D01*
X201937Y253000D02*
Y259925D01*
X441500Y174000D02*
Y183000D01*
X443500Y185000D01*
X445500Y170500D02*
X446059Y171059D01*
Y203441D01*
X444500Y205000D02*
X446059Y203441D01*
X387000Y268000D02*
X397500Y278500D01*
X375000Y268000D02*
Y273000D01*
X339000Y268000D02*
X375000D01*
X387000D01*
X218161Y267500D02*
X218661Y268000D01*
X346000Y338000D02*
X353000D01*
X357500Y342500D01*
X361000Y325000D02*
X371000Y335000D01*
Y336216D01*
X358000Y329500D02*
X367500Y339000D01*
X368000D01*
X376500Y334000D02*
Y336000D01*
X369500Y327000D02*
X376500Y334000D01*
X301000Y348500D02*
X305000Y352500D01*
X293500Y348500D02*
X301000D01*
X376000Y402500D02*
Y410500D01*
X375500Y411000D02*
X376000Y410500D01*
X359500Y347000D02*
X362000Y344500D01*
X342000Y347000D02*
X359500D01*
X382000Y399500D02*
Y411500D01*
X376500Y417000D02*
X382000Y411500D01*
X218661Y262000D02*
Y268000D01*
X216500Y249500D02*
Y259839D01*
X234500Y206063D02*
Y210500D01*
X209000Y206937D02*
Y210000D01*
D74*
X189937D02*
X190512Y209425D01*
Y200249D02*
Y209425D01*
X103500Y182000D02*
X110000Y188500D01*
X103500Y151000D02*
Y182000D01*
Y151000D02*
X107500Y147000D01*
X121500D01*
X127500Y141000D01*
Y131000D02*
Y141000D01*
Y131000D02*
X136000Y122500D01*
X194000Y273000D02*
X216000D01*
X218161Y270839D01*
X440500Y140500D02*
X446500Y146500D01*
X440500Y126000D02*
Y140500D01*
X437000Y122500D02*
X440500Y126000D01*
X446500Y146500D02*
X459500D01*
X467000Y154000D01*
X464000Y340500D02*
X467000Y337500D01*
X459000Y340500D02*
X464000D01*
X442000Y218000D02*
X467000D01*
X429000Y205000D02*
X442000Y218000D01*
X467000Y154000D02*
Y218000D01*
Y337500D01*
X440500Y140500D02*
Y141000D01*
X178500Y123000D02*
Y139500D01*
Y123000D02*
X179000Y122500D01*
X136000D02*
X179000D01*
X437000D01*
X218161Y267500D02*
Y270839D01*
D75*
X420000Y468500D02*
D03*
X410000D02*
D03*
D76*
X400000D02*
D03*
D77*
X395508Y224886D02*
D03*
X458500D02*
D03*
X450626D02*
D03*
X442752D02*
D03*
X434878D02*
D03*
X427004D02*
D03*
X419130D02*
D03*
X411256D02*
D03*
X403382D02*
D03*
X387634D02*
D03*
Y311500D02*
D03*
X395508D02*
D03*
X403382D02*
D03*
X411256D02*
D03*
X419130D02*
D03*
X427004D02*
D03*
X434878D02*
D03*
X442752D02*
D03*
X450626D02*
D03*
X381000Y341000D02*
D03*
Y350842D02*
D03*
Y360685D02*
D03*
Y370528D02*
D03*
Y380370D02*
D03*
Y390213D02*
D03*
X251000Y456658D02*
D03*
X162500Y432342D02*
D03*
Y412657D02*
D03*
X308492Y193000D02*
D03*
Y183000D02*
D03*
Y153000D02*
D03*
Y163000D02*
D03*
Y173000D02*
D03*
X270500Y308000D02*
D03*
X280500D02*
D03*
X290500D02*
D03*
X300500D02*
D03*
X310500D02*
D03*
X260500Y128000D02*
D03*
Y138000D02*
D03*
Y148000D02*
D03*
Y268000D02*
D03*
X320500D02*
D03*
Y128000D02*
D03*
X260500Y278000D02*
D03*
Y288000D02*
D03*
Y298000D02*
D03*
Y308000D02*
D03*
Y318000D02*
D03*
Y328000D02*
D03*
Y338000D02*
D03*
Y348000D02*
D03*
Y358000D02*
D03*
X320500D02*
D03*
Y348000D02*
D03*
Y338000D02*
D03*
Y328000D02*
D03*
Y318000D02*
D03*
Y308000D02*
D03*
Y298000D02*
D03*
Y288000D02*
D03*
Y278000D02*
D03*
X260500Y158000D02*
D03*
Y168000D02*
D03*
Y178000D02*
D03*
Y188000D02*
D03*
Y198000D02*
D03*
Y208000D02*
D03*
Y218000D02*
D03*
Y228000D02*
D03*
Y238000D02*
D03*
Y248000D02*
D03*
Y258000D02*
D03*
X320500D02*
D03*
Y248000D02*
D03*
Y238000D02*
D03*
Y228000D02*
D03*
Y218000D02*
D03*
Y208000D02*
D03*
Y198000D02*
D03*
Y188000D02*
D03*
Y178000D02*
D03*
Y168000D02*
D03*
Y158000D02*
D03*
Y148000D02*
D03*
Y138000D02*
D03*
X278000Y187000D02*
D03*
X286000D02*
D03*
X270000Y179000D02*
D03*
X278000D02*
D03*
X286000D02*
D03*
X270000Y187000D02*
D03*
D78*
X458500Y311500D02*
D03*
X251000Y476342D02*
D03*
D79*
X219513Y298419D02*
D03*
X216342Y158500D02*
D03*
D80*
X199828Y298419D02*
D03*
X196658Y158500D02*
D03*
D81*
X119000Y226000D02*
D03*
Y246000D02*
D03*
Y438000D02*
D03*
Y458000D02*
D03*
X121500Y403500D02*
D03*
Y383500D02*
D03*
Y360500D02*
D03*
Y340500D02*
D03*
D82*
X352900Y130400D02*
D03*
X405900Y129900D02*
D03*
D83*
X360100Y130500D02*
D03*
X367300D02*
D03*
X374500D02*
D03*
X413100Y130000D02*
D03*
X420300D02*
D03*
X427500D02*
D03*
D84*
X403000Y343000D02*
D03*
Y348000D02*
D03*
Y353000D02*
D03*
Y358000D02*
D03*
Y363000D02*
D03*
Y368000D02*
D03*
Y378000D02*
D03*
Y373000D02*
D03*
Y383000D02*
D03*
Y388000D02*
D03*
Y393000D02*
D03*
D85*
Y398000D02*
D03*
D86*
X365500Y488500D02*
D03*
X441500Y436500D02*
D03*
X434000Y431000D02*
D03*
X427000Y436500D02*
D03*
X420000Y431000D02*
D03*
X407000Y436500D02*
D03*
X412000D02*
D03*
X391500D02*
D03*
X404500Y149500D02*
D03*
X386500Y213000D02*
D03*
X382000Y204500D02*
D03*
X204500Y397000D02*
D03*
X254500Y387500D02*
D03*
X251500D02*
D03*
X248500D02*
D03*
X254500Y391500D02*
D03*
X251500D02*
D03*
X248500D02*
D03*
X254000Y425000D02*
D03*
X249000Y423000D02*
D03*
X270000Y425000D02*
D03*
X278000Y421500D02*
D03*
X215000Y450500D02*
D03*
X211000D02*
D03*
X207000D02*
D03*
X203500D02*
D03*
X215000Y454000D02*
D03*
X211000D02*
D03*
X207000D02*
D03*
X203500D02*
D03*
X290000Y488500D02*
D03*
X358500D02*
D03*
X352000D02*
D03*
X345500D02*
D03*
X339500D02*
D03*
X333500D02*
D03*
X327000D02*
D03*
X321000D02*
D03*
X314500D02*
D03*
X308500D02*
D03*
X303000D02*
D03*
X297000D02*
D03*
X251500Y359500D02*
D03*
X309000Y274000D02*
D03*
X305500Y266500D02*
D03*
Y348500D02*
D03*
X126000Y215000D02*
D03*
X119000Y208000D02*
D03*
X126000Y201500D02*
D03*
X178000Y331000D02*
D03*
Y334000D02*
D03*
X339500Y288500D02*
D03*
X340000Y260000D02*
D03*
X330000Y268000D02*
D03*
Y285500D02*
D03*
X360500Y260000D02*
D03*
X362500Y252500D02*
D03*
X296500Y396500D02*
D03*
X300500D02*
D03*
X296500Y400000D02*
D03*
X300500D02*
D03*
Y403500D02*
D03*
X296500D02*
D03*
X361500Y357500D02*
D03*
X367000Y350500D02*
D03*
X348500Y328000D02*
D03*
X361000Y318000D02*
D03*
X148500Y454000D02*
D03*
X243500Y264500D02*
D03*
Y289500D02*
D03*
X359500Y314000D02*
D03*
X374500Y365000D02*
D03*
X375000Y250000D02*
D03*
X385000D02*
D03*
X369500Y312500D02*
D03*
X393500Y331000D02*
D03*
X374500Y312000D02*
D03*
X385000Y243000D02*
D03*
X375500D02*
D03*
X379500Y311500D02*
D03*
X385500Y238000D02*
D03*
X375500D02*
D03*
X388500Y331000D02*
D03*
X276000Y200500D02*
D03*
X240500Y285000D02*
D03*
X247500Y269000D02*
D03*
X215500Y210500D02*
D03*
X266500Y201500D02*
D03*
X255500Y231500D02*
D03*
X248500Y245500D02*
D03*
X254500Y216500D02*
D03*
X255000Y224000D02*
D03*
X110000Y188500D02*
D03*
X194000Y273000D02*
D03*
X429000Y193000D02*
D03*
X381500Y174500D02*
D03*
X459000Y340500D02*
D03*
X178500Y372500D02*
D03*
Y376500D02*
D03*
X349000Y307500D02*
D03*
X348500Y301500D02*
D03*
X281500Y281000D02*
D03*
X275500Y276000D02*
D03*
X281000Y260000D02*
D03*
X275500D02*
D03*
X276000Y205500D02*
D03*
X275500Y213000D02*
D03*
X266000Y205500D02*
D03*
Y213000D02*
D03*
X353500Y280500D02*
D03*
X364000Y288500D02*
D03*
X319000Y402000D02*
D03*
X316500D02*
D03*
X314000D02*
D03*
X234500Y210500D02*
D03*
X226500D02*
D03*
X209000Y210000D02*
D03*
X202000Y210500D02*
D03*
X188607Y215919D02*
D03*
X194882Y210500D02*
D03*
X205000Y251500D02*
D03*
X205170Y234419D02*
D03*
X209170D02*
D03*
X213170D02*
D03*
X217170D02*
D03*
X221170D02*
D03*
X224670D02*
D03*
X197170Y229919D02*
D03*
X217170D02*
D03*
X213170D02*
D03*
X197170Y234419D02*
D03*
X205170Y229919D02*
D03*
X201170D02*
D03*
X209170D02*
D03*
X221170D02*
D03*
X224670D02*
D03*
X201170Y234419D02*
D03*
X228170Y229919D02*
D03*
X221170Y224919D02*
D03*
X213170D02*
D03*
X224670D02*
D03*
X228170D02*
D03*
X217170D02*
D03*
X228170Y234419D02*
D03*
X209170Y224919D02*
D03*
X205170D02*
D03*
X197170D02*
D03*
X201170D02*
D03*
X355000Y371000D02*
D03*
X345500Y385000D02*
D03*
X349500Y382500D02*
D03*
X351500Y386000D02*
D03*
X216500Y249500D02*
D03*
X441500Y174000D02*
D03*
X443500Y185000D02*
D03*
X445500Y170500D02*
D03*
X444500Y205000D02*
D03*
X451000Y185500D02*
D03*
X444000Y158000D02*
D03*
X126500Y181000D02*
D03*
X264000Y430000D02*
D03*
X259000D02*
D03*
Y433500D02*
D03*
X264000D02*
D03*
X429000Y205000D02*
D03*
X360500Y301000D02*
D03*
X339000Y268000D02*
D03*
X375000Y273000D02*
D03*
X397500Y278500D02*
D03*
X216500Y179000D02*
D03*
X208500D02*
D03*
X212000Y262500D02*
D03*
X209000Y262000D02*
D03*
X212000Y266000D02*
D03*
X178500Y139500D02*
D03*
X177555Y147000D02*
D03*
X160500Y166500D02*
D03*
X115000Y165500D02*
D03*
X126000Y167500D02*
D03*
X126500Y273500D02*
D03*
Y287000D02*
D03*
Y259000D02*
D03*
Y270000D02*
D03*
X121000Y264500D02*
D03*
X235000Y297000D02*
D03*
X375000Y284500D02*
D03*
X446500Y322000D02*
D03*
X446000Y331000D02*
D03*
X393000Y393500D02*
D03*
X293000Y378500D02*
D03*
X285500Y370000D02*
D03*
X278000Y372000D02*
D03*
X283500Y436000D02*
D03*
X279000D02*
D03*
X283500Y432000D02*
D03*
X279000D02*
D03*
Y427500D02*
D03*
X283500D02*
D03*
X227500Y178500D02*
D03*
X356500Y378500D02*
D03*
X353000D02*
D03*
X184500Y338500D02*
D03*
X185500Y382500D02*
D03*
X135000Y139000D02*
D03*
X346000Y338000D02*
D03*
X357500Y342500D02*
D03*
X371000Y336216D02*
D03*
X368000Y339000D02*
D03*
X376500Y336000D02*
D03*
X362000Y344500D02*
D03*
X346000Y396500D02*
D03*
X376000Y402500D02*
D03*
X328000Y400000D02*
D03*
X293500Y348500D02*
D03*
X375500Y411000D02*
D03*
X392500Y338500D02*
D03*
X382000Y399500D02*
D03*
X376500Y417000D02*
D03*
X342000Y347000D02*
D03*
D87*
X112500Y132000D02*
D03*
X113000Y481000D02*
D03*
X457500Y132000D02*
D03*
X456500Y481000D02*
D03*
D88*
X179488Y200249D02*
D03*
X190512D02*
D03*
X192488Y261500D02*
D03*
X203512D02*
D03*
M02*
